<svg id="レイヤー_1" data-name="レイヤー 1" xmlns="http://www.w3.org/2000/svg" viewBox="0 0 742.42 116.28">
  <defs>
    <style>
      .cls-1 {
        fill: #fff;
      }
    </style>
  </defs>
  <g>
    <g>
      <g>
        <path class="cls-1" d="M31.72,1v53.1A16.75,16.75,0,0,1,27.23,66a16.7,16.7,0,0,1-5.32,3.71,17.55,17.55,0,0,1-7.18,1.37A14.09,14.09,0,0,1,6.78,69a26.33,26.33,0,0,1-5-4.15l7.81-6.25a10.07,10.07,0,0,0,2.49,1.81,6.37,6.37,0,0,0,3,.73,7.4,7.4,0,0,0,2-.34,5.81,5.81,0,0,0,2.24-1.32A6.26,6.26,0,0,0,21.08,57a11.12,11.12,0,0,0,.68-4.24V1Z"/>
        <path class="cls-1" d="M35.62,70.47,51.14,1h8.3L75,70.47H65L62.07,55.54H48.51L45.58,70.47Zm24.6-24.3L55.34,21h-.2L50.26,46.17Z"/>
        <path class="cls-1" d="M78.86,70.47V1H93.8A22.07,22.07,0,0,1,101,2.05a13.8,13.8,0,0,1,5.66,3.8,15.09,15.09,0,0,1,3.52,6.4,40.51,40.51,0,0,1,1,9.9,48.88,48.88,0,0,1-.54,7.91,16.33,16.33,0,0,1-2.29,6.05,14.54,14.54,0,0,1-5.47,5.32,18.36,18.36,0,0,1-9,1.91H88.82V70.47Zm10-60.13V34H93.6a10.27,10.27,0,0,0,4.69-.88,5.58,5.58,0,0,0,2.44-2.44,8.83,8.83,0,0,0,.92-3.61c.1-1.44.15-3,.15-4.79s0-3.17-.1-4.63a10,10,0,0,0-.88-3.86,5.55,5.55,0,0,0-2.34-2.54A9.37,9.37,0,0,0,94,10.34Z"/>
        <path class="cls-1" d="M109.51,70.47,125,1h8.3l15.52,69.5h-10L136,55.54H122.4l-2.93,14.93Zm24.6-24.3L129.23,21H129l-4.88,25.19Z"/>
        <path class="cls-1" d="M152.36,70.47V1h9.57l15,41.88h.2V1h10v69.5h-9.37L162.52,28.69h-.2V70.47Z"/>
      </g>
      <g>
        <path class="cls-1" d="M211.86,70.48V1.56h14.61q8.52,0,12.93,4.64t4.4,13.17V51.6q0,9.67-4.69,14.28t-13.51,4.6Zm9.87-59.63V61.18h4.55q4.16,0,5.9-2.08t1.75-6.53V19.37a10.45,10.45,0,0,0-1.65-6.3q-1.65-2.22-6-2.22Z"/>
        <path class="cls-1" d="M250.67,70.48V1.56h15.88Q284,1.56,284,21.79a25.45,25.45,0,0,1-1.89,10.35A14.7,14.7,0,0,1,275.45,39L286.1,70.48H275.65l-9.2-29.43h-5.9V70.48Zm9.88-59.63V32.34h5.61a9.82,9.82,0,0,0,4.16-.73,5.66,5.66,0,0,0,2.42-2.08,9.51,9.51,0,0,0,1.07-3.34,32.67,32.67,0,0,0,.29-4.6,32.78,32.78,0,0,0-.29-4.6,9.33,9.33,0,0,0-1.16-3.43q-1.84-2.72-7-2.71Z"/>
        <path class="cls-1" d="M321.43,1.56V55a15.62,15.62,0,0,1-4.64,11.32,16.42,16.42,0,0,1-5.14,3.49,15.36,15.36,0,0,1-6.19,1.26,15.11,15.11,0,0,1-6.15-1.26,16.82,16.82,0,0,1-8.56-8.57A15.26,15.26,0,0,1,289.49,55V1.56h9.87V54q0,3.67,1.74,5.42a6.33,6.33,0,0,0,8.72,0q1.74-1.74,1.74-5.42V1.56Z"/>
        <path class="cls-1" d="M327.72,17.82a17.58,17.58,0,0,1,1.46-7.36,15.34,15.34,0,0,1,3.87-5.32A16.26,16.26,0,0,1,338.32,2a17.56,17.56,0,0,1,17.28,3.1,16.21,16.21,0,0,1,3.78,5.32,17.74,17.74,0,0,1,1.45,7.36V21.3H351V17.82q0-3.59-2-5.28a7.37,7.37,0,0,0-9.39,0q-2,1.7-2,5.28V54.21q0,3.59,2,5.28a7.37,7.37,0,0,0,9.39,0q2-1.7,2-5.28v-13h-7.84V32.53h17.72V54.21a17.6,17.6,0,0,1-1.45,7.46,15.5,15.5,0,0,1-3.78,5.13A16.52,16.52,0,0,1,350.23,70a17.11,17.11,0,0,1-11.91,0,15.49,15.49,0,0,1-5.27-3.19,14.69,14.69,0,0,1-3.87-5.13,17.44,17.44,0,0,1-1.46-7.46Z"/>
        <path class="cls-1" d="M401,21.4h-9.87V19.17a10.54,10.54,0,0,0-1.6-5.85q-1.61-2.48-5.37-2.47a6.3,6.3,0,0,0-3.3.77,6.61,6.61,0,0,0-2,1.94,8.05,8.05,0,0,0-1.06,2.85,18.13,18.13,0,0,0-.29,3.34c0,1.36,0,2.49.14,3.39a6.41,6.41,0,0,0,.73,2.42A5.45,5.45,0,0,0,380,27.4a15.53,15.53,0,0,0,3,1.55l7.55,3A18.89,18.89,0,0,1,396,34.9a12.82,12.82,0,0,1,3.19,3.92,18.41,18.41,0,0,1,1.45,5.28,51.86,51.86,0,0,1,.39,6.73,35.49,35.49,0,0,1-.87,8.08,17,17,0,0,1-2.81,6.34A13.86,13.86,0,0,1,392,69.51a18.87,18.87,0,0,1-8,1.55,17.57,17.57,0,0,1-6.68-1.26A15.82,15.82,0,0,1,372,66.31a16.84,16.84,0,0,1-3.53-5.17,15.61,15.61,0,0,1-1.31-6.44V51H377v3.1a8.14,8.14,0,0,0,1.6,4.89c1.06,1.45,2.86,2.17,5.37,2.17a8.7,8.7,0,0,0,3.92-.72,5.27,5.27,0,0,0,2.18-2.08,7.69,7.69,0,0,0,.92-3.25c.1-1.26.15-2.66.15-4.21a41.26,41.26,0,0,0-.2-4.45,7.86,7.86,0,0,0-.77-2.81,5.42,5.42,0,0,0-1.79-1.74,24.18,24.18,0,0,0-3-1.45l-7.06-2.91Q372,35,369.78,30.64a23.83,23.83,0,0,1-2.18-10.79,25.1,25.1,0,0,1,1.07-7.36,16.76,16.76,0,0,1,3.19-6,14.76,14.76,0,0,1,5.18-4,17.45,17.45,0,0,1,7.5-1.5,16.45,16.45,0,0,1,6.73,1.36,17.47,17.47,0,0,1,5.28,3.58A15,15,0,0,1,401,16.56Z"/>
        <path class="cls-1" d="M414.84,70.48V10.85H403.42V1.56h32.72v9.29H424.71V70.48Z"/>
        <path class="cls-1" d="M438.75,17.82a17.58,17.58,0,0,1,1.45-7.36,15.59,15.59,0,0,1,3.87-5.32A16.31,16.31,0,0,1,449.35,2a17.58,17.58,0,0,1,17.28,3.1,16.19,16.19,0,0,1,3.77,5.32,17.58,17.58,0,0,1,1.45,7.36V54.21a17.45,17.45,0,0,1-1.45,7.46,15.47,15.47,0,0,1-3.77,5.13A16.67,16.67,0,0,1,461.25,70a17.08,17.08,0,0,1-11.9,0,15.53,15.53,0,0,1-5.28-3.19,14.93,14.93,0,0,1-3.87-5.13,17.45,17.45,0,0,1-1.45-7.46Zm9.87,36.39q0,3.59,2,5.28a7.37,7.37,0,0,0,9.39,0q2-1.7,2-5.28V17.82q0-3.59-2-5.28a7.37,7.37,0,0,0-9.39,0q-2,1.7-2,5.28Z"/>
        <path class="cls-1" d="M479.6,70.48V1.56h15.87q17.43,0,17.43,20.23A25.45,25.45,0,0,1,511,32.14,14.7,14.7,0,0,1,504.38,39L515,70.48H504.57l-9.19-29.43h-5.91V70.48Zm9.87-59.63V32.34h5.61a9.87,9.87,0,0,0,4.17-.73,5.66,5.66,0,0,0,2.42-2.08,9.52,9.52,0,0,0,1.06-3.34,31.24,31.24,0,0,0,.29-4.6,31.33,31.33,0,0,0-.29-4.6,9.15,9.15,0,0,0-1.16-3.43q-1.85-2.72-7-2.71Z"/>
        <path class="cls-1" d="M519.87,70.48V1.56h29.42v9.29H529.74V31.08h17v9.29h-17V60.6h19.55v9.88Z"/>
        <path class="cls-1" d="M603.69,21.4h-9.87V19.17a10.46,10.46,0,0,0-1.6-5.85q-1.59-2.48-5.37-2.47a6.26,6.26,0,0,0-3.29.77,6.39,6.39,0,0,0-2,1.94,8.07,8.07,0,0,0-1.07,2.85,19,19,0,0,0-.29,3.34,31.62,31.62,0,0,0,.15,3.39,6.23,6.23,0,0,0,.72,2.42,5.39,5.39,0,0,0,1.7,1.84,15.24,15.24,0,0,0,3,1.55l7.55,3a18.83,18.83,0,0,1,5.32,2.95,12.67,12.67,0,0,1,3.19,3.92,18.41,18.41,0,0,1,1.46,5.28,53.84,53.84,0,0,1,.38,6.73,35.49,35.49,0,0,1-.87,8.08,17,17,0,0,1-2.8,6.34,14,14,0,0,1-5.33,4.26,18.79,18.79,0,0,1-8,1.55A17.53,17.53,0,0,1,580,69.8a15.86,15.86,0,0,1-5.33-3.49,17,17,0,0,1-3.53-5.17,15.78,15.78,0,0,1-1.31-6.44V51h9.88v3.1A8.13,8.13,0,0,0,581.28,59q1.61,2.18,5.38,2.17a8.76,8.76,0,0,0,3.92-.72,5.24,5.24,0,0,0,2.17-2.08,7.55,7.55,0,0,0,.92-3.25c.1-1.26.15-2.66.15-4.21a44.44,44.44,0,0,0-.19-4.45,7.65,7.65,0,0,0-.78-2.81,5.42,5.42,0,0,0-1.79-1.74,24,24,0,0,0-2.95-1.45L581,37.56q-6.39-2.61-8.56-6.92a23.69,23.69,0,0,1-2.18-10.79,25.09,25.09,0,0,1,1.06-7.36,16.78,16.78,0,0,1,3.2-6,14.67,14.67,0,0,1,5.18-4,17.38,17.38,0,0,1,7.5-1.5A16.4,16.4,0,0,1,594,2.33a17.22,17.22,0,0,1,5.28,3.58,15,15,0,0,1,4.45,10.65Z"/>
        <path class="cls-1" d="M610.08,70.48V1.56H620V31.08h12.2V1.56H642V70.48h-9.87V39.79H620V70.48Z"/>
        <path class="cls-1" d="M649.77,17.82a17.58,17.58,0,0,1,1.45-7.36,15.59,15.59,0,0,1,3.87-5.32A16.31,16.31,0,0,1,660.37,2a17.58,17.58,0,0,1,17.28,3.1,16.19,16.19,0,0,1,3.77,5.32,17.58,17.58,0,0,1,1.45,7.36V54.21a17.45,17.45,0,0,1-1.45,7.46,15.47,15.47,0,0,1-3.77,5.13A16.67,16.67,0,0,1,672.27,70a17.08,17.08,0,0,1-11.9,0,15.53,15.53,0,0,1-5.28-3.19,14.93,14.93,0,0,1-3.87-5.13,17.45,17.45,0,0,1-1.45-7.46Zm9.87,36.39q0,3.59,2,5.28a7.37,7.37,0,0,0,9.39,0q2-1.7,2-5.28V17.82q0-3.59-2-5.28a7.37,7.37,0,0,0-9.39,0q-2,1.7-2,5.28Z"/>
        <path class="cls-1" d="M740.66,1.56,730.4,70.48h-9.29l-7.55-44.73h-.19l-7.46,44.73h-9.29L686.36,1.56h10.45l4.94,43.75h.19l7.75-43.75h7.55l8,44.81h.2l4.74-44.81Z"/>
      </g>
    </g>
    <g>
      <g>
        <path class="cls-1" d="M358.21,90.13v4.45c0,.11,0,.18.13.2q3,.85,6.63,2.16t6,2.36a1.09,1.09,0,0,1,.63.65,1.22,1.22,0,0,1,0,.92l-1.44,3.5a1,1,0,0,1-.61.62,1,1,0,0,1-.87-.06q-4-1.94-10.34-4.22c-.09,0-.13,0-.13.09v8.48c0,.74.07,2,.23,3.9a1,1,0,0,1-.26.81,1,1,0,0,1-.79.37h-4a1,1,0,0,1-.75-.37,1,1,0,0,1-.26-.65l.26-4.06V90.13a23.1,23.1,0,0,0-.23-3.21,1,1,0,0,1,.23-.8,1,1,0,0,1,.75-.34h4a1,1,0,0,1,.77.34,1,1,0,0,1,.27.8C358.27,88.21,358.21,89.28,358.21,90.13Zm11.13.66a1,1,0,0,1,.08.86,1,1,0,0,1-.61.64l-1.31.56a1.17,1.17,0,0,1-.9,0,1.26,1.26,0,0,1-.67-.62,23.7,23.7,0,0,0-1.8-3.18,1,1,0,0,1-.11-.8.82.82,0,0,1,.54-.6l1.21-.49a1.3,1.3,0,0,1,1,0,1.23,1.23,0,0,1,.75.54C368.24,88.85,368.86,89.89,369.34,90.79ZM374,88.72a1,1,0,0,1,.16.53.87.87,0,0,1-.06.32,1.09,1.09,0,0,1-.59.69l-1.25.62a1.2,1.2,0,0,1-.91.05,1.12,1.12,0,0,1-.69-.57,23.42,23.42,0,0,0-1.9-3.08.94.94,0,0,1-.15-.8.86.86,0,0,1,.54-.6l1.22-.59a1.25,1.25,0,0,1,.94-.07,1.44,1.44,0,0,1,.79.52C372.91,86.88,373.54,87.87,374,88.72Z"/>
        <path class="cls-1" d="M401.36,94.29a3.21,3.21,0,0,1,.65-.07,2.67,2.67,0,0,1,1.48.4l1.6,1a1.28,1.28,0,0,1,.56.72,2.56,2.56,0,0,1,0,.39,1.15,1.15,0,0,1-.13.53c-.09.24-.15.43-.2.59a26.66,26.66,0,0,1-5,9.13,24.68,24.68,0,0,1-10.86,7.07,2,2,0,0,1-.59.1,1.69,1.69,0,0,1-1.28-.62l-2.52-2.85a.66.66,0,0,1-.15-.67.69.69,0,0,1,.51-.48,21.77,21.77,0,0,0,10.41-5.46,13.21,13.21,0,0,0,3-4.72c.05-.08,0-.13-.09-.13h-15.1c-1,0-2.06,0-3.11.07a1.06,1.06,0,0,1-1.14-1.08V95.34a1,1,0,0,1,1.14-1.08c1.29.08,2.33.13,3.11.13h16A14.28,14.28,0,0,0,401.36,94.29Zm-17.58-3.14a1.2,1.2,0,0,1-.83-.31,1,1,0,0,1-.35-.77V87.15a1,1,0,0,1,.35-.77,1.05,1.05,0,0,1,.83-.27c.83,0,1.69.06,2.59.06h12.7c.91,0,1.85,0,2.81-.06a.09.09,0,0,1,.07,0,1,1,0,0,1,.72.3,1,1,0,0,1,.36.78v2.92a1.13,1.13,0,0,1-1.11,1.08h-.07c-1.05-.05-2-.07-2.85-.07H386.37C385.43,91.08,384.57,91.1,383.78,91.15Z"/>
        <path class="cls-1" d="M411,96.48a1.23,1.23,0,0,1-.1-.46,1.34,1.34,0,0,1,.07-.39,1.12,1.12,0,0,1,.62-.59l2.69-1a1.22,1.22,0,0,1,.45-.1,1.59,1.59,0,0,1,.5.1,1.2,1.2,0,0,1,.65.66c.74,1.63,1.49,3.49,2.26,5.56a1.34,1.34,0,0,1,.06.4,1.37,1.37,0,0,1-.09.49,1.12,1.12,0,0,1-.66.62l-2.78,1a.81.81,0,0,1-.39.1,1,1,0,0,1-.5-.13,1.07,1.07,0,0,1-.58-.65Q412,98.74,411,96.48Zm18.82-2.55a.93.93,0,0,1,.43-.69,1,1,0,0,1,.49-.13l.3,0,3.53,1.15a1.13,1.13,0,0,1,.66.56,1.21,1.21,0,0,1,.13.52,1.27,1.27,0,0,1-.07.36c-.15.48-.34,1.09-.55,1.83a26.89,26.89,0,0,1-4.52,9.5,24.52,24.52,0,0,1-4.72,4.77,27,27,0,0,1-5.56,3.34,1.73,1.73,0,0,1-1,.1,1.55,1.55,0,0,1-.89-.49l-2.65-2.68a.74.74,0,0,1,.3-1.18,24.18,24.18,0,0,0,5.56-2.64,17.33,17.33,0,0,0,4.55-4,17,17,0,0,0,2.57-4.65A24.08,24.08,0,0,0,429.84,93.93Zm-11,.59a1.09,1.09,0,0,1,0-.85.93.93,0,0,1,.64-.56l2.62-.85a.81.81,0,0,1,.39-.1,1.25,1.25,0,0,1,.52.13,1.08,1.08,0,0,1,.63.66c.67,1.66,1.34,3.4,2,5.23a1.13,1.13,0,0,1-.05.9,1,1,0,0,1-.67.58l-2.65.91a1,1,0,0,1-.88,0,1,1,0,0,1-.56-.67C420.18,97.93,419.51,96.16,418.81,94.52Z"/>
        <path class="cls-1" d="M467.53,87.87a1,1,0,0,1,.07.85,1.11,1.11,0,0,1-.59.63l-1.38.55a.11.11,0,0,0,0,.08.14.14,0,0,0,0,.09l2.29,1.4a1.12,1.12,0,0,1,.54.74,1.22,1.22,0,0,1-.11.9,13.84,13.84,0,0,0-.75,1.74,33.33,33.33,0,0,1-5.8,11,29.83,29.83,0,0,1-5.37,5.16,37.17,37.17,0,0,1-7.17,4.07,1.93,1.93,0,0,1-.75.17,1.8,1.8,0,0,1-1.18-.49L444.26,112a.64.64,0,0,1-.22-.64.6.6,0,0,1,.44-.48,30.19,30.19,0,0,0,7.32-3.42,27.51,27.51,0,0,0,5.16-4.5,19.39,19.39,0,0,0,2.73-4.06,17.76,17.76,0,0,0,1.65-4.16c0-.1,0-.16-.13-.16h-8a.28.28,0,0,0-.23.13,40.52,40.52,0,0,1-7.4,7.2,1.5,1.5,0,0,1-.95.33,1.52,1.52,0,0,1-.95-.33l-2.68-2a.78.78,0,0,1,.06-1.31A32.39,32.39,0,0,0,444.42,96a25.59,25.59,0,0,0,2.7-2.72c.77-.91,1.39-1.69,1.85-2.34s.95-1.39,1.47-2.24a14.87,14.87,0,0,0,1.41-2.88,1.15,1.15,0,0,1,.59-.67,1.17,1.17,0,0,1,.88-.08l3.73,1.24a.89.89,0,0,1,.46,1.31c-.39.61-.85,1.35-1.37,2.23-.05.08,0,.13.1.13h5.23a12.39,12.39,0,0,0,2.95-.33c.09,0,.11-.08.07-.16-.57-1.16-1.08-2.13-1.54-2.92a1,1,0,0,1-.1-.82.88.88,0,0,1,.56-.58l1-.43a1.54,1.54,0,0,1,.95,0,1.31,1.31,0,0,1,.75.58Q466.75,86.37,467.53,87.87Zm-.46-2.94a.84.84,0,0,1-.16-.49.73.73,0,0,1,.06-.3.92.92,0,0,1,.53-.59l1-.42a1.47,1.47,0,0,1,.95,0,1.35,1.35,0,0,1,.75.59c.51.79,1,1.64,1.48,2.56a1,1,0,0,1,.13.49,1,1,0,0,1-.07.36,1.09,1.09,0,0,1-.59.62l-1,.42a1.09,1.09,0,0,1-.46.1,1.82,1.82,0,0,1-.46-.06,1.26,1.26,0,0,1-.69-.62C468,86.58,467.55,85.71,467.07,84.93Z"/>
        <path class="cls-1" d="M496.93,87.05l.56,0a2.49,2.49,0,0,1,1.5.46l1.44,1.08a1.07,1.07,0,0,1,.48.75,1.45,1.45,0,0,1-.15.92q-.5.85-.78,1.44a48.35,48.35,0,0,1-5,8.74.2.2,0,0,0,0,.23c1.36,1.16,2.8,2.52,4.34,4.09s2.85,3,3.95,4.26a1.2,1.2,0,0,1,.26.75,1.18,1.18,0,0,1-.4.92l-2.91,2.52a1.1,1.1,0,0,1-.82.24,1.06,1.06,0,0,1-.75-.44,67.64,67.64,0,0,0-7.2-8.12.17.17,0,0,0-.23,0,44.14,44.14,0,0,1-11.16,8.51,1.34,1.34,0,0,1-.69.2,1.09,1.09,0,0,1-.26,0,1.7,1.7,0,0,1-.89-.46l-2.62-2.72a.72.72,0,0,1-.22-.52.69.69,0,0,1,0-.2.76.76,0,0,1,.46-.55,33.79,33.79,0,0,0,7-4,34.85,34.85,0,0,0,5.66-5,27.39,27.39,0,0,0,2.85-3.81,18.61,18.61,0,0,0,1.8-3.62c0-.09,0-.13-.1-.13H482.82c-.74,0-1.79.06-3.14.16a1,1,0,0,1-.8-.27,1,1,0,0,1-.34-.77V88.2a1,1,0,0,1,.34-.79,1.11,1.11,0,0,1,.8-.26c1.18.09,2.23.13,3.14.13H494A16.91,16.91,0,0,0,496.93,87.05Z"/>
        <path class="cls-1" d="M527.32,98.81a1.1,1.1,0,0,1,.62.65,1.27,1.27,0,0,1,.1.46,1.32,1.32,0,0,1-.1.46l-1.44,3.5a1.12,1.12,0,0,1-.62.59,1,1,0,0,1-.85,0,110.22,110.22,0,0,0-10.35-4.23c-.11,0-.16,0-.16.1v8.48c0,.74.08,2,.26,3.9a1,1,0,0,1-.28.8,1,1,0,0,1-.77.34h-4.06a1,1,0,0,1-.75-.33,1,1,0,0,1-.26-.68l.26-4V89.64a26.1,26.1,0,0,0-.2-3.21,1,1,0,0,1,.23-.8.92.92,0,0,1,.72-.34h4a1,1,0,0,1,.77.34,1,1,0,0,1,.28.8,26.67,26.67,0,0,0-.23,3.21v4.45c0,.09.05.14.16.17q3,.88,6.63,2.19C523.74,97.32,525.75,98.11,527.32,98.81Z"/>
        <path class="cls-1" d="M557.77,86.63h.32a2.4,2.4,0,0,1,1.67.62l1.51,1.41a1.18,1.18,0,0,1,.39.91,1.27,1.27,0,0,1-.26.79q-.55.72-.78,1.08A43.64,43.64,0,0,1,557.41,96a29,29,0,0,1-3.8,4,1.27,1.27,0,0,1-.88.33,1.71,1.71,0,0,1-.92-.33L549.42,98a.89.89,0,0,1-.31-.72.85.85,0,0,1,.38-.69,19.73,19.73,0,0,0,2.68-2.42,13.14,13.14,0,0,0,1.8-2.32c.07-.09,0-.13-.06-.13H537.5c-.91,0-2,.05-3.11.16a.93.93,0,0,1-.8-.26,1,1,0,0,1-.34-.79V87.58a.94.94,0,0,1,.33-.75.92.92,0,0,1,.65-.27h.16a22.46,22.46,0,0,0,3.11.23h17.39A26.59,26.59,0,0,0,557.77,86.63Zm-15.19,8.51a.94.94,0,0,1,.24-.8,1,1,0,0,1,.77-.35h3.57a1.09,1.09,0,0,1,.82.35,1.11,1.11,0,0,1,.33.8c0,1,0,1.76,0,2.39s0,1.39-.1,2.27a20,20,0,0,1-.24,2.28c-.11.63-.26,1.35-.46,2.14a12.52,12.52,0,0,1-.71,2.12,20.45,20.45,0,0,1-1,2,12,12,0,0,1-1.44,2,21.89,21.89,0,0,1-1.88,1.78,20.57,20.57,0,0,1-2.4,1.74,1.61,1.61,0,0,1-.81.23h-.13a2,2,0,0,1-1-.39l-2.92-2.39a.62.62,0,0,1-.23-.61.73.73,0,0,1,.4-.54,12.57,12.57,0,0,0,2.75-1.64,10.37,10.37,0,0,0,3.61-4.43,19,19,0,0,0,.94-6.7C542.68,96.55,542.64,95.82,542.58,95.14Z"/>
        <path class="cls-1" d="M566.15,97.92a1.08,1.08,0,0,1-.52-.69,1.5,1.5,0,0,1,0-.29,1,1,0,0,1,.16-.56l1.67-2.55a1.21,1.21,0,0,1,.75-.52.78.78,0,0,1,.33-.07,1.31,1.31,0,0,1,.59.16Q571.92,95,575,97a1.08,1.08,0,0,1,.49.72,1.15,1.15,0,0,1,0,.26,1.08,1.08,0,0,1-.19.62l-1.71,2.62a1.1,1.1,0,0,1-.75.49.75.75,0,0,1-.23,0,1.1,1.1,0,0,1-.62-.19Q568.64,99.35,566.15,97.92ZM570.64,114a1.59,1.59,0,0,1-.36,0,1.23,1.23,0,0,1-.62-.17,1.51,1.51,0,0,1-.76-.65L567,109.87a.81.81,0,0,1,0-.77.83.83,0,0,1,.6-.47,35.35,35.35,0,0,0,10.35-3.47,35.87,35.87,0,0,0,7.28-5.27,31.84,31.84,0,0,0,5.39-6.45.6.6,0,0,1,.55-.33.63.63,0,0,1,.59.33l2,3.53a1.89,1.89,0,0,1,.26.92,1.85,1.85,0,0,1-.36,1,41.41,41.41,0,0,1-12.9,11.16,39.4,39.4,0,0,1-5,2.29A37.42,37.42,0,0,1,570.64,114Zm.72-23.79a1.09,1.09,0,0,1-.51-.69,1,1,0,0,1,.15-.85l1.67-2.55a1.22,1.22,0,0,1,.75-.53l.3,0a1.27,1.27,0,0,1,.62.16c1.87,1.09,3.83,2.29,5.86,3.6a1.16,1.16,0,0,1,.49.74,1.13,1.13,0,0,1-.2.9l-1.7,2.55a1.07,1.07,0,0,1-.74.49,1.16,1.16,0,0,1-.9-.16Q573.91,91.7,571.36,90.2Z"/>
        <path class="cls-1" d="M619.42,95.57v16.85l0,1.41a1.21,1.21,0,0,1-.32.82,1.19,1.19,0,0,1-.82.33h-2.78a1.11,1.11,0,0,1-.81-.35,1,1,0,0,1-.31-.8.14.14,0,0,0-.16-.16H602.14l-1.8,0a1.06,1.06,0,0,1-.81-.29,1.08,1.08,0,0,1-.34-.79V110a1,1,0,0,1,.34-.77,1.2,1.2,0,0,1,.81-.31c.61,0,1.22.07,1.83.07h12.08c.11,0,.16-.06.16-.17v-3.27a.14.14,0,0,0-.16-.16h-9.72c-1.33,0-2.31,0-2.92,0a1.13,1.13,0,0,1-.8-.33,1,1,0,0,1-.34-.78v-2.46a1.06,1.06,0,0,1,.34-.79,1.16,1.16,0,0,1,.8-.32c.92,0,1.89.06,2.92.06h9.72a.14.14,0,0,0,.16-.16V97.76c0-.09,0-.13-.16-.13H604.07c-1,0-2.16,0-3.41.06a1.15,1.15,0,0,1-.8-.31,1,1,0,0,1-.34-.8V94.06a1,1,0,0,1,.33-.79,1.08,1.08,0,0,1,.75-.29h.06c1.14,0,2.27.07,3.41.07h14.24a.92.92,0,0,1,.78.29,1.11,1.11,0,0,1,.33.82Z"/>
        <path class="cls-1" d="M626,102.37a1,1,0,0,1-.81-.29,1.08,1.08,0,0,1-.34-.79V97.2a1,1,0,0,1,.36-.78,1,1,0,0,1,.72-.3h.1c1.88.11,3.41.17,4.62.17h17.8c.74,0,1.73-.06,2.95-.17a1,1,0,0,1,.83.3,1,1,0,0,1,.35.78v4.09a1,1,0,0,1-.36.79,1,1,0,0,1-.72.29h-.1c-1.35-.08-2.34-.13-2.95-.13h-17.8C629.24,102.24,627.69,102.29,626,102.37Z"/>
      </g>
      <g>
        <path class="cls-1" d="M103.57,108.19a26.88,26.88,0,0,1-11,6.52A18.37,18.37,0,0,0,90,111a26.21,26.21,0,0,0,10.52-4.9H96.09c-.11.3-.2.7-.37,1.26l-4.53-.07a36.07,36.07,0,0,0,1.72-6.12c.29-1.62.53-3.11.56-3.77.56.06,1.56.1,3.11.1h6.82l0-1.69H96.15a25.47,25.47,0,0,0-3,.13V92.7c-.33.3-.46.4-.89.76a14.44,14.44,0,0,0-2.45-3.24c2.71-2,4.33-4.07,5-6.39l4.24.66-.83,1.59h3.84a18.3,18.3,0,0,0,3.21-.17v2.55a11,11,0,0,0,2.48-4.63l4.24.66c-.46,1.06-.46,1.06-.73,1.62H117a20.87,20.87,0,0,0,3.67-.2v4a24,24,0,0,0-3.47-.17h-2.12c.53.8.79,1.23,1.12,1.79l-2.94.79h1.88c1.76,0,2.22,0,3.12-.1a14.82,14.82,0,0,0-.14,2.45v3.91a16.07,16.07,0,0,0,.14,2.48c-.8-.07-1.76-.1-3.12-.1H107.6l0,1.66h9.3c1.22,0,2.08,0,2.88-.1-.1.69-.27,2.55-.4,4-.46,5.6-1.16,6.29-6.12,6.29-.73,0-1.23,0-2.35-.06a17.77,17.77,0,0,0-1-3.88,29,29,0,0,0,3.44.27c1.62,0,1.75-.2,1.95-3.05h-7.71l.1,5.26A22.29,22.29,0,0,0,108,115h-4.57a14.29,14.29,0,0,0,.2-2.91,6,6,0,0,0,0-.83ZM98.63,92.3a14.3,14.3,0,0,0-1.22-2.61H96a19.24,19.24,0,0,1-2.25,2.55c.83.06,1.26.06,2.45.06Zm4.8,8.64H97.28c0,.13-.17.7-.37,1.66h6.56Zm2.19-8.64a12.47,12.47,0,0,0-2.22-2.08,6.88,6.88,0,0,1,.63-.5c-.43,0-.63,0-.86,0h-1.69c.3.46.33.56,1.09,1.82l-2.81.79Zm6.62,0a16.92,16.92,0,0,0-1.39-2.58h-1.53a16.33,16.33,0,0,1-2.25,2.58Zm-4.67,5.17H114V95.78h-6.49Z"/>
        <path class="cls-1" d="M129.85,112.76a38,38,0,0,0-4.6.13,15.36,15.36,0,0,1,.79-4.07,16.31,16.31,0,0,1,4.6-6.89,46.79,46.79,0,0,1,5.66-4.2c3-2,3.78-3,3.78-4.7S138.42,90,136,90a4.4,4.4,0,0,0-3.84,1.79,6.08,6.08,0,0,0-.89,3L125.45,94a10.7,10.7,0,0,1,2.35-5.59c1.78-2.05,4.56-3.15,8.14-3.15,6.09,0,10,3,10,7.58a7.89,7.89,0,0,1-2.91,6,42.17,42.17,0,0,1-5,3.64,30,30,0,0,0-3.64,3.05,7,7,0,0,0-1.55,2.45h8.37a32.8,32.8,0,0,0,5.07-.27V113a50,50,0,0,0-5.33-.23Z"/>
        <path class="cls-1" d="M155.87,112.76a38,38,0,0,0-4.6.13,15.36,15.36,0,0,1,.79-4.07,16.31,16.31,0,0,1,4.6-6.89,46.79,46.79,0,0,1,5.66-4.2c3.05-2,3.78-3,3.78-4.7s-1.66-3.08-4-3.08a4.4,4.4,0,0,0-3.84,1.79,6.18,6.18,0,0,0-.9,3L151.47,94a10.7,10.7,0,0,1,2.35-5.59c1.78-2.05,4.56-3.15,8.14-3.15,6.09,0,10,3,10,7.58a7.89,7.89,0,0,1-2.91,6,42.17,42.17,0,0,1-5,3.64,30,30,0,0,0-3.64,3.05,7,7,0,0,0-1.55,2.45h8.37a32.8,32.8,0,0,0,5.07-.27V113a50,50,0,0,0-5.33-.23Z"/>
        <path class="cls-1" d="M202.18,114.91v-1.72h-19.8v1.72h-4.53a38.16,38.16,0,0,0,.2-4.44V89.32c0-1.59-.07-2.68-.17-3.94a31,31,0,0,0,3.87.17h21a31.21,31.21,0,0,0,3.88-.17c-.1,1.2-.17,2.32-.17,3.94v21.19a38,38,0,0,0,.2,4.4Zm-19.8-5.59h19.76V89.46H182.38ZM196,92.6c1.42,0,2.22,0,3.08-.1-.07.8-.1,1.69-.1,2.65v8.27c0,1,0,1.82.1,2.65-.86-.06-1.79-.1-3.08-.1h-7.61c-1.49,0-2.19,0-3.08.1.06-.92.1-1.72.1-2.65V95.15c0-.93,0-1.69-.1-2.65.83.07,1.65.1,3.08.1Zm-6.55,9.67H195v-6h-5.49Z"/>
        <path class="cls-1" d="M229.09,85.85a27.28,27.28,0,0,0-.27,4.56V105a8,8,0,0,1-2,5.89,9.71,9.71,0,0,1-7.09,2.48c-3.21,0-5.65-.93-7.34-2.78a10.14,10.14,0,0,1-2-3.47l5.33-1.89a4.39,4.39,0,0,0,1.75,2.78,4.25,4.25,0,0,0,2.35.63,3.68,3.68,0,0,0,2.68-1,3.77,3.77,0,0,0,.76-2.68V90.45a28.24,28.24,0,0,0-.26-4.6Z"/>
        <path class="cls-1" d="M253.65,112.76a23.43,23.43,0,0,0-.86-3.51L251.67,106h-10l-1.13,3.21a17.33,17.33,0,0,0-.89,3.51H233.1a31,31,0,0,0,1.68-4L242,89.29a25.54,25.54,0,0,0,1.06-3.44h7.12a22.28,22.28,0,0,0,1.12,3.44l7.28,19.5c.63,1.68,1.23,3.14,1.63,4ZM247.13,92c-.1-.29-.23-.62-.49-1.52-.2.7-.24.86-.47,1.52l-3.11,9.37h7.22Z"/>
        <path class="cls-1" d="M264.21,112.76a30.08,30.08,0,0,0,.27-4.57V90.28a33.42,33.42,0,0,0-.27-4.53c1.49.06,2.58.1,4.54.1h7.05c3.34,0,5.79.82,7.45,2.48a8.26,8.26,0,0,1,2.15,6,8.76,8.76,0,0,1-2.35,6.39c-1.69,1.72-4.14,2.55-7.35,2.55h-5.79v4.89a31,31,0,0,0,.26,4.64Zm11.36-14.2c2.68,0,4.2-1.49,4.2-4.11a3.91,3.91,0,0,0-1-2.84,4.07,4.07,0,0,0-3.21-1.09h-5.66v8Z"/>
        <path class="cls-1" d="M306.72,112.76a23.35,23.35,0,0,0-.87-3.51L304.73,106h-10l-1.12,3.21a16.79,16.79,0,0,0-.9,3.51h-6.55a32.24,32.24,0,0,0,1.69-4l7.21-19.5a25.54,25.54,0,0,0,1.06-3.44h7.12a23.5,23.5,0,0,0,1.12,3.44l7.29,19.5c.63,1.68,1.22,3.14,1.62,4ZM300.19,92c-.09-.29-.23-.62-.49-1.52-.2.7-.23.86-.47,1.52l-3.11,9.37h7.22Z"/>
        <path class="cls-1" d="M333.2,101a41.72,41.72,0,0,1,2.25,3.77c-.1-1.16-.2-2.91-.2-4.14v-10a27.23,27.23,0,0,0-.3-4.76h5.93a31.66,31.66,0,0,0-.27,4.8v17.51a28.92,28.92,0,0,0,.27,4.6h-6.23a30.68,30.68,0,0,0-2.25-3.87l-7.61-11.33a38.53,38.53,0,0,1-2.12-3.7c0,.39,0,.39.13,1.55,0,.57.1,2,.1,2.62v9.66a33.64,33.64,0,0,0,.27,5.07h-5.89a32.68,32.68,0,0,0,.26-5.1V90.45a32,32,0,0,0-.26-4.6h6.15a18.14,18.14,0,0,0,2.15,3.8Z"/>
      </g>
    </g>
  </g>
</svg>
