<svg id="レイヤー_1" data-name="レイヤー 1" xmlns="http://www.w3.org/2000/svg" viewBox="0 0 886.69 116.28"><defs><style>.cls-1,.cls-2{fill:#fff;}.cls-2{stroke:#fff;stroke-linecap:round;stroke-linejoin:round;stroke-width:0.4px;}</style></defs><path class="cls-1" d="M430.16,90.13v4.45a.18.18,0,0,0,.13.2q3,.85,6.63,2.16c2.43.87,4.44,1.66,6,2.36a1.1,1.1,0,0,1,.62.65,1.11,1.11,0,0,1,0,.92l-1.44,3.5a1,1,0,0,1-.61.62,1,1,0,0,1-.86-.06q-4-1.94-10.35-4.22c-.08,0-.13,0-.13.09v8.48c0,.74.08,2,.23,3.9a1,1,0,0,1-.26.81,1,1,0,0,1-.79.37h-4a1.07,1.07,0,0,1-1-1l.26-4.06V90.13a21.66,21.66,0,0,0-.23-3.21,1,1,0,0,1,.23-.8,1,1,0,0,1,.76-.34h4a1,1,0,0,1,.77.34,1,1,0,0,1,.28.8C430.23,88.21,430.16,89.28,430.16,90.13Zm11.13.66a1,1,0,0,1,.08.86,1,1,0,0,1-.6.64l-1.31.56a1.17,1.17,0,0,1-.9,0,1.2,1.2,0,0,1-.67-.62,26.11,26.11,0,0,0-1.8-3.18,1,1,0,0,1-.12-.8.86.86,0,0,1,.54-.6l1.21-.49a1.3,1.3,0,0,1,.95,0,1.28,1.28,0,0,1,.76.54C440.19,88.85,440.81,89.89,441.29,90.79ZM446,88.72a1,1,0,0,1,.17.53.88.88,0,0,1-.07.32,1.06,1.06,0,0,1-.59.69l-1.24.62a1.23,1.23,0,0,1-.92.05,1.15,1.15,0,0,1-.69-.57,22.4,22.4,0,0,0-1.9-3.08.9.9,0,0,1-.14-.8.82.82,0,0,1,.54-.6l1.21-.59a1.25,1.25,0,0,1,.59-.13,1.23,1.23,0,0,1,.36.06,1.38,1.38,0,0,1,.78.52C444.86,86.88,445.49,87.87,446,88.72Z"/><path class="cls-1" d="M473.31,94.29a3.23,3.23,0,0,1,.66-.07,2.63,2.63,0,0,1,1.47.4l1.6,1a1.24,1.24,0,0,1,.56.72,2.56,2.56,0,0,1,0,.39,1.15,1.15,0,0,1-.13.53,5.49,5.49,0,0,0-.19.59,27,27,0,0,1-5,9.13,24.72,24.72,0,0,1-10.87,7.07,2,2,0,0,1-.59.1,1.69,1.69,0,0,1-1.28-.62L457,110.69a.71.71,0,0,1,.36-1.15,21.77,21.77,0,0,0,10.41-5.46,13.24,13.24,0,0,0,3.05-4.72c0-.08,0-.13-.1-.13H455.67c-1,0-2.06,0-3.11.07a1,1,0,0,1-.8-.28,1,1,0,0,1-.35-.8V95.34a1.05,1.05,0,0,1,.35-.81,1,1,0,0,1,.8-.27c1.29.08,2.32.13,3.11.13h15.94A14.28,14.28,0,0,0,473.31,94.29Zm-17.58-3.14a1.24,1.24,0,0,1-.83-.31,1,1,0,0,1-.34-.77V87.15a1,1,0,0,1,.34-.77,1.08,1.08,0,0,1,.83-.27c.83,0,1.69.06,2.59.06H471q1.38,0,2.82-.06a.07.07,0,0,1,.06,0,1,1,0,0,1,.72.3,1,1,0,0,1,.36.78v2.92a1,1,0,0,1-.36.78,1,1,0,0,1-.75.3h-.07c-1-.05-2-.07-2.84-.07H458.32C457.38,91.08,456.52,91.1,455.73,91.15Z"/><path class="cls-1" d="M483,96.48a1.06,1.06,0,0,1-.1-.46,1.32,1.32,0,0,1,.06-.39,1.12,1.12,0,0,1,.62-.59l2.69-1a1.23,1.23,0,0,1,.46-.1,1.58,1.58,0,0,1,.49.1,1.2,1.2,0,0,1,.65.66c.74,1.63,1.5,3.49,2.26,5.56a1.09,1.09,0,0,1,.07.4,1.38,1.38,0,0,1-.1.49,1.09,1.09,0,0,1-.66.62l-2.78,1a.81.81,0,0,1-.39.1.92.92,0,0,1-.49-.13,1.08,1.08,0,0,1-.59-.65Q484,98.74,483,96.48Zm18.82-2.55a.89.89,0,0,1,.42-.69,1,1,0,0,1,.49-.13l.3,0,3.53,1.15a1.07,1.07,0,0,1,.66.56,1.08,1.08,0,0,1,.13.52,1,1,0,0,1-.07.36c-.15.48-.33,1.09-.55,1.83a26.72,26.72,0,0,1-4.52,9.5,24.19,24.19,0,0,1-4.71,4.77,27.05,27.05,0,0,1-5.57,3.34,1.68,1.68,0,0,1-.65.13,1.84,1.84,0,0,1-.33,0,1.52,1.52,0,0,1-.88-.49l-2.66-2.68a.74.74,0,0,1,.3-1.18,24.18,24.18,0,0,0,5.56-2.64,17.17,17.17,0,0,0,4.55-4,16.78,16.78,0,0,0,2.57-4.65A24.1,24.1,0,0,0,501.8,93.93Zm-11,.59a1.09,1.09,0,0,1,0-.85,1,1,0,0,1,.64-.56l2.62-.85a.81.81,0,0,1,.39-.1,1.29,1.29,0,0,1,.53.13,1.09,1.09,0,0,1,.62.66q1,2.49,2,5.23a1.17,1.17,0,0,1-.05.9,1.06,1.06,0,0,1-.68.58l-2.65.91a1.1,1.1,0,0,1-1.44-.72C492.13,97.93,491.46,96.16,490.77,94.52Z"/><path class="cls-1" d="M539.48,87.87a1,1,0,0,1,.07.85,1.11,1.11,0,0,1-.59.63l-1.38.55a.11.11,0,0,0,0,.08.14.14,0,0,0,0,.09l2.3,1.4a1.19,1.19,0,0,1,.54.74,1.27,1.27,0,0,1-.12.9,15.48,15.48,0,0,0-.75,1.74,33.33,33.33,0,0,1-5.8,11,30.11,30.11,0,0,1-5.36,5.16,37.17,37.17,0,0,1-7.17,4.07,2,2,0,0,1-.76.17,1.78,1.78,0,0,1-1.17-.49L516.21,112a.61.61,0,0,1-.21-.64.59.59,0,0,1,.44-.48,29.92,29.92,0,0,0,7.31-3.42,27.51,27.51,0,0,0,5.16-4.5,19.39,19.39,0,0,0,2.73-4.06,18.31,18.31,0,0,0,1.66-4.16c0-.1,0-.16-.14-.16h-8a.28.28,0,0,0-.23.13,40.79,40.79,0,0,1-7.39,7.2,1.55,1.55,0,0,1-1,.33,1.5,1.5,0,0,1-.95-.33l-2.69-2a.73.73,0,0,1-.33-.63.75.75,0,0,1,.4-.68,32.24,32.24,0,0,0,3.4-2.59,23.82,23.82,0,0,0,2.7-2.72c.78-.91,1.39-1.69,1.85-2.34s1-1.39,1.48-2.24a14.33,14.33,0,0,0,1.4-2.88,1.18,1.18,0,0,1,.59-.67,1.2,1.2,0,0,1,.89-.08L529,86.3a.85.85,0,0,1,.54.54.84.84,0,0,1-.08.77c-.4.61-.86,1.35-1.38,2.23,0,.08,0,.13.1.13h5.24a12.25,12.25,0,0,0,2.94-.33c.09,0,.11-.08.07-.16-.57-1.16-1.08-2.13-1.54-2.92a1,1,0,0,1-.1-.82.88.88,0,0,1,.56-.58l1-.43a1.54,1.54,0,0,1,.95,0,1.25,1.25,0,0,1,.75.58Q538.7,86.37,539.48,87.87ZM539,84.93a.92.92,0,0,1-.16-.49.6.6,0,0,1,.07-.3.88.88,0,0,1,.52-.59l1-.42a1.47,1.47,0,0,1,.95,0,1.41,1.41,0,0,1,.76.59c.5.79,1,1.64,1.47,2.56a.92.92,0,0,1,.13.49,1.23,1.23,0,0,1-.06.36,1.12,1.12,0,0,1-.59.62l-1,.42a1.06,1.06,0,0,1-.46.1,1.88,1.88,0,0,1-.46-.06,1.21,1.21,0,0,1-.68-.62C540,86.58,539.5,85.71,539,84.93Z"/><path class="cls-1" d="M568.89,87.05l.55,0a2.55,2.55,0,0,1,1.51.46l1.44,1.08a1.06,1.06,0,0,1,.47.75,1.38,1.38,0,0,1-.14.92c-.33.57-.59,1-.79,1.44a48.35,48.35,0,0,1-5,8.74.18.18,0,0,0,0,.23c1.35,1.16,2.8,2.52,4.33,4.09s2.86,3,3.95,4.26a1.25,1.25,0,0,1-.13,1.67l-2.92,2.52a1.09,1.09,0,0,1-.81.24,1.06,1.06,0,0,1-.76-.44,65.94,65.94,0,0,0-7.2-8.12.17.17,0,0,0-.23,0,44.14,44.14,0,0,1-11.16,8.51,1.34,1.34,0,0,1-.69.2l-.26,0a1.67,1.67,0,0,1-.88-.46l-2.62-2.72a.73.73,0,0,1-.23-.52.69.69,0,0,1,0-.2.78.78,0,0,1,.46-.55,33.79,33.79,0,0,0,7-4,35.38,35.38,0,0,0,5.67-5,28.13,28.13,0,0,0,2.84-3.81,18.61,18.61,0,0,0,1.8-3.62c.05-.09,0-.13-.09-.13H554.78c-.75,0-1.79.06-3.15.16a1,1,0,0,1-.8-.27,1,1,0,0,1-.34-.77V88.2a1,1,0,0,1,.34-.79,1.11,1.11,0,0,1,.8-.26c1.18.09,2.23.13,3.15.13H566A17,17,0,0,0,568.89,87.05Z"/><path class="cls-1" d="M599.27,98.81a1.08,1.08,0,0,1,.62.65,1.09,1.09,0,0,1,.1.46,1.13,1.13,0,0,1-.1.46l-1.44,3.5a1.12,1.12,0,0,1-.62.59,1.05,1.05,0,0,1-.85,0,110.22,110.22,0,0,0-10.35-4.23c-.11,0-.16,0-.16.1v8.48c0,.74.09,2,.26,3.9a1,1,0,0,1-.28.8,1,1,0,0,1-.77.34h-4a1,1,0,0,1-.76-.33,1,1,0,0,1-.26-.68l.26-4V89.64a26.11,26.11,0,0,0-.19-3.21.94.94,0,0,1,.23-.8.89.89,0,0,1,.72-.34h4a1,1,0,0,1,.77.34,1,1,0,0,1,.28.8,28.92,28.92,0,0,0-.23,3.21v4.45c0,.09,0,.14.16.17q3,.88,6.63,2.19T599.27,98.81Z"/><path class="cls-1" d="M629.72,86.63h.33a2.43,2.43,0,0,1,1.67.62l1.5,1.41a1.16,1.16,0,0,1,.4.91,1.28,1.28,0,0,1-.27.79q-.55.72-.78,1.08A40.8,40.8,0,0,1,629.36,96a29,29,0,0,1-3.8,4,1.25,1.25,0,0,1-.88.33,1.71,1.71,0,0,1-.92-.33L621.37,98a.89.89,0,0,1-.31-.72.87.87,0,0,1,.38-.69,19.73,19.73,0,0,0,2.68-2.42,13.14,13.14,0,0,0,1.8-2.32c.07-.09.05-.13-.06-.13h-16.4c-.92,0-2,.05-3.11.16a.91.91,0,0,1-.8-.26,1.05,1.05,0,0,1-.35-.79V87.58a1,1,0,0,1,1-1h.17a22.25,22.25,0,0,0,3.11.23h17.38A26.32,26.32,0,0,0,629.72,86.63Zm-15.19,8.51a.94.94,0,0,1,.25-.8,1,1,0,0,1,.77-.35h3.56a1.09,1.09,0,0,1,.82.35,1.11,1.11,0,0,1,.33.8c0,1,0,1.76,0,2.39s0,1.39-.09,2.27a22.33,22.33,0,0,1-.25,2.28c-.11.63-.26,1.35-.46,2.14a12.54,12.54,0,0,1-.7,2.12,18.67,18.67,0,0,1-1,2,11.44,11.44,0,0,1-1.44,2,21.89,21.89,0,0,1-1.88,1.78A21.31,21.31,0,0,1,612,113.8a1.64,1.64,0,0,1-.82.23H611a2,2,0,0,1-.95-.39l-2.91-2.39a.58.58,0,0,1-.23-.61.69.69,0,0,1,.39-.54,12.34,12.34,0,0,0,2.75-1.64A10.4,10.4,0,0,0,613.7,104a19.24,19.24,0,0,0,.93-6.7A21.5,21.5,0,0,0,614.53,95.14Z"/><path class="cls-1" d="M638.11,97.92a1.06,1.06,0,0,1-.53-.69,1.5,1.5,0,0,1,0-.29,1,1,0,0,1,.17-.56l1.66-2.55a1.2,1.2,0,0,1,.76-.52.74.74,0,0,1,.32-.07,1.27,1.27,0,0,1,.59.16Q643.87,95,646.91,97a1.08,1.08,0,0,1,.49.72.78.78,0,0,1,0,.26,1.09,1.09,0,0,1-.2.62l-1.7,2.62a1.14,1.14,0,0,1-.75.49.85.85,0,0,1-.23,0,1.13,1.13,0,0,1-.63-.19Q640.6,99.35,638.11,97.92ZM642.59,114a1.59,1.59,0,0,1-.36,0,1.26,1.26,0,0,1-.62-.17,1.45,1.45,0,0,1-.75-.65l-1.9-3.34a.84.84,0,0,1,0-.77.82.82,0,0,1,.61-.47,35.38,35.38,0,0,0,10.34-3.47,36.22,36.22,0,0,0,7.29-5.27,32.11,32.11,0,0,0,5.38-6.45.62.62,0,0,1,.56-.33.64.64,0,0,1,.59.33l2,3.53a1.79,1.79,0,0,1,.26.92,1.85,1.85,0,0,1-.36,1,41.41,41.41,0,0,1-12.9,11.16,39.88,39.88,0,0,1-5,2.29A37.51,37.51,0,0,1,642.59,114Zm.72-23.79a1,1,0,0,1-.5-.69,1,1,0,0,1,.14-.85l1.67-2.55a1.28,1.28,0,0,1,.75-.53l.3,0a1.22,1.22,0,0,1,.62.16q2.82,1.64,5.86,3.6a1.17,1.17,0,0,1,.3,1.64l-1.71,2.55A1.07,1.07,0,0,1,650,94a1.15,1.15,0,0,1-.9-.16C647,92.41,645,91.2,643.31,90.2Z"/><path class="cls-1" d="M691.37,95.57v16.85l0,1.41a1.13,1.13,0,0,1-1.15,1.15h-2.78a1.09,1.09,0,0,1-.8-.35,1,1,0,0,1-.31-.8c0-.11-.06-.16-.17-.16H674.09l-1.8,0a1,1,0,0,1-.8-.29,1.05,1.05,0,0,1-.35-.79V110a1,1,0,0,1,.35-.77,1.18,1.18,0,0,1,.8-.31c.61,0,1.22.07,1.83.07H686.2a.15.15,0,0,0,.17-.17v-3.27c0-.11-.06-.16-.17-.16h-9.72q-2,0-2.91,0a1.09,1.09,0,0,1-.8-.33,1,1,0,0,1-.35-.78v-2.46a1.07,1.07,0,0,1,.35-.79,1.13,1.13,0,0,1,.8-.32q1.36.06,2.91.06h9.72c.11,0,.17,0,.17-.16V97.76c0-.09-.06-.13-.17-.13H676c-1,0-2.16,0-3.4.06a1.12,1.12,0,0,1-.8-.31,1,1,0,0,1-.35-.8V94.06a1,1,0,0,1,.33-.79,1.12,1.12,0,0,1,.75-.29h.07c1.13,0,2.27.07,3.4.07h14.24a.94.94,0,0,1,.79.29,1.1,1.1,0,0,1,.32.82Z"/><path class="cls-1" d="M698,102.37a1,1,0,0,1-.8-.29,1.05,1.05,0,0,1-.35-.79V97.2a1,1,0,0,1,.36-.78,1,1,0,0,1,.72-.3h.1c1.88.11,3.42.17,4.62.17h17.81c.74,0,1.72-.06,2.94-.17a1.07,1.07,0,0,1,.84.3,1,1,0,0,1,.34.78v4.09a1,1,0,0,1-.36.79,1,1,0,0,1-.72.29h-.1c-1.35-.08-2.33-.13-2.94-.13H702.61C701.19,102.24,699.64,102.29,698,102.37Z"/><path class="cls-2" d="M175.52,108.19a26.81,26.81,0,0,1-11,6.52A18,18,0,0,0,162,111a26.32,26.32,0,0,0,10.53-4.9H168c-.1.3-.2.7-.37,1.26l-4.53-.07a36.07,36.07,0,0,0,1.72-6.12,37,37,0,0,0,.56-3.77c.57.06,1.56.1,3.11.1h6.82l0-1.69H168.1a25.18,25.18,0,0,0-3,.13V92.7c-.34.3-.47.4-.9.76a14.44,14.44,0,0,0-2.45-3.24c2.72-2,4.34-4.07,5-6.39l4.24.66-.83,1.59h3.84a18.3,18.3,0,0,0,3.21-.17v2.55a11,11,0,0,0,2.49-4.63l4.23.66c-.46,1.06-.46,1.06-.73,1.62H189a21,21,0,0,0,3.68-.2v4a24.23,24.23,0,0,0-3.48-.17h-2.12c.53.8.8,1.23,1.13,1.79l-2.95.79h1.89c1.75,0,2.21,0,3.11-.1a15.07,15.07,0,0,0-.13,2.45v3.91a16.3,16.3,0,0,0,.13,2.48c-.8-.07-1.76-.1-3.11-.1h-7.58l0,1.66h9.3c1.23,0,2.09,0,2.88-.1-.1.69-.26,2.55-.4,4-.46,5.6-1.15,6.29-6.12,6.29-.73,0-1.22,0-2.35-.06a17.22,17.22,0,0,0-1-3.88,29,29,0,0,0,3.44.27c1.62,0,1.76-.2,2-3.05h-7.72l.1,5.26A22.29,22.29,0,0,0,180,115h-4.56a15.15,15.15,0,0,0,.19-2.91,6,6,0,0,0,0-.83ZM170.59,92.3a14.36,14.36,0,0,0-1.23-2.61h-1.45a19.3,19.3,0,0,1-2.26,2.55c.83.06,1.26.06,2.45.06Zm4.8,8.64h-6.16c0,.13-.17.7-.36,1.66h6.55Zm2.18-8.64a12.14,12.14,0,0,0-2.22-2.08c.27-.24.37-.3.63-.5-.43,0-.63,0-.86,0h-1.69c.3.46.33.56,1.1,1.82l-2.82.79Zm6.62,0a15.29,15.29,0,0,0-1.39-2.58h-1.52A16.86,16.86,0,0,1,179,92.3Zm-4.67,5.17H186V95.78h-6.49Z"/><path class="cls-2" d="M201.8,112.76a38.09,38.09,0,0,0-4.6.13,15.73,15.73,0,0,1,.8-4.07,16.22,16.22,0,0,1,4.6-6.89,45.12,45.12,0,0,1,5.66-4.2c3-2,3.77-3,3.77-4.7S210.37,90,208,90a4.41,4.41,0,0,0-3.84,1.79,6.31,6.31,0,0,0-.89,3L197.4,94a10.78,10.78,0,0,1,2.35-5.59c1.79-2.05,4.57-3.15,8.14-3.15,6.09,0,10,3,10,7.58a7.9,7.9,0,0,1-2.92,6,41.42,41.42,0,0,1-5,3.64,29.28,29.28,0,0,0-3.64,3.05,7.07,7.07,0,0,0-1.56,2.45h8.38a32.74,32.74,0,0,0,5.06-.27V113a49.73,49.73,0,0,0-5.33-.23Z"/><path class="cls-2" d="M227.82,112.76a38.09,38.09,0,0,0-4.6.13,15.77,15.77,0,0,1,.79-4.07,16.33,16.33,0,0,1,4.61-6.89,45.12,45.12,0,0,1,5.66-4.2c3-2,3.77-3,3.77-4.7S236.39,90,234,90a4.41,4.41,0,0,0-3.84,1.79,6.31,6.31,0,0,0-.89,3L223.42,94a10.78,10.78,0,0,1,2.35-5.59c1.79-2.05,4.57-3.15,8.14-3.15,6.09,0,10,3,10,7.58a7.9,7.9,0,0,1-2.92,6,41.42,41.42,0,0,1-5,3.64,29.28,29.28,0,0,0-3.64,3.05A6.93,6.93,0,0,0,230.8,108h8.37a32.8,32.8,0,0,0,5.07-.27V113a49.73,49.73,0,0,0-5.33-.23Z"/><path class="cls-2" d="M274.13,114.91v-1.72H254.34v1.72H249.8a38.16,38.16,0,0,0,.2-4.44V89.32c0-1.59-.07-2.68-.17-3.94a31.12,31.12,0,0,0,3.88.17h21a31,31,0,0,0,3.87-.17c-.1,1.2-.17,2.32-.17,3.94v21.19a38,38,0,0,0,.2,4.4Zm-19.79-5.59H274.1V89.46H254.34ZM268,92.6c1.43,0,2.22,0,3.08-.1-.06.8-.1,1.69-.1,2.65v8.27c0,1,0,1.82.1,2.65-.86-.06-1.79-.1-3.08-.1h-7.61c-1.49,0-2.18,0-3.08.1.07-.92.1-1.72.1-2.65V95.15c0-.93,0-1.69-.1-2.65.83.07,1.66.1,3.08.1Zm-6.55,9.67h5.49v-6h-5.49Z"/><path class="cls-2" d="M301,85.85a27.48,27.48,0,0,0-.26,4.56V105a8,8,0,0,1-2,5.89,9.71,9.71,0,0,1-7.08,2.48q-4.81,0-7.35-2.78a10.3,10.3,0,0,1-2-3.47l5.33-1.89a4.47,4.47,0,0,0,1.75,2.78,4.28,4.28,0,0,0,2.35.63,3.7,3.7,0,0,0,2.69-1,3.82,3.82,0,0,0,.76-2.68V90.45a28,28,0,0,0-.27-4.6Z"/><path class="cls-2" d="M325.61,112.76a23.35,23.35,0,0,0-.87-3.51L323.62,106h-10l-1.12,3.21a16.79,16.79,0,0,0-.9,3.51h-6.55a32.24,32.24,0,0,0,1.69-4L314,89.29A25.54,25.54,0,0,0,315,85.85h7.12a22.69,22.69,0,0,0,1.13,3.44l7.28,19.5c.63,1.68,1.22,3.14,1.62,4ZM319.09,92c-.1-.29-.24-.62-.5-1.52-.2.7-.23.86-.47,1.52L315,101.37h7.22Z"/><path class="cls-2" d="M336.17,112.76a31.59,31.59,0,0,0,.26-4.57V90.28a35.15,35.15,0,0,0-.26-4.53c1.49.06,2.58.1,4.53.1h7.05c3.34,0,5.79.82,7.45,2.48a8.26,8.26,0,0,1,2.15,6,8.72,8.72,0,0,1-2.35,6.39c-1.69,1.72-4.14,2.55-7.35,2.55h-5.79v4.89a32.36,32.36,0,0,0,.26,4.64Zm11.35-14.2c2.68,0,4.2-1.49,4.2-4.11a3.91,3.91,0,0,0-1-2.84,4.07,4.07,0,0,0-3.21-1.09h-5.66v8Z"/><path class="cls-2" d="M378.67,112.76a23.43,23.43,0,0,0-.86-3.51L376.68,106h-10l-1.13,3.21a16.1,16.1,0,0,0-.89,3.51h-6.56a30.74,30.74,0,0,0,1.69-4L367,89.29a27.11,27.11,0,0,0,1.06-3.44h7.11a22.69,22.69,0,0,0,1.13,3.44l7.28,19.5c.63,1.68,1.23,3.14,1.62,4ZM372.15,92c-.1-.29-.23-.62-.5-1.52-.2.7-.23.86-.46,1.52l-3.11,9.37h7.21Z"/><path class="cls-2" d="M405.15,101a39.52,39.52,0,0,1,2.25,3.77c-.1-1.16-.2-2.91-.2-4.14v-10a27.37,27.37,0,0,0-.29-4.76h5.92a31.84,31.84,0,0,0-.26,4.8v17.51a29.1,29.1,0,0,0,.26,4.6h-6.22a32,32,0,0,0-2.25-3.87l-7.62-11.33a38.53,38.53,0,0,1-2.12-3.7c0,.39,0,.39.14,1.55,0,.57.1,2,.1,2.62v9.66a33.89,33.89,0,0,0,.26,5.07h-5.89a32.68,32.68,0,0,0,.26-5.1V90.45a32,32,0,0,0-.26-4.6h6.16a17.68,17.68,0,0,0,2.15,3.8Z"/><path class="cls-1" d="M31,1v53.1A16.71,16.71,0,0,1,26.53,66a16.54,16.54,0,0,1-5.31,3.71A17.58,17.58,0,0,1,14,71.06,14.09,14.09,0,0,1,6.09,69a26.33,26.33,0,0,1-5-4.15l7.81-6.25a9.71,9.71,0,0,0,2.49,1.81,6.33,6.33,0,0,0,3,.73,7.34,7.34,0,0,0,2-.34,5.84,5.84,0,0,0,2.25-1.32A6.36,6.36,0,0,0,20.39,57a11.12,11.12,0,0,0,.68-4.24V1Z"/><path class="cls-1" d="M34.93,70.47,50.45,1h8.3l15.52,69.5h-10L61.38,55.54H47.81L44.89,70.47Zm24.6-24.3L54.65,21h-.2L49.57,46.17Z"/><path class="cls-1" d="M78.17,70.47V1H93.1a22.13,22.13,0,0,1,7.23,1.08A13.8,13.8,0,0,1,106,5.85a15,15,0,0,1,3.51,6.4,40,40,0,0,1,1,9.9,48.88,48.88,0,0,1-.54,7.91,16.51,16.51,0,0,1-2.29,6.05,14.54,14.54,0,0,1-5.47,5.32,18.38,18.38,0,0,1-9,1.91H88.13V70.47Zm10-60.13V34h4.78a10.23,10.23,0,0,0,4.68-.88A5.53,5.53,0,0,0,100,30.65,9,9,0,0,0,101,27c.1-1.44.15-3,.15-4.79s0-3.17-.1-4.63a10.15,10.15,0,0,0-.88-3.86,5.55,5.55,0,0,0-2.34-2.54,9.37,9.37,0,0,0-4.49-.88Z"/><path class="cls-1" d="M108.82,70.47,124.34,1h8.3l15.52,69.5h-10l-2.93-14.93H121.7l-2.92,14.93Zm24.6-24.3L128.54,21h-.2l-4.88,25.19Z"/><path class="cls-1" d="M151.67,70.47V1h9.57l15,41.88h.19V1h10v69.5h-9.37L161.82,28.69h-.19V70.47Z"/><path class="cls-1" d="M211.16,70.48V1.56h14.62q8.52,0,12.92,4.64t4.41,13.17V51.6q0,9.67-4.7,14.28t-13.5,4.6ZM221,10.85V61.18h4.55q4.16,0,5.9-2.08t1.74-6.53V19.37a10.52,10.52,0,0,0-1.64-6.3q-1.65-2.22-6-2.22Z"/><path class="cls-1" d="M250,70.48V1.56h15.87q17.43,0,17.43,20.23a25.45,25.45,0,0,1-1.89,10.35A14.7,14.7,0,0,1,274.76,39l10.65,31.46H275l-9.19-29.43h-5.91V70.48Zm9.87-59.63V32.34h5.62a9.82,9.82,0,0,0,4.16-.73,5.66,5.66,0,0,0,2.42-2.08,9.31,9.31,0,0,0,1.06-3.34,31.24,31.24,0,0,0,.29-4.6,31.33,31.33,0,0,0-.29-4.6A9.15,9.15,0,0,0,272,13.56c-1.22-1.81-3.55-2.71-7-2.71Z"/><path class="cls-1" d="M320.74,1.56V55a15.58,15.58,0,0,1-4.65,11.32A16.27,16.27,0,0,1,311,69.8a15.36,15.36,0,0,1-6.19,1.26,15,15,0,0,1-6.15-1.26,16.89,16.89,0,0,1-8.57-8.57A15.26,15.26,0,0,1,288.8,55V1.56h9.87V54q0,3.67,1.74,5.42a6.32,6.32,0,0,0,8.71,0c1.16-1.16,1.75-3,1.75-5.42V1.56Z"/><path class="cls-1" d="M327,17.82a17.58,17.58,0,0,1,1.45-7.36,15.59,15.59,0,0,1,3.87-5.32A16.31,16.31,0,0,1,337.63,2a17.11,17.11,0,0,1,11.91,0,17.62,17.62,0,0,1,5.37,3.1,16,16,0,0,1,3.77,5.32,17.58,17.58,0,0,1,1.46,7.36V21.3h-9.88V17.82q0-3.59-2-5.28a7.37,7.37,0,0,0-9.39,0q-2,1.7-2,5.28V54.21q0,3.59,2,5.28a7.37,7.37,0,0,0,9.39,0q2-1.7,2-5.28v-13h-7.84V32.53h17.72V54.21a17.44,17.44,0,0,1-1.46,7.46,15.34,15.34,0,0,1-3.77,5.13A16.73,16.73,0,0,1,349.54,70a17.11,17.11,0,0,1-11.91,0,15.53,15.53,0,0,1-5.28-3.19,14.93,14.93,0,0,1-3.87-5.13A17.45,17.45,0,0,1,327,54.21Z"/><path class="cls-1" d="M400.31,21.4h-9.88V19.17a10.54,10.54,0,0,0-1.59-5.85q-1.6-2.48-5.38-2.47a6.28,6.28,0,0,0-3.29.77,6.39,6.39,0,0,0-2,1.94,8.26,8.26,0,0,0-1.07,2.85,19,19,0,0,0-.29,3.34,31.62,31.62,0,0,0,.15,3.39,6.58,6.58,0,0,0,.72,2.42,5.49,5.49,0,0,0,1.7,1.84,15.53,15.53,0,0,0,3,1.55L390,32a18.69,18.69,0,0,1,5.32,2.95,12.85,12.85,0,0,1,3.2,3.92,18.41,18.41,0,0,1,1.45,5.28,51.86,51.86,0,0,1,.39,6.73,34.92,34.92,0,0,1-.88,8.08,17,17,0,0,1-2.8,6.34,13.9,13.9,0,0,1-5.33,4.26,18.79,18.79,0,0,1-8,1.55,17.53,17.53,0,0,1-6.68-1.26,15.72,15.72,0,0,1-5.32-3.49,16.87,16.87,0,0,1-3.54-5.17,15.77,15.77,0,0,1-1.3-6.44V51h9.87v3.1A8.07,8.07,0,0,0,377.9,59q1.59,2.18,5.37,2.17a8.73,8.73,0,0,0,3.92-.72,5.33,5.33,0,0,0,2.18-2.08,7.84,7.84,0,0,0,.92-3.25c.09-1.26.14-2.66.14-4.21a41.62,41.62,0,0,0-.19-4.45,7.65,7.65,0,0,0-.78-2.81,5.42,5.42,0,0,0-1.79-1.74,23.25,23.25,0,0,0-2.95-1.45l-7.07-2.91q-6.37-2.61-8.56-6.92a23.83,23.83,0,0,1-2.18-10.79A24.77,24.77,0,0,1,368,12.49a16.61,16.61,0,0,1,3.19-6,14.67,14.67,0,0,1,5.18-4,17.42,17.42,0,0,1,7.5-1.5,16.45,16.45,0,0,1,6.73,1.36,17.3,17.3,0,0,1,5.27,3.58,15,15,0,0,1,4.46,10.65Z"/><path class="cls-1" d="M414.15,70.48V10.85H402.73V1.56h32.71v9.29H424V70.48Z"/><path class="cls-1" d="M438.06,17.82a17.58,17.58,0,0,1,1.45-7.36,15.59,15.59,0,0,1,3.87-5.32A16.31,16.31,0,0,1,448.66,2a17.55,17.55,0,0,1,17.27,3.1,16.21,16.21,0,0,1,3.78,5.32,17.58,17.58,0,0,1,1.45,7.36V54.21a17.45,17.45,0,0,1-1.45,7.46,15.5,15.5,0,0,1-3.78,5.13A16.52,16.52,0,0,1,460.56,70a17.08,17.08,0,0,1-11.9,0,15.53,15.53,0,0,1-5.28-3.19,14.93,14.93,0,0,1-3.87-5.13,17.45,17.45,0,0,1-1.45-7.46Zm9.87,36.39q0,3.59,2,5.28a7.37,7.37,0,0,0,9.39,0q2-1.7,2-5.28V17.82q0-3.59-2-5.28a7.37,7.37,0,0,0-9.39,0q-2,1.7-2,5.28Z"/><path class="cls-1" d="M478.9,70.48V1.56h15.88q17.43,0,17.42,20.23a25.63,25.63,0,0,1-1.88,10.35A14.67,14.67,0,0,1,503.68,39l10.65,31.46H503.88l-9.2-29.43h-5.9V70.48Zm9.88-59.63V32.34h5.61a9.82,9.82,0,0,0,4.16-.73A5.6,5.6,0,0,0,501,29.53,9.31,9.31,0,0,0,502,26.19a32.67,32.67,0,0,0,.29-4.6A32.78,32.78,0,0,0,502,17a9.15,9.15,0,0,0-1.16-3.43q-1.85-2.72-7-2.71Z"/><path class="cls-1" d="M519.17,70.48V1.56H548.6v9.29H529.05V31.08h17v9.29h-17V60.6H548.6v9.88Z"/><path class="cls-1" d="M603,21.4h-9.87V19.17a10.54,10.54,0,0,0-1.6-5.85c-1.06-1.65-2.86-2.47-5.37-2.47a6.23,6.23,0,0,0-3.29.77,6.54,6.54,0,0,0-2,1.94,8.25,8.25,0,0,0-1.06,2.85,19,19,0,0,0-.29,3.34c0,1.36,0,2.49.14,3.39a6.41,6.41,0,0,0,.73,2.42A5.45,5.45,0,0,0,582,27.4,15.53,15.53,0,0,0,585.09,29l7.55,3A18.75,18.75,0,0,1,598,34.9a12.82,12.82,0,0,1,3.19,3.92,18.41,18.41,0,0,1,1.45,5.28,51.86,51.86,0,0,1,.39,6.73,35.49,35.49,0,0,1-.87,8.08,17,17,0,0,1-2.81,6.34A13.86,13.86,0,0,1,594,69.51a18.84,18.84,0,0,1-8,1.55,17.61,17.61,0,0,1-6.68-1.26A15.82,15.82,0,0,1,574,66.31a17,17,0,0,1-3.53-5.17,15.78,15.78,0,0,1-1.31-6.44V51H579v3.1a8.14,8.14,0,0,0,1.6,4.89q1.6,2.18,5.37,2.17a8.7,8.7,0,0,0,3.92-.72,5.21,5.21,0,0,0,2.18-2.08,7.69,7.69,0,0,0,.92-3.25c.1-1.26.15-2.66.15-4.21a41.26,41.26,0,0,0-.2-4.45,7.66,7.66,0,0,0-.77-2.81,5.42,5.42,0,0,0-1.79-1.74,24,24,0,0,0-3-1.45l-7.07-2.91Q574,35,571.78,30.64a23.83,23.83,0,0,1-2.18-10.79,25.1,25.1,0,0,1,1.07-7.36,16.76,16.76,0,0,1,3.19-6,14.76,14.76,0,0,1,5.18-4,17.45,17.45,0,0,1,7.5-1.5,16.41,16.41,0,0,1,6.73,1.36,17.47,17.47,0,0,1,5.28,3.58A15,15,0,0,1,603,16.56Z"/><path class="cls-1" d="M609.39,70.48V1.56h9.87V31.08h12.2V1.56h9.87V70.48h-9.87V39.79h-12.2V70.48Z"/><path class="cls-1" d="M649.08,17.82a17.58,17.58,0,0,1,1.45-7.36,15.59,15.59,0,0,1,3.87-5.32A16.37,16.37,0,0,1,659.67,2,17.56,17.56,0,0,1,677,5.14a16.21,16.21,0,0,1,3.78,5.32,17.58,17.58,0,0,1,1.45,7.36V54.21a17.45,17.45,0,0,1-1.45,7.46A15.5,15.5,0,0,1,677,66.8,16.52,16.52,0,0,1,671.58,70a17.11,17.11,0,0,1-11.91,0,15.59,15.59,0,0,1-5.27-3.19,14.93,14.93,0,0,1-3.87-5.13,17.45,17.45,0,0,1-1.45-7.46ZM659,54.21q0,3.59,2,5.28a7.37,7.37,0,0,0,9.39,0c1.32-1.13,2-2.89,2-5.28V17.82c0-2.39-.67-4.15-2-5.28a7.37,7.37,0,0,0-9.39,0q-2,1.7-2,5.28Z"/><path class="cls-1" d="M740,1.56,729.71,70.48h-9.29l-7.55-44.73h-.2l-7.45,44.73h-9.29L685.67,1.56h10.45l4.94,43.75h.19L709,1.56h7.56l8,44.81h.19l4.75-44.81Z"/><path class="cls-1" d="M754.81,70.48v-9.3l17.82-33.59a12.23,12.23,0,0,0,1.54-4.4,46.79,46.79,0,0,0,.2-4.7c0-.83,0-1.72,0-2.66a6.54,6.54,0,0,0-.53-2.47,4.17,4.17,0,0,0-4.26-2.51A4.9,4.9,0,0,0,766,12.11a4.85,4.85,0,0,0-1.3,3.67V21.4h-9.88V16A14.5,14.5,0,0,1,756,10.17a14.72,14.72,0,0,1,3.19-4.74,14.47,14.47,0,0,1,4.65-3.25A14.16,14.16,0,0,1,769.63,1a14.42,14.42,0,0,1,6.63,1.41,13.19,13.19,0,0,1,4.59,3.82,16.67,16.67,0,0,1,2.57,5.52,25.46,25.46,0,0,1,.82,6.58c0,1.68,0,3.08-.1,4.21a25.22,25.22,0,0,1-.38,3.24,14.6,14.6,0,0,1-1,3.1c-.45,1-1.07,2.29-1.84,3.78l-14.52,28h17.81v9.88Z"/><path class="cls-1" d="M788.4,15.78a15.16,15.16,0,0,1,1.21-6.19,14.47,14.47,0,0,1,3.25-4.65A14,14,0,0,1,797.55,2a15.69,15.69,0,0,1,11.13,0,14,14,0,0,1,4.7,3,14.6,14.6,0,0,1,3.24,4.65,15,15,0,0,1,1.21,6.19V56.25a15,15,0,0,1-1.21,6.19,14.6,14.6,0,0,1-3.24,4.65,14,14,0,0,1-4.7,3,15.69,15.69,0,0,1-11.13,0,14,14,0,0,1-4.69-3,14.47,14.47,0,0,1-3.25-4.65,15.12,15.12,0,0,1-1.21-6.19Zm9.88,40.47a4.89,4.89,0,0,0,1.35,3.53,5,5,0,0,0,7,0A4.9,4.9,0,0,0,808,56.25V15.78a4.92,4.92,0,0,0-1.36-3.53,5,5,0,0,0-7,0,4.91,4.91,0,0,0-1.35,3.53Z"/><path class="cls-1" d="M822.25,70.48v-9.3l17.81-33.59a12.28,12.28,0,0,0,1.55-4.4c.13-1.26.19-2.82.19-4.7,0-.83,0-1.72,0-2.66a6.54,6.54,0,0,0-.53-2.47,4.64,4.64,0,0,0-1.45-1.79,4.66,4.66,0,0,0-2.81-.72,4.87,4.87,0,0,0-3.53,1.26,4.85,4.85,0,0,0-1.31,3.67V21.4h-9.87V16a14.49,14.49,0,0,1,1.16-5.81,14.88,14.88,0,0,1,3.19-4.74,14.47,14.47,0,0,1,4.65-3.25A14.19,14.19,0,0,1,837.06,1a14.42,14.42,0,0,1,6.63,1.41,13.23,13.23,0,0,1,4.6,3.82,16.66,16.66,0,0,1,2.56,5.52,25.46,25.46,0,0,1,.82,6.58c0,1.68,0,3.08-.09,4.21a27.09,27.09,0,0,1-.39,3.24,14,14,0,0,1-1,3.1c-.45,1-1.06,2.29-1.84,3.78l-14.52,28h17.81v9.88Z"/><path class="cls-1" d="M855.84,70.48v-9.3l17.81-33.59a12.28,12.28,0,0,0,1.55-4.4c.12-1.26.19-2.82.19-4.7,0-.83,0-1.72,0-2.66a6.54,6.54,0,0,0-.53-2.47,4.73,4.73,0,0,0-1.45-1.79,4.68,4.68,0,0,0-2.81-.72A4.86,4.86,0,0,0,867,12.11a4.81,4.81,0,0,0-1.31,3.67V21.4h-9.87V16A14.49,14.49,0,0,1,857,10.17a14.88,14.88,0,0,1,3.19-4.74,14.47,14.47,0,0,1,4.65-3.25A14.16,14.16,0,0,1,870.65,1a14.42,14.42,0,0,1,6.63,1.41,13.23,13.23,0,0,1,4.6,3.82,16.66,16.66,0,0,1,2.56,5.52,25.46,25.46,0,0,1,.82,6.58c0,1.68,0,3.08-.09,4.21a27.09,27.09,0,0,1-.39,3.24,14,14,0,0,1-1,3.1c-.45,1-1.06,2.29-1.84,3.78l-14.52,28h17.81v9.88Z"/></svg>