<svg id="レイヤー_1" data-name="レイヤー 1" xmlns="http://www.w3.org/2000/svg" viewBox="0 0 84.85 68.11"><defs><style>.cls-1{fill:#fff;}</style></defs><path class="cls-1" d="M73.06,18.71c6.45-4.55,7.5-7.75,7.5-7.75a85.86,85.86,0,0,1-8.5,2.35c6.1-4.6,6.5-8.55,6.5-8.55a43,43,0,0,1-9.7,3.85s-3-4.9-11.56-4.9S42.45,11.16,42.45,18.56c0,1.25.25,3.9.25,3.9A42.88,42.88,0,0,1,11.4,6.31s-7,11.12,4.17,20.55c0,0-4.17-.27-6.53-2.09,0,0-.14,12.8,12.46,15.57a44,44,0,0,1-7,.27s3.24,10,14.29,10.5A28.1,28.1,0,0,1,18,56.54a42.21,42.21,0,0,1-11.72,1s8.57,6.56,22.82,6.72c15,.17,28.22-5.84,37-19.44A44.86,44.86,0,0,0,73.06,18.71Z"/></svg>