<svg xmlns="http://www.w3.org/2000/svg" xmlns:xlink="http://www.w3.org/1999/xlink" viewBox="0 0 160.52 47.89"><defs><style>.cls-1,.cls-13,.cls-15,.cls-17,.cls-18,.cls-20,.cls-22,.cls-23,.cls-24,.cls-25,.cls-26{fill:none;}.cls-2{clip-path:url(#clip-path);}.cls-3{fill:#00a1e9;}.cls-4{fill:#86ba4b;}.cls-5{fill:#7baa4e;}.cls-6{fill:#f0b439;}.cls-7{fill:#e9ac31;}.cls-8{fill:#fdce2c;}.cls-9{fill:#fbc519;}.cls-10{fill:#fac03e;}.cls-11{fill:#f4bb14;}.cls-12{fill:#a16731;}.cls-13,.cls-18,.cls-22,.cls-25{stroke:#a16731;}.cls-13,.cls-15,.cls-17,.cls-18,.cls-20,.cls-22,.cls-23,.cls-24,.cls-25,.cls-26{stroke-miterlimit:10;}.cls-13{stroke-width:0.88px;}.cls-14{fill:#ad6c31;}.cls-15,.cls-23{stroke:#ad6c31;}.cls-15{stroke-width:0.75px;}.cls-16{fill:#b87340;}.cls-17,.cls-24{stroke:#b87340;}.cls-17{stroke-width:0.7px;}.cls-18{stroke-width:0.46px;}.cls-19{fill:#8e552f;}.cls-20,.cls-26{stroke:#8e552f;}.cls-20{stroke-width:0.39px;}.cls-21{fill:#c58e5f;}.cls-22{stroke-width:0.69px;}.cls-23{stroke-width:0.6px;}.cls-24{stroke-width:0.56px;}.cls-25{stroke-width:0.36px;}.cls-26{stroke-width:0.31px;}.cls-27{fill:#fff;}</style><clipPath id="clip-path" transform="translate(0 0)"><rect class="cls-1" width="160.52" height="47.89"/></clipPath></defs><g id="Layer_2" data-name="Layer 2"><g id="Layer_1-2" data-name="Layer 1"><g class="cls-2"><path class="cls-3" d="M157.25,38.64H32.07a3.26,3.26,0,0,1-3.26-3.27V15.94a3.26,3.26,0,0,1,3.26-3.26H157.25a3.27,3.27,0,0,1,3.27,3.26V35.37a3.27,3.27,0,0,1-3.27,3.27" transform="translate(0 0)"/><path class="cls-4" d="M51.16,24.57h0A3.65,3.65,0,0,0,53,29.05c2.45,1.2,5,0,6.52-1.34.08-.07-.44-.05-.35-.11a5.8,5.8,0,0,0,2.19-2c0-.08-.56.13-.48.08a7.13,7.13,0,0,0,1.8-2c0-.08-.38.13-.32.06a6,6,0,0,0,1-1.64c0-.07-.4.07-.37,0a7.74,7.74,0,0,0,.8-1.67l-.37.06a14.06,14.06,0,0,0,.7-1.74l-.33.09c.15-.75.36-1.56.41-2.1-8.53.81-12.67,3.94-13,7.9" transform="translate(0 0)"/><path class="cls-5" d="M48,21a3.63,3.63,0,0,0,3.17,3.58c2.15-2.73,5.7-5.47,13-7.9v-.1A20.6,20.6,0,0,0,62,16l.24-.25a12.75,12.75,0,0,0-1.87-.16l.22-.3a8.16,8.16,0,0,0-1.85,0c-.08,0,.24-.31.17-.32a5.35,5.35,0,0,0-1.92.18c-.1,0,.28-.27.19-.26a6.92,6.92,0,0,0-2.63.68c-.09,0,.37-.4.28-.39a5.76,5.76,0,0,0-2.8,1c-.09.06.16-.4,0-.36C50.27,16.53,48,18.27,48,21" transform="translate(0 0)"/><path class="cls-4" d="M23,29.63h0a2.7,2.7,0,0,0-2.19-2.79,4.47,4.47,0,0,0-4.33,2.31c-.05.07.32,0,.27,0a4.19,4.19,0,0,0-1.13,1.9c0,.06.37-.22.32-.16a5.19,5.19,0,0,0-.84,1.82c0,.07.25-.16.22-.1A4,4,0,0,0,14.89,34s.27-.14.26-.09a5.76,5.76,0,0,0-.22,1.35l.25-.12a9.33,9.33,0,0,0-.13,1.38l.22-.14c.05.56.07,1.18.15,1.57,3.68-5.3,6.32-7.49,7.55-8.32" transform="translate(0 0)"/><path class="cls-5" d="M26,31.49a2.68,2.68,0,0,0-3-1.86c-1.23.83-3.87,3-7.55,8.32a.22.22,0,0,1,0,.08,15.83,15.83,0,0,0,1.66,0l-.12.23A9.39,9.39,0,0,0,18.33,38l-.09.26a5.32,5.32,0,0,0,1.32-.37c.05,0-.11.28-.06.27a4,4,0,0,0,1.32-.53c.07,0-.14.25-.07.23a5.21,5.21,0,0,0,1.71-1c.06-.05-.18.36-.12.34a4.33,4.33,0,0,0,1.77-1.33c.05-.06,0,.32,0,.26A4.46,4.46,0,0,0,26,31.49" transform="translate(0 0)"/><path class="cls-6" d="M50,23.69s1.92-4.3,9.66-2c0,0-5.84,5.33-9.66,2" transform="translate(0 0)"/><path class="cls-7" d="M50,23.65s1.13-2.46,5.67-1.17c0,0-3.44,3.06-5.67,1.17" transform="translate(0 0)"/><path class="cls-6" d="M46.91,20.84A5.5,5.5,0,0,1,48.59,18a7.52,7.52,0,0,1,.84-.68,58.92,58.92,0,0,1,8.23-1.57c-1.55,1.93-3.1,3.87-5.47,4.87a8.24,8.24,0,0,1-1.24.5,5.41,5.41,0,0,1-4-.3" transform="translate(0 0)"/><path class="cls-7" d="M46.88,20.8a3.59,3.59,0,0,1,1.8-2.22,5.55,5.55,0,0,1,1.12-.51c1.27-.75,2.43-.37,3.59-.37-.77.78-1.16,1.17-2.12,2.07a6.53,6.53,0,0,1-1,.68,3.56,3.56,0,0,1-3.44.35" transform="translate(0 0)"/><path class="cls-6" d="M42.48,17.83S39.13,13.34,46,6.63c0,0,2.15,9.17-3.53,11.2" transform="translate(0 0)"/><path class="cls-7" d="M42.44,17.82s-1.9-2.62,2.08-6.58c0,0,1.17,5.35-2.08,6.58" transform="translate(0 0)"/><path class="cls-6" d="M35.24,18.68s-5.19.85-7.8-7.79c0,0,8.56,2.18,7.8,7.79" transform="translate(0 0)"/><path class="cls-7" d="M35.21,18.71s-3,.45-4.58-4.58c0,0,5,1.34,4.58,4.58" transform="translate(0 0)"/><path class="cls-6" d="M32.88,24.45a5.2,5.2,0,0,1-2,1.19,6.77,6.77,0,0,1-1.14.29c-3.71.93-7-.56-9.47-2.74,3.79-.08,7.09-1.93,10.78-.68a5.58,5.58,0,0,1,.69.51,5.91,5.91,0,0,1,1.15,1.43" transform="translate(0 0)"/><path class="cls-7" d="M32.88,24.51a3.46,3.46,0,0,1-1.85.83,4.94,4.94,0,0,1-1.45,0c-1.26-.55-3.16-.51-4.28-1.16,1.89,0,3.42-1.4,5.58-1.21a3.91,3.91,0,0,1,.76.31,3.26,3.26,0,0,1,1.24,1.21" transform="translate(0 0)"/><path class="cls-6" d="M33.47,30.68s-.18,5.53-9.6,6.46c0,0,4-8.38,9.6-6.46" transform="translate(0 0)"/><path class="cls-7" d="M33.5,30.72s-.15,3.18-5.65,3.79c0,0,2.39-4.85,5.65-3.79" transform="translate(0 0)"/><path class="cls-6" d="M37.92,34.35s3.64,5.15-4.31,12.49c0,0-2.13-10.37,4.31-12.49" transform="translate(0 0)"/><path class="cls-7" d="M38,34.37s2.05,3-2.54,7.33c0,0-1.16-6.05,2.54-7.33" transform="translate(0 0)"/><path class="cls-6" d="M40.7,35s4.84,3.43.1,12.41c0,0-5.14-8.51-.1-12.41" transform="translate(0 0)"/><path class="cls-7" d="M40.76,35s2.75,2,.05,7.28c0,0-2.93-5-.05-7.28" transform="translate(0 0)"/><path class="cls-6" d="M45.6,33.2s5.67,0,6.88,9.68c0,0-8.7-3.86-6.88-9.68" transform="translate(0 0)"/><path class="cls-7" d="M45.64,33.18s3.26.06,4,5.68c0,0-5-2.31-4-5.68" transform="translate(0 0)"/><path class="cls-6" d="M48.42,29.07a5.65,5.65,0,0,1,3.26-.94,6.29,6.29,0,0,1,1.12.07c3,.61,4.9,3.33,7.61,4.49-2.33.39-5,.77-7.18.12l-.68-.17a5.89,5.89,0,0,1-4.13-3.57" transform="translate(0 0)"/><path class="cls-7" d="M48.43,29a3.73,3.73,0,0,1,2.93-.41,6.24,6.24,0,0,1,1.2.4c1.26.58,1.65,1.74,2.81,2.52a15.83,15.83,0,0,1-2.9-.19,7.19,7.19,0,0,1-1.2-.16A3.68,3.68,0,0,1,48.43,29" transform="translate(0 0)"/><path class="cls-8" d="M45.45,19.41s-.46-5.68,9.11-7.73c0,0-3.12,9.05-9.11,7.73" transform="translate(0 0)"/><path class="cls-9" d="M45.42,19.37s-.22-3.27,5.35-4.54c0,0-1.89,5.25-5.35,4.54" transform="translate(0 0)"/><path class="cls-8" d="M40.7,16.7a4.41,4.41,0,0,1-.8-1.29,6.63,6.63,0,0,1-.25-.72c-1-3.53.52-7,2.85-9.35.38,3.49,1.93,7.75-.66,10.55a5.62,5.62,0,0,1-.53.44,5.2,5.2,0,0,1-.61.37" transform="translate(0 0)"/><path class="cls-9" d="M40.65,16.69a1.92,1.92,0,0,1-.29-.42A3.51,3.51,0,0,1,40,15a9.08,9.08,0,0,1,1.37-5c.39,1.94,1.55,3.88.23,5.94a3,3,0,0,1-.91.76" transform="translate(0 0)"/><path class="cls-8" d="M37.49,18.26C32.23,18.63,31,13,30.62,8.8c0,0,.35.15.89.43.26.14.58.31.93.52s.72.45,1.1.72c2.31,1.33,4.32,4.14,4.13,6.94a4.45,4.45,0,0,1-.18.85" transform="translate(0 0)"/><path class="cls-9" d="M37.45,18.29c-3.21-.06-4-2.87-4.42-5.29,2,.81,4,1.61,4.5,4.1a2.71,2.71,0,0,1-.08,1.19" transform="translate(0 0)"/><path class="cls-8" d="M33.2,22.23s-4.58,3.33-11.26-3.71c0,0,9.28-2,11.26,3.71" transform="translate(0 0)"/><path class="cls-9" d="M33.18,22.28s-2.66,1.88-6.61-2.19c0,0,5.42-1.11,6.61,2.19" transform="translate(0 0)"/><path class="cls-8" d="M32.69,29a5.57,5.57,0,0,1-2.08,2.57,9,9,0,0,1-.94.56c-2.59,1.38-5.69.22-8.41.61a11.62,11.62,0,0,1,6.15-4.3,8.5,8.5,0,0,1,1.3-.32,5.4,5.4,0,0,1,4,.88" transform="translate(0 0)"/><path class="cls-9" d="M32.71,29A3.61,3.61,0,0,1,30.6,31a6.49,6.49,0,0,1-1.19.35c-1.17,1-2.33-.55-3.5-.16.39-.78,1.94-1.16,2.28-1.75a7.42,7.42,0,0,1,1-.54,3.58,3.58,0,0,1,3.47.15" transform="translate(0 0)"/><path class="cls-8" d="M34.84,32.07a6.47,6.47,0,0,1-1.39,4.53,11.14,11.14,0,0,1-.88,1,10.51,10.51,0,0,1-6.66,4c1.55-2.71,2.33-5.42,4.06-8,.18-.16.37-.31.57-.46a5.92,5.92,0,0,1,4.3-1.11" transform="translate(0 0)"/><path class="cls-9" d="M34.88,32.11s.32,2-2.07,3.86c-.19.15-.41.3-.65.46a25.71,25.71,0,0,1-2.37,1.3,7.21,7.21,0,0,1,1.64-4.06,3.89,3.89,0,0,1,3.45-1.56" transform="translate(0 0)"/><path class="cls-8" d="M39.83,35.07s4.31,4.29-2,12.57c0,0-3.74-9.49,2-12.57" transform="translate(0 0)"/><path class="cls-9" d="M39.89,35.08s2.44,2.51-1.2,7.38c0,0-2.1-5.55,1.2-7.38" transform="translate(0 0)"/><path class="cls-8" d="M44.31,33.69a6.17,6.17,0,0,1,3,3.45,10,10,0,0,1,.41,1.27c1.06,2.42.29,5.13-.1,7.46-1.55-2.33-3.88-4.65-4.52-7.39,0-.23-.06-.47-.08-.7a5.72,5.72,0,0,1,1.29-4.09" transform="translate(0 0)"/><path class="cls-9" d="M44.37,33.67a3.82,3.82,0,0,1,1.85,2.4,7,7,0,0,1,.25,1.27c0,1.16,0,2.33,0,3.49a7,7,0,0,1-2.08-2.39,6.46,6.46,0,0,1-.5-1.14,3.79,3.79,0,0,1,.49-3.63" transform="translate(0 0)"/><path class="cls-8" d="M48,30.09S53.21,28,58,36.3c0,0-9.41-.21-10-6.21" transform="translate(0 0)"/><path class="cls-9" d="M48.05,30.05s3-1.19,5.85,3.65c0,0-5.48-.19-5.85-3.65" transform="translate(0 0)"/><path class="cls-10" d="M48.53,22.42a5.44,5.44,0,0,1,3.87-2.79l.6-.13c2.06-.42,4.47-1.1,6.53-.42a28.65,28.65,0,0,1-6.48,4.18,5.35,5.35,0,0,1-1.16.21,4.71,4.71,0,0,1-3.36-1" transform="translate(0 0)"/><path class="cls-11" d="M48.52,22.37s.75-1.75,3.64-1.75c.23,0,.46,0,.72,0a7.56,7.56,0,0,1,1.83-.16c-.68.69-1.37,1.72-2.27,1.91a6.15,6.15,0,0,1-.95.4,3.08,3.08,0,0,1-3-.4" transform="translate(0 0)"/><path class="cls-10" d="M44.75,19.45A6.18,6.18,0,0,1,44,15a7.62,7.62,0,0,1,.3-1.11c1.26-2.58,4.74-3.06,5.11-6.35a12.79,12.79,0,0,1-.36,7.25,6.12,6.12,0,0,1-.35.93,7.35,7.35,0,0,1-.52.89,6.13,6.13,0,0,1-3.47,2.89" transform="translate(0 0)"/><path class="cls-11" d="M44.69,19.43a4.78,4.78,0,0,1,.11-4.13,8.62,8.62,0,0,1,.52-.94,8.77,8.77,0,0,1,2.54-2.08,17.79,17.79,0,0,0-.44,2.66c0,.32-.06.64-.11,1a7,7,0,0,1-.56,1.83,3.76,3.76,0,0,1-2.06,1.71" transform="translate(0 0)"/><path class="cls-10" d="M39.41,17.76c-4.19-1.35-5-6.77-3.58-10.3a8.42,8.42,0,0,1,.24-1c.09-.32.19-.63.31-.94.31.62.65,1.22,1,1.82l.53.9c1.18,2.71,3.89,5,2.14,8.51a6.24,6.24,0,0,1-.64,1" transform="translate(0 0)"/><path class="cls-11" d="M39.35,17.77c-3.36-1.36-3-4.85-2.58-7.17,1.16,1.94,3.48,3.49,3.18,6a3.15,3.15,0,0,1-.6,1.16" transform="translate(0 0)"/><path class="cls-10" d="M34.85,20.86a5.55,5.55,0,0,1-3.31,0,8.49,8.49,0,0,1-1-.36c-2.4-1.4-4.73-2.95-5.89-5.66,2.71,1.16,5.81.39,8.37,2.36a6.49,6.49,0,0,1,.9,1,5.28,5.28,0,0,1,1,2.65" transform="translate(0 0)"/><path class="cls-11" d="M34.82,20.9A3.6,3.6,0,0,1,32,20.51a6.17,6.17,0,0,1-1-.69,26.35,26.35,0,0,1-2.45-2.25c1.55,0,2.72-.38,4.24.55a5.14,5.14,0,0,1,1,.67,3.17,3.17,0,0,1,1.11,2.11" transform="translate(0 0)"/><path class="cls-10" d="M33.13,26.36a5.86,5.86,0,0,1-2.58,2.29,8.5,8.5,0,0,1-1.05.42,12.43,12.43,0,0,1-6.58,0l-.74-.18c-.5-.14-1-.3-1.57-.49,0,0,.22-.18.6-.46.19-.14.42-.31.69-.48,3.4-1.35,6.64-3.05,10-2a4.12,4.12,0,0,1,.63.39,5.69,5.69,0,0,1,.61.51" transform="translate(0 0)"/><path class="cls-11" d="M33.14,26.41a3.35,3.35,0,0,1-1.52,1.31,4.67,4.67,0,0,1-1,.35c-1.61.26-3.19.53-4.68-.35,2-.63,3.71-2.84,6.07-2a3.27,3.27,0,0,1,1.11.68" transform="translate(0 0)"/><path class="cls-10" d="M35.88,33.56a6.5,6.5,0,0,1-1,5.62,7,7,0,0,1-.4.6,14.32,14.32,0,0,1-5.16,4.92c1.55-2.71.77-5.81,2.34-8.69.13-.18.28-.36.43-.53a5.61,5.61,0,0,1,3.75-1.92" transform="translate(0 0)"/><path class="cls-11" d="M35.92,33.59s.71,1.81-1.11,4a6.47,6.47,0,0,1-.51.56c-.29.75-1.84,1.14-2.23,1.91.77-.77.39-1.94.51-3.18a8.51,8.51,0,0,1,.48-1.13,3.71,3.71,0,0,1,2.86-2.15" transform="translate(0 0)"/><path class="cls-10" d="M41.35,34.62a5.6,5.6,0,0,1,2,1.69,7.37,7.37,0,0,1,.6.87c1.77,3.35.22,7.22.6,10.71-1.93-2.32-3.87-4.65-4.38-7.47-.06-.24-.11-.49-.15-.74a6.19,6.19,0,0,1,1.29-5.06" transform="translate(0 0)"/><path class="cls-11" d="M41.41,34.6a3.67,3.67,0,0,1,1.51,1.52,4.72,4.72,0,0,1,.44,1A18.17,18.17,0,0,1,43,42.08c-1.55-.78-1.16-2.72-2.15-3.65a5.77,5.77,0,0,1-.25-1.29,3.61,3.61,0,0,1,.77-2.54" transform="translate(0 0)"/><path class="cls-10" d="M47.18,32a5.83,5.83,0,0,1,3.46.65,7.53,7.53,0,0,1,1,.58c2.18,1.75,4.51,4.47,4.89,7.57-2.71-1.94-5.81-2.71-8.14-4.64a4.67,4.67,0,0,1-.41-.58,5.68,5.68,0,0,1-.8-3.58" transform="translate(0 0)"/><path class="cls-11" d="M47.22,32a3.8,3.8,0,0,1,2.89,1,6.27,6.27,0,0,1,.93.93c.45,1.11,2,1.5,2,3.05a17.85,17.85,0,0,0-4.2-1.65,4.69,4.69,0,0,1-.89-.89A3.36,3.36,0,0,1,47.22,32" transform="translate(0 0)"/><path class="cls-10" d="M48.83,26.83A6.31,6.31,0,0,1,53,25.49a23.3,23.3,0,0,1,7.82,3.32c-1.94.78-3.88,1.55-6.18,1.14a12.51,12.51,0,0,1-1.36-.13,5.79,5.79,0,0,1-4.43-3" transform="translate(0 0)"/><path class="cls-11" d="M48.84,26.78A3.63,3.63,0,0,1,51.63,26a5.58,5.58,0,0,1,1.22.26c1.36-.2,1.75,1.35,2.91,1.74-.78.77-1.94.39-2.72.52a6.76,6.76,0,0,1-1.19,0,3.56,3.56,0,0,1-3-1.77" transform="translate(0 0)"/><path class="cls-8" d="M49.85,25.19s2.76-4.26,11.57-.76c0,0-7.48,4.79-11.57.76" transform="translate(0 0)"/><path class="cls-9" d="M49.85,25.14s1.62-2.42,6.79-.44c0,0-4.4,2.74-6.79.44" transform="translate(0 0)"/><path class="cls-12" d="M50.74,26.31c.4,0,.39.28,0,.26.4,0,.36.43,0,.39.4,0,.34.82-.06.76.4.06.31.37-.08.29.39.08.27.48-.12.38.39.1.25.77-.13.66.38.11.21.5-.16.36.37.14.18.56-.19.4.37.16.16,1-.2.78.36.18.12.56-.23.37.35.19.09.59-.25.38a.26.26,0,1,1-.28.43c.33.23,0,.55-.29.3.32.25,0,1-.31.77.3.25,0,.37-.33.09.29.28-.08,1-.35.67.27.28-.11.5-.37.19.26.31-.14.6-.38.29.24.31-.17.84-.4.52.23.32-.2.44-.41.1.21.34-.24.71-.43.36.19.35-.26.76-.44.41.18.35-.29.43-.45.06.16.37-.32.18-.46-.2.14.38-.34.6-.46.22.12.38-.38.45-.48.07.1.38-.4.58-.48.19.08.39-.43.27-.49-.13.06.4-.45.47-.49.07,0,.4-.47.87-.49.47,0,.4-.5.29-.5-.1,0,.39-.51.3-.49-.1,0,.4-.53.37-.49,0,0,.39-.56.77-.5.37-.06.4-.56-.15-.48-.54-.08.39-.58.09-.48-.29-.1.38-.6.55-.48.17-.12.38-.61-.13-.47-.5-.14.37-.61.08-.46-.29-.15.37-.62.79-.45.44-.17.35-.63-.39-.43-.74-.2.35-.64.15-.43-.19-.21.34-.64-.09-.41-.42-.23.33-.65.17-.4-.15-.25.32-.64,0-.38-.33-.26.3-.65.23-.37-.06-.28.29-.64,0-.35-.33-.29.28-.64-.37-.33-.63-.31.26-.63.09-.32-.15-.31.24-.62-.07-.29-.3-.33.23-.61-.18-.27-.4-.34.22-.6,0-.25-.22-.35.2-.59-1-.23-1.13a.26.26,0,1,1-.21-.48c-.36.15-.56.07-.18-.06a.28.28,0,1,1-.16-.54c-.38.12-.52,0-.14-.11-.38.1-.5-1-.11-1.08-.39.08-.48-.25-.09-.31-.39.06-.45-.11-.06-.15-.39,0-.43-1.1,0-1.12-.4,0-.42-.13,0-.13a.3.3,0,0,1,0-.6c-.4,0-.36-.19,0-.15-.39,0-.33-.91.06-.85-.39-.06-.3-.54.09-.46-.39-.08-.27-.83.11-.73-.38-.1-.24.15.14.27-.38-.12-.22-1.1.16-1a.26.26,0,1,1,.18-.47c-.36-.16-.15-.47.21-.29-.36-.18-.12-.39.23-.19-.35-.2-.09-1,.25-.79-.34-.21-.05-.3.27-.08-.32-.22,0-.59.3-.34-.32-.25,0-.71.31-.46-.3-.25,0-.7.33-.42-.29-.28.07-.92.35-.63-.28-.29.11-.35.37-.05-.26-.3.14-1.1.38-.78-.24-.32.17-.58.4-.25-.23-.33.2-.67.41-.34a.25.25,0,1,1,.43-.26c-.2-.34.26-.49.43-.13-.17-.36.3-.5.45-.13-.15-.37.32-.78.46-.41-.14-.37.35-.51.47-.13-.12-.38.38-.4.48,0-.1-.39.4-.06.48.33-.08-.39.42-.46.48-.07-.06-.39.45-1,.5-.59,0-.4.47-.47.49-.07,0-.4.49,0,.49.37,0-.4.52-.85.5-.46,0-.39.53-.18.49.22,0-.4.55-.42.49,0,.06-.4.57-.4.49,0,.08-.39.58-.07.48.32.1-.39.6-.33.48.05.12-.38.6,0,.46.37.14-.37.62-.39.46,0,.16-.36.63,0,.45.35.18-.36.63-.05.44.3.19-.35.64-.17.43.16.21-.33.64.26.41.59.23-.33.64-.29.4,0,.24-.32.64-.29.38,0,.26-.3.64.28.37.57.27-.29.64.08.35.35.29-.27.63.43.33.69.3-.26.63-.24.31,0,.32-.24.62.67.3.9.32-.23.61-.22.27,0,.34-.21.6.11.25.31.35-.2.59.5.23.67.36-.17.57.67.2.83.37-.16.56.08.19.22.37-.14.54.17.16.29.38-.12.52.38.13.48.39-.1.51.17.12.25.39-.08.48.95.08,1,.4-.06.46,0,.06.07.4,0,.44.25,0,.27.4,0,.41.87,0,.87" transform="translate(0 0)"/><path class="cls-13" d="M50.74,26.31c.4,0,.39.28,0,.26.4,0,.36.43,0,.39.4,0,.34.82-.06.76.4.06.31.37-.08.29.39.08.27.48-.12.38.39.1.25.77-.13.66.38.11.21.5-.16.36.37.14.18.56-.19.4.37.16.16,1-.2.78.36.18.12.56-.23.37.35.19.09.59-.25.38a.26.26,0,1,1-.28.43c.33.23,0,.55-.29.3.32.25,0,1-.31.77.3.25,0,.37-.33.09.29.28-.08,1-.35.67.27.28-.11.5-.37.19.26.31-.14.6-.38.29.24.31-.17.84-.4.52.23.32-.2.44-.41.1.21.34-.24.71-.43.36.19.35-.26.76-.44.41.18.35-.29.43-.45.06.16.37-.32.18-.46-.2.14.38-.34.6-.46.22.12.38-.38.45-.48.07.1.38-.4.58-.48.19.08.39-.43.27-.49-.13.06.4-.45.47-.49.07,0,.4-.47.87-.49.47,0,.4-.5.29-.5-.1,0,.39-.51.3-.49-.1,0,.4-.53.37-.49,0,0,.39-.56.77-.5.37-.06.4-.56-.15-.48-.54-.08.39-.58.09-.48-.29-.1.38-.6.55-.48.17-.12.38-.61-.13-.47-.5-.14.37-.61.08-.46-.29-.15.37-.62.79-.45.44-.17.35-.63-.39-.43-.74-.2.35-.64.15-.43-.19-.21.34-.64-.09-.41-.42-.23.33-.65.17-.4-.15-.25.32-.64,0-.38-.33-.26.3-.65.23-.37-.06-.28.29-.64,0-.35-.33-.29.28-.64-.37-.33-.63-.31.26-.63.09-.32-.15-.31.24-.62-.07-.29-.3-.33.23-.61-.18-.27-.4-.34.22-.6,0-.25-.22-.35.2-.59-1-.23-1.13a.26.26,0,1,1-.21-.48c-.36.15-.56.07-.18-.06a.28.28,0,1,1-.16-.54c-.38.12-.52,0-.14-.11-.38.1-.5-1-.11-1.08-.39.08-.48-.25-.09-.31-.39.06-.45-.11-.06-.15-.39,0-.43-1.1,0-1.12-.4,0-.42-.13,0-.13a.3.3,0,0,1,0-.6c-.4,0-.36-.19,0-.15-.39,0-.33-.91.06-.85-.39-.06-.3-.54.09-.46-.39-.08-.27-.83.11-.73-.38-.1-.24.15.14.27-.38-.12-.22-1.1.16-1a.26.26,0,1,1,.18-.47c-.36-.16-.15-.47.21-.29-.36-.18-.12-.39.23-.19-.35-.2-.09-1,.25-.79-.34-.21-.05-.3.27-.08-.32-.22,0-.59.3-.34-.32-.25,0-.71.31-.46-.3-.25,0-.7.33-.42-.29-.28.07-.92.35-.63-.28-.29.11-.35.37-.05-.26-.3.14-1.1.38-.78-.24-.32.17-.58.4-.25-.23-.33.2-.67.41-.34a.25.25,0,1,1,.43-.26c-.2-.34.26-.49.43-.13-.17-.36.3-.5.45-.13-.15-.37.32-.78.46-.41-.14-.37.35-.51.47-.13-.12-.38.38-.4.48,0-.1-.39.4-.06.48.33-.08-.39.42-.46.48-.07-.06-.39.45-1,.5-.59,0-.4.47-.47.49-.07,0-.4.49,0,.49.37,0-.4.52-.85.5-.46,0-.39.53-.18.49.22,0-.4.55-.42.49,0,.06-.4.57-.4.49,0,.08-.39.58-.07.48.32.1-.39.6-.33.48.05.12-.38.6,0,.46.37.14-.37.62-.39.46,0,.16-.36.63,0,.45.35.18-.36.63-.05.44.3.19-.35.64-.17.43.16.21-.33.64.26.41.59.23-.33.64-.29.4,0,.24-.32.64-.29.38,0,.26-.3.64.28.37.57.27-.29.64.08.35.35.29-.27.63.43.33.69.3-.26.63-.24.31,0,.32-.24.62.67.3.9.32-.23.61-.22.27,0,.34-.21.6.11.25.31.35-.2.59.5.23.67.36-.17.57.67.2.83.37-.16.56.08.19.22.37-.14.54.17.16.29.38-.12.52.38.13.48.39-.1.51.17.12.25.39-.08.48.95.08,1,.4-.06.46,0,.06.07.4,0,.44.25,0,.27C51.13,25.42,51.14,26.31,50.74,26.31Z" transform="translate(0 0)"/><path class="cls-14" d="M49.4,26.32c.34,0,.33.57,0,.56.34,0,.31.33,0,.29.35,0,.29.48-.05.43.34,0,.26.21-.07.14.33.07.23,1-.1,1,.33.08.21.61-.12.5.33.11.19.49-.13.37.32.12.15-.08-.16-.22.31.14.13.92-.18.77.31.15.1.67-.2.5.3.17.08.2-.22,0,.3.18.05.75-.23.56.28.19,0,.49-.25.28a.23.23,0,1,1-.27.37c.26.22,0,.83-.29.59.25.24-.06,0-.3-.25.24.25-.09.59-.32.33.23.26-.12,1-.33.69.21.27-.14.18-.34-.11.2.29-.17.42-.36.13.19.29-.2,1.05-.36.75.16.3-.23,0-.38-.3.15.3-.25.78-.39.46.14.32-.27.57-.39.25.12.32-.3.3-.41,0,.11.33-.32.33-.41,0,.09.33-.34.82-.41.49.07.33-.37-.16-.42-.5.05.34-.39.55-.42.21,0,.34-.41.5-.43.15,0,.35-.43.69-.43.35,0,.34-.44.35-.42,0,0,.34-.46.26-.43-.08,0,.34-.47-.11-.42-.45-.05.34-.49,0-.42-.29-.07.33-.5.73-.42.4-.08.33-.51.07-.41-.26-.1.33-.52.35-.4,0-.12.32-.53-.28-.4-.6-.13.32-.53.26-.38,0-.15.31-.55.39-.38.09-.17.3-.55-.2-.37-.5-.18.3-.55.46-.35.18-.2.28-.56-.15-.35-.43-.21.28-.55.1-.33-.16-.22.26-.55.08-.31-.17-.24.25-.55-.22-.31-.46-.24.24-.54-.35-.28-.58-.26.23-.54.22-.27,0-.27.21-.54-.56-.25-.76-.29.2-.53-.32-.24-.51-.29.19-.51,0-.21-.14-.3.16-.51-.07-.2-.22-.31.15-.5,0-.18-.16-.32.14-.48-.55-.16-.67-.32.12-.46-.11-.14-.22-.32.11-.45-.22-.11-.31-.34.09-.44-.68-.1-.75a.23.23,0,1,1-.07-.46c-.34.06-.4-.62-.06-.66-.34,0-.37.14,0,.12-.34,0-.35-.56,0-.56-.34,0-.33-.72,0-.7-.34,0-.31,0,0,0a.23.23,0,1,1,.06-.46c-.34-.05-.27-.8.07-.73a.23.23,0,1,1,.1-.45c-.34-.08-.21-.5.11-.4-.32-.1-.18-.18.14-.06a.24.24,0,1,1,.16-.46c-.32-.13-.13-.81.18-.66-.31-.15-.1-.7.2-.53-.3-.17-.08-.33.21-.15-.29-.18,0-.71.24-.51-.28-.2,0-.36.25-.15-.27-.21,0-.5.27-.27-.26-.23,0-.87.29-.63-.25-.24.06-.43.3-.18-.24-.25.09-.41.31-.14-.22-.27.12-.36.33-.09-.21-.27.15-.94.35-.65-.2-.29.17-.26.35,0-.18-.29.2-.54.37-.24-.17-.3.23-.57.38-.26-.15-.31.25-.73.38-.42-.13-.31.28-.54.4-.21-.12-.33.3-.47.4-.14-.1-.33.33.22.41.56-.08-.34.35-.79.42-.45-.07-.34.37-.21.42.13-.05-.34.39-.36.42,0,0-.34.41-.91.43-.57,0-.34.42.15.42.49,0-.34.45-.2.43.14,0-.34.46-.83.43-.49,0-.34.47-.31.42,0,.05-.34.49.15.42.48.07-.33.5-.67.41-.34.09-.33.52.18.41.51.11-.33.53-.6.41-.28.12-.32.53.43.39.75.14-.32.54-.58.39-.28.15-.3.54,0,.38.27.16-.3.55.27.37.56.18-.29.55,0,.35.24.2-.28.55-.58.34-.31.21-.27.56,0,.33.25.23-.26.56.57.32.82.24-.25.55,0,.3.27.25-.24.55.13.29.36.26-.23.54-.37.27-.16.27-.21.53.66.25.86a.23.23,0,1,1,.24.38c.29-.18.51-.23.21-.07a.24.24,0,1,1,.2.44c.31-.16.49.67.18.8.31-.13.48.15.16.27.32-.12.46.16.13.27.33-.11.45.58.12.66.33-.08.43.27.1.33.33-.06.41-.06.07,0,.34-.05.4.57.05.6.35,0,.38.11,0,.12.34,0,.35.73,0,.73" transform="translate(0 0)"/><path class="cls-15" d="M49.4,26.32c.34,0,.33.57,0,.56.34,0,.31.33,0,.29.35,0,.29.48-.05.43.34,0,.26.21-.07.14.33.07.23,1-.1,1,.33.08.21.61-.12.5.33.11.19.49-.13.37.32.12.15-.08-.16-.22.31.14.13.92-.18.77.31.15.1.67-.2.5.3.17.08.2-.22,0,.3.18.05.75-.23.56.28.19,0,.49-.25.28a.23.23,0,1,1-.27.37c.26.22,0,.83-.29.59.25.24-.06,0-.3-.25.24.25-.09.59-.32.33.23.26-.12,1-.33.69.21.27-.14.18-.34-.11.2.29-.17.42-.36.13.19.29-.2,1.05-.36.75.16.3-.23,0-.38-.3.15.3-.25.78-.39.46.14.32-.27.57-.39.25.12.32-.3.3-.41,0,.11.33-.32.33-.41,0,.09.33-.34.82-.41.49.07.33-.37-.16-.42-.5.05.34-.39.55-.42.21,0,.34-.41.5-.43.15,0,.35-.43.69-.43.35,0,.34-.44.35-.42,0,0,.34-.46.26-.43-.08,0,.34-.47-.11-.42-.45-.05.34-.49,0-.42-.29-.07.33-.5.73-.42.4-.08.33-.51.07-.41-.26-.1.33-.52.35-.4,0-.12.32-.53-.28-.4-.6-.13.32-.53.26-.38,0-.15.31-.55.39-.38.09-.17.3-.55-.2-.37-.5-.18.3-.55.46-.35.18-.2.28-.56-.15-.35-.43-.21.28-.55.1-.33-.16-.22.26-.55.08-.31-.17-.24.25-.55-.22-.31-.46-.24.24-.54-.35-.28-.58-.26.23-.54.22-.27,0-.27.21-.54-.56-.25-.76-.29.2-.53-.32-.24-.51-.29.19-.51,0-.21-.14-.3.16-.51-.07-.2-.22-.31.15-.5,0-.18-.16-.32.14-.48-.55-.16-.67-.32.12-.46-.11-.14-.22-.32.11-.45-.22-.11-.31-.34.09-.44-.68-.1-.75a.23.23,0,1,1-.07-.46c-.34.06-.4-.62-.06-.66-.34,0-.37.14,0,.12-.34,0-.35-.56,0-.56-.34,0-.33-.72,0-.7-.34,0-.31,0,0,0a.23.23,0,1,1,.06-.46c-.34-.05-.27-.8.07-.73a.23.23,0,1,1,.1-.45c-.34-.08-.21-.5.11-.4-.32-.1-.18-.18.14-.06a.24.24,0,1,1,.16-.46c-.32-.13-.13-.81.18-.66-.31-.15-.1-.7.2-.53-.3-.17-.08-.33.21-.15-.29-.18,0-.71.24-.51-.28-.2,0-.36.25-.15-.27-.21,0-.5.27-.27-.26-.23,0-.87.29-.63-.25-.24.06-.43.3-.18-.24-.25.09-.41.31-.14-.22-.27.12-.36.33-.09-.21-.27.15-.94.35-.65-.2-.29.17-.26.35,0-.18-.29.2-.54.37-.24-.17-.3.23-.57.38-.26-.15-.31.25-.73.38-.42-.13-.31.28-.54.4-.21-.12-.33.3-.47.4-.14-.1-.33.33.22.41.56-.08-.34.35-.79.42-.45-.07-.34.37-.21.42.13-.05-.34.39-.36.42,0,0-.34.41-.91.43-.57,0-.34.42.15.42.49,0-.34.45-.2.43.14,0-.34.46-.83.43-.49,0-.34.47-.31.42,0,.05-.34.49.15.42.48.07-.33.5-.67.41-.34.09-.33.52.18.41.51.11-.33.53-.6.41-.28.12-.32.53.43.39.75.14-.32.54-.58.39-.28.15-.3.54,0,.38.27.16-.3.55.27.37.56.18-.29.55,0,.35.24.2-.28.55-.58.34-.31.21-.27.56,0,.33.25.23-.26.56.57.32.82.24-.25.55,0,.3.27.25-.24.55.13.29.36.26-.23.54-.37.27-.16.27-.21.53.66.25.86a.23.23,0,1,1,.24.38c.29-.18.51-.23.21-.07a.24.24,0,1,1,.2.44c.31-.16.49.67.18.8.31-.13.48.15.16.27.32-.12.46.16.13.27.33-.11.45.58.12.66.33-.08.43.27.1.33.33-.06.41-.06.07,0,.34-.05.4.57.05.6.35,0,.38.11,0,.12C49.73,25.58,49.74,26.32,49.4,26.32Z" transform="translate(0 0)"/><path class="cls-16" d="M48.81,26.45c.32,0,.31.27,0,.25.32,0,.29.62,0,.58.32,0,.27,0-.05-.07.32.05.24.6-.07.54.31.06.22.33-.09.25.31.08.2,1-.11.88.31.09.17.33-.13.22.3.11.15.17-.14,0,.29.13.12.79-.17.65.29.14.1.34-.18.19.28.15.07.64-.21.47.28.17.05.68-.21.49.26.19,0,.33-.24.14.25.19,0,.27-.25.06.24.21,0,1-.27.78.24.22-.06.27-.28,0,.22.23-.08.73-.29.49.21.24-.11.55-.31.3.2.25-.13.12-.32-.14.19.26-.16.39-.33.12.17.27-.18.49-.34.21.16.28-.21.87-.35.59.14.28-.23.25-.36,0,.13.29-.26.59-.37.29.11.3-.28,0-.37-.25.09.3-.3.53-.38.22.08.31-.33.29-.39,0,.06.31-.34.69-.39.37,0,.32-.36.6-.39.28,0,.32-.38.22-.4-.1,0,.32-.4-.09-.4-.41,0,.32-.41.82-.39.5,0,.32-.43.23-.4-.09,0,.32-.44.18-.39-.14,0,.32-.46-.12-.39-.43-.07.31-.47.44-.39.13-.08.31-.48,0-.38-.26-.1.3-.49.49-.38.19-.11.3-.49.18-.36-.11-.13.29-.5-.19-.36-.48-.14.29-.51.12-.35-.16-.16.28-.52,0-.35-.3-.17.27-.51,0-.33-.26-.18.26-.51.17-.32-.08-.19.25-.51.24-.3,0-.21.24-.52-.21-.3-.44-.22.23-.51-.3-.28-.52-.23.22-.51,0-.26-.25-.25.21-.51-.11-.25-.31-.26.2-.5.08-.24-.1-.26.18-.49-.24-.22-.41-.27.17-.48.2-.2,0-.28.16-.47-.28-.18-.42-.29.14-.46-.33-.17-.46-.29.13-.45-.33-.15-.44-.3.11-.43-.26-.12-.36-.31.1-.42-.57-.11-.65a.21.21,0,1,1-.09-.41c-.32.07-.39,0-.07-.06-.32.05-.37-.28,0-.31-.32,0-.35-.25,0-.27a.24.24,0,1,1,0-.47c-.32,0-.31-.72,0-.71-.32,0-.29-.58,0-.55-.32,0-.27-.3,0-.25-.32-.05-.25-.23.07-.16-.32-.07-.22-.55.09-.47a.21.21,0,1,1,.11-.41.22.22,0,1,1,.12-.43c-.3-.11-.14-.29.15-.17-.29-.12-.12-.78.17-.64-.29-.14-.1-.62.18-.46-.28-.16-.07-.1.2.07-.27-.17,0-.46.22-.28-.26-.18,0-.82.24-.63-.26-.19,0-.31.25-.11-.25-.2,0-.43.26-.21-.23-.22.06-1,.28-.78-.22-.23.09-.24.3,0-.21-.24.11-.57.3-.32-.19-.25.14-.6.32-.34-.18-.26.17-.32.33-.05-.16-.27.19-.64.35-.36-.16-.28.21-.08.35.21-.14-.29.23-.68.36-.39-.13-.29.25-.3.37,0-.12-.3.27-.31.37,0-.1-.31.3-.37.38-.06-.08-.31.32-.59.39-.28-.07-.31.34-.7.39-.38,0-.32.36-.18.39.14,0-.32.38-.26.4.06,0-.32.39-.34.39,0,0-.32.42-.56.4-.24,0-.32.43.21.4.53,0-.32.44-.37.39-.06,0-.31.45-.14.39.18.06-.32.47-.55.39-.24.08-.31.47.14.38.44.09-.3.48-.72.37-.42.11-.3.5.21.37.51.13-.3.5,0,.36.27.14-.29.51-.61.35-.33.16-.28.51.18.34.45.17-.27.52-.29.33,0,.19-.26.52.58.32.84.2-.26.52-.57.31-.33.21-.24.52.39.29.62.23-.23.52-.21.29,0,.23-.22.5.34.26.55.24-.21.5-.13.25.06.25-.19.5.54.24.72.26-.18.49.25.22.42.27-.17.48-.39.2-.24.28-.15.47.41.18.55a.21.21,0,1,1,.17.38c.29-.13.44.5.14.61.3-.11.44-.15.13,0,.31-.1.42.81.11.89.31-.08.4,0,.09,0,.31-.06.39.35.07.39.32,0,.37.27.05.3.32,0,.35.77,0,.79.32,0,.33.31,0,.31" transform="translate(0 0)"/><path class="cls-17" d="M48.81,26.45c.32,0,.31.27,0,.25.32,0,.29.62,0,.58.32,0,.27,0-.05-.07.32.05.24.6-.07.54.31.06.22.33-.09.25.31.08.2,1-.11.88.31.09.17.33-.13.22.3.11.15.17-.14,0,.29.13.12.79-.17.65.29.14.1.34-.18.19.28.15.07.64-.21.47.28.17.05.68-.21.49.26.19,0,.33-.24.14.25.19,0,.27-.25.06.24.21,0,1-.27.78.24.22-.06.27-.28,0,.22.23-.08.73-.29.49.21.24-.11.55-.31.3.2.25-.13.12-.32-.14.19.26-.16.39-.33.12.17.27-.18.49-.34.21.16.28-.21.87-.35.59.14.28-.23.25-.36,0,.13.29-.26.59-.37.29.11.3-.28,0-.37-.25.09.3-.3.53-.38.22.08.31-.33.29-.39,0,.06.31-.34.69-.39.37,0,.32-.36.6-.39.28,0,.32-.38.22-.4-.1,0,.32-.4-.09-.4-.41,0,.32-.41.82-.39.5,0,.32-.43.23-.4-.09,0,.32-.44.18-.39-.14,0,.32-.46-.12-.39-.43-.07.31-.47.44-.39.13-.08.31-.48,0-.38-.26-.1.3-.49.49-.38.19-.11.3-.49.18-.36-.11-.13.29-.5-.19-.36-.48-.14.29-.51.12-.35-.16-.16.28-.52,0-.35-.3-.17.27-.51,0-.33-.26-.18.26-.51.17-.32-.08-.19.25-.51.24-.3,0-.21.24-.52-.21-.3-.44-.22.23-.51-.3-.28-.52-.23.22-.51,0-.26-.25-.25.21-.51-.11-.25-.31-.26.2-.5.08-.24-.1-.26.18-.49-.24-.22-.41-.27.17-.48.2-.2,0-.28.16-.47-.28-.18-.42-.29.14-.46-.33-.17-.46-.29.13-.45-.33-.15-.44-.3.11-.43-.26-.12-.36-.31.1-.42-.57-.11-.65a.21.21,0,1,1-.09-.41c-.32.07-.39,0-.07-.06-.32.05-.37-.28,0-.31-.32,0-.35-.25,0-.27a.24.24,0,1,1,0-.47c-.32,0-.31-.72,0-.71-.32,0-.29-.58,0-.55-.32,0-.27-.3,0-.25-.32-.05-.25-.23.07-.16-.32-.07-.22-.55.09-.47a.21.21,0,1,1,.11-.41.22.22,0,1,1,.12-.43c-.3-.11-.14-.29.15-.17-.29-.12-.12-.78.17-.64-.29-.14-.1-.62.18-.46-.28-.16-.07-.1.2.07-.27-.17,0-.46.22-.28-.26-.18,0-.82.24-.63-.26-.19,0-.31.25-.11-.25-.2,0-.43.26-.21-.23-.22.06-1,.28-.78-.22-.23.09-.24.3,0-.21-.24.11-.57.3-.32-.19-.25.14-.6.32-.34-.18-.26.17-.32.33-.05-.16-.27.19-.64.35-.36-.16-.28.21-.08.35.21-.14-.29.23-.68.36-.39-.13-.29.25-.3.37,0-.12-.3.27-.31.37,0-.1-.31.3-.37.38-.06-.08-.31.32-.59.39-.28-.07-.31.34-.7.39-.38,0-.32.36-.18.39.14,0-.32.38-.26.4.06,0-.32.39-.34.39,0,0-.32.42-.56.4-.24,0-.32.43.21.4.53,0-.32.44-.37.39-.06,0-.31.45-.14.39.18.06-.32.47-.55.39-.24.08-.31.47.14.38.44.09-.3.48-.72.37-.42.11-.3.5.21.37.51.13-.3.5,0,.36.27.14-.29.51-.61.35-.33.16-.28.51.18.34.45.17-.27.52-.29.33,0,.19-.26.52.58.32.84.2-.26.52-.57.31-.33.21-.24.52.39.29.62.23-.23.52-.21.29,0,.23-.22.5.34.26.55.24-.21.5-.13.25.06.25-.19.5.54.24.72.26-.18.49.25.22.42.27-.17.48-.39.2-.24.28-.15.47.41.18.55a.21.21,0,1,1,.17.38c.29-.13.44.5.14.61.3-.11.44-.15.13,0,.31-.1.42.81.11.89.31-.08.4,0,.09,0,.31-.06.39.35.07.39.32,0,.37.27.05.3.32,0,.35.77,0,.79C49.12,26.12,49.13,26.45,48.81,26.45Z" transform="translate(0 0)"/><path class="cls-12" d="M46.12,26.4c.2,0,.2.4,0,.39.21,0,.19-.08,0-.1.21,0,.17.56,0,.53.2,0,.16.07-.05,0,.21.05.15.36-.06.3.21.06.13.32-.07.25.2.07.11.28-.08.21.19.07.09.46-.1.38.19.08.08.23-.11.14.19.09.06.42-.12.32.18.1.05.25-.13.14.18.11,0,.47-.14.35.17.12,0,.14-.16,0,.17.13,0,.45-.16.31.16.14,0,.45-.18.31.15.14,0,.06-.18-.09.14.15-.06.52-.19.36.13.16-.08.28-.21.11.13.17-.09.5-.2.33.11.17-.11.08-.22-.1.11.18-.12.44-.23.25.11.19-.13.52-.23.33.1.19-.15.16-.23,0,.08.2-.17.1-.24-.1.07.2-.19.44-.25.24.06.2-.2.11-.25-.09,0,.2-.21.27-.25.07,0,.2-.23.45-.26.24,0,.21-.24,0-.26-.22,0,.21-.25.59-.26.38,0,.21-.26-.11-.26-.32,0,.21-.27.24-.26,0,0,.21-.28.49-.26.28,0,.21-.29.17-.25,0,0,.2-.3,0-.26-.23,0,.2-.31.32-.25.12-.06.2-.32,0-.25-.22-.07.2-.32.15-.25-.05-.07.2-.32-.05-.24-.24-.08.19-.33.31-.24.12-.09.19-.33-.13-.23-.31-.1.18-.33,0-.22-.18-.11.18-.34.13-.22,0-.12.17-.34-.16-.21-.32-.13.16-.34.18-.2,0-.14.16-.34.07-.19-.08-.15.15-.34-.37-.19-.51-.15.14-.33.3-.17.16-.16.14-.33,0-.17-.14-.16.13-.32-.35-.15-.47-.17.12-.32-.15-.14-.26a.14.14,0,1,1-.14-.24c-.18.1-.3.12-.12,0-.18.09-.3-.38-.1-.47-.2.09-.3.09-.1,0a.15.15,0,1,1-.09-.29c-.2.06-.27-.25-.07-.3a.14.14,0,1,1-.06-.28c-.2,0-.25-.21,0-.24-.21,0-.24-.24,0-.27-.21,0-.23-.49,0-.5-.21,0-.22,0,0,0-.21,0-.2-.24,0-.23a.16.16,0,0,1,0-.32c-.21,0-.18-.51,0-.48-.21,0-.16-.22,0-.18-.2,0-.14-.15.06-.1-.2-.05-.13-.27.07-.2-.2-.07-.11-.31.09-.24-.2-.07-.1-.51.1-.43-.2-.08-.08-.27.1-.18-.18-.09-.06-.46.12-.36-.18-.1,0-.38.14-.27-.18-.11,0-.27.14-.15-.17-.12,0-.1.15,0-.16-.12,0-.51.17-.37-.16-.14,0-.44.17-.3-.15-.14,0-.34.19-.18-.15-.16,0,0,.19.15-.14-.16.07-.62.2-.46-.13-.16.09-.05.21.12-.12-.17.11-.68.22-.5-.11-.18.12,0,.22.22-.1-.19.14-.35.23-.17-.09-.18.16-.49.24-.3-.08-.19.17-.22.24,0-.07-.2.18-.19.25,0-.07-.2.19-.19.25,0-.06-.21.21-.43.25-.22,0-.21.22-.32.26-.11,0-.21.23-.28.25-.07,0-.21.25,0,.26.25,0-.21.26-.21.26,0,0-.21.27-.18.26,0,0-.21.28-.59.26-.38,0-.21.29.11.26.32,0-.21.3-.43.26-.22,0-.21.3-.05.25.16,0-.21.31,0,.25.24.06-.2.32-.14.25.06.07-.2.32,0,.24.15.08-.19.33-.33.23-.14.1-.19.34-.11.23.07.11-.18.34.1.23.28a.13.13,0,1,1,.22.15c.12-.17.33-.1.2.06.13-.16.34-.07.21.09.13-.16.33.12.19.27.14-.15.34.15.18.3.16-.15.34.18.18.32.16-.14.33,0,.16.08.17-.13.33.26.16.38.17-.12.32-.09.14,0,.18-.11.31.19.13.29.18-.1.31.13.12.22.19-.09.3.06.11.14.19-.08.29,0,.1.12.19-.07.28.26.08.32.2-.06.28.39.07.45.21-.06.27.27.06.31.21,0,.25,0,.05.07.2,0,.24.09,0,.11a.14.14,0,1,1,0,.27c.21,0,.21.47,0,.47" transform="translate(0 0)"/><path class="cls-18" d="M46.12,26.4c.2,0,.2.4,0,.39.21,0,.19-.08,0-.1.21,0,.17.56,0,.53.2,0,.16.07-.05,0,.21.05.15.36-.06.3.21.06.13.32-.07.25.2.07.11.28-.08.21.19.07.09.46-.1.38.19.08.08.23-.11.14.19.09.06.42-.12.32.18.1.05.25-.13.14.18.11,0,.47-.14.35.17.12,0,.14-.16,0,.17.13,0,.45-.16.31.16.14,0,.45-.18.31.15.14,0,.06-.18-.09.14.15-.06.52-.19.36.13.16-.08.28-.21.11.13.17-.09.5-.2.33.11.17-.11.08-.22-.1.11.18-.12.44-.23.25.11.19-.13.52-.23.33.1.19-.15.16-.23,0,.08.2-.17.1-.24-.1.07.2-.19.44-.25.24.06.2-.2.11-.25-.09,0,.2-.21.27-.25.07,0,.2-.23.45-.26.24,0,.21-.24,0-.26-.22,0,.21-.25.59-.26.38,0,.21-.26-.11-.26-.32,0,.21-.27.24-.26,0,0,.21-.28.49-.26.28,0,.21-.29.17-.25,0,0,.2-.3,0-.26-.23,0,.2-.31.32-.25.12-.06.2-.32,0-.25-.22-.07.2-.32.15-.25-.05-.07.2-.32-.05-.24-.24-.08.19-.33.31-.24.12-.09.19-.33-.13-.23-.31-.1.18-.33,0-.22-.18-.11.18-.34.13-.22,0-.12.17-.34-.16-.21-.32-.13.16-.34.18-.2,0-.14.16-.34.07-.19-.08-.15.15-.34-.37-.19-.51-.15.14-.33.3-.17.16-.16.14-.33,0-.17-.14-.16.13-.32-.35-.15-.47-.17.12-.32-.15-.14-.26a.14.14,0,1,1-.14-.24c-.18.1-.3.12-.12,0-.18.09-.3-.38-.1-.47-.2.09-.3.09-.1,0a.15.15,0,1,1-.09-.29c-.2.06-.27-.25-.07-.3a.14.14,0,1,1-.06-.28c-.2,0-.25-.21,0-.24-.21,0-.24-.24,0-.27-.21,0-.23-.49,0-.5-.21,0-.22,0,0,0-.21,0-.2-.24,0-.23a.16.16,0,0,1,0-.32c-.21,0-.18-.51,0-.48-.21,0-.16-.22,0-.18-.2,0-.14-.15.06-.1-.2-.05-.13-.27.07-.2-.2-.07-.11-.31.09-.24-.2-.07-.1-.51.1-.43-.2-.08-.08-.27.1-.18-.18-.09-.06-.46.12-.36-.18-.1,0-.38.14-.27-.18-.11,0-.27.14-.15-.17-.12,0-.1.15,0-.16-.12,0-.51.17-.37-.16-.14,0-.44.17-.3-.15-.14,0-.34.19-.18-.15-.16,0,0,.19.15-.14-.16.07-.62.2-.46-.13-.16.09-.05.21.12-.12-.17.11-.68.22-.5-.11-.18.12,0,.22.22-.1-.19.14-.35.23-.17-.09-.18.16-.49.24-.3-.08-.19.17-.22.24,0-.07-.2.18-.19.25,0-.07-.2.19-.19.25,0-.06-.21.21-.43.25-.22,0-.21.22-.32.26-.11,0-.21.23-.28.25-.07,0-.21.25,0,.26.25,0-.21.26-.21.26,0,0-.21.27-.18.26,0,0-.21.28-.59.26-.38,0-.21.29.11.26.32,0-.21.3-.43.26-.22,0-.21.3-.05.25.16,0-.21.31,0,.25.24.06-.2.32-.14.25.06.07-.2.32,0,.24.15.08-.19.33-.33.23-.14.1-.19.34-.11.23.07.11-.18.34.1.23.28a.13.13,0,1,1,.22.15c.12-.17.33-.1.2.06.13-.16.34-.07.21.09.13-.16.33.12.19.27.14-.15.34.15.18.3.16-.15.34.18.18.32.16-.14.33,0,.16.08.17-.13.33.26.16.38.17-.12.32-.09.14,0,.18-.11.31.19.13.29.18-.1.31.13.12.22.19-.09.3.06.11.14.19-.08.29,0,.1.12.19-.07.28.26.08.32.2-.06.28.39.07.45.21-.06.27.27.06.31.21,0,.25,0,.05.07.2,0,.24.09,0,.11a.14.14,0,1,1,0,.27C46.32,25.92,46.32,26.4,46.12,26.4Z" transform="translate(0 0)"/><path class="cls-19" d="M45.36,26.52c.18,0,.17.09,0,.08.18,0,.16.14,0,.12.17,0,.15.48,0,.46.18,0,.13.22,0,.19.17,0,.12.23-.05.19.17,0,.11,0-.06,0,.17.05.09.58-.07.52.16.06.08,0-.09,0,.17.08.07.28-.09.2.16.08.06.18-.1.1.16.08,0,.35-.11.26.15.09,0,.32-.13.21.15.11,0,.19-.13.09.14.1,0,.47-.14.35.14.12,0,.25-.15.13.13.12,0,.39-.15.26.12.13,0,.11-.17,0,.12.14-.06.3-.17.16.11.14-.08.33-.18.18.1.15-.09.16-.18,0,.09.16-.11.5-.19.34.08.16-.12.2-.2,0,.08.16-.13.22-.2.06.07.16-.14.31-.21.14.07.17-.15.24-.21.07.06.17-.16.28-.21.11.05.17-.18.2-.22,0,0,.17-.19.17-.21,0,0,.18-.21.19-.22,0a.12.12,0,1,1-.23,0c0,.18-.22.31-.22.13,0,.18-.23.14-.22,0,0,.18-.24,0-.22-.14,0,.17-.25.09-.22-.09,0,.18-.25.19-.22,0a.11.11,0,1,1-.21-.05c0,.17-.27,0-.22-.2-.05.17-.27.39-.21.23-.06.16-.27,0-.2-.17-.07.16-.28.21-.2.05-.08.16-.29-.23-.2-.39-.09.16-.29,0-.19-.13-.1.15-.29.32-.19.18-.1.14-.28-.19-.18-.34-.1.15-.28-.15-.17-.28-.11.13-.28,0-.16-.12-.12.13-.29,0-.16-.12-.13.12-.28-.07-.15-.19-.13.12-.28.15-.14,0-.14.11-.27,0-.13-.1-.14.1-.27-.42-.12-.52-.15.1-.27,0-.11-.05-.16.08-.27-.25-.11-.33l-.09,0c-.16.07-.25-.25-.08-.31-.17.06-.24-.1-.07-.16-.17.06-.24-.26-.06-.3-.18,0-.23-.24,0-.28-.18,0-.22-.06,0-.08a.12.12,0,1,1,0-.24c-.18,0-.19-.35,0-.36-.17,0-.18-.1,0-.1a.13.13,0,1,1,0-.26c-.17,0-.16-.12,0-.1-.18,0-.15-.47,0-.44-.18,0-.14-.05,0,0-.18,0-.13-.19,0-.15-.18,0-.11-.32.06-.26-.17-.06-.1-.48.07-.42-.17-.06-.08-.23.08-.16-.16-.07-.07-.07.09,0-.16-.08,0-.51.11-.42-.16-.09,0-.24.11-.15-.15-.09,0-.26.12-.16-.14-.1,0-.19.13-.08-.14-.11,0-.47.14-.35-.13-.12,0-.23.15-.1-.13-.13,0-.31.16-.18-.12-.13.05-.22.16-.08-.11-.14.07-.24.18-.1-.11-.14.07-.32.17-.17-.1-.15.09-.24.19-.09-.1-.15.1-.18.19,0-.09-.16.12-.4.2-.24-.08-.16.13-.19.2,0-.07-.16.14-.25.2-.08-.06-.17.16-.18.21,0-.05-.17.17-.49.22-.32,0-.17.18-.2.21,0,0-.18.19-.24.22-.06,0-.18.2.12.22.3,0-.18.21-.37.22-.19,0-.18.22-.14.22,0,0-.18.23-.05.22.13,0-.18.24-.23.23-.06,0-.17.24-.21.22,0,0-.18.25-.06.21.12,0-.18.27-.34.22-.17.05-.17.27-.16.21,0,.06-.17.28.11.21.28a.12.12,0,1,1,.21.09c.07-.16.28-.26.2-.1.08-.16.28.26.2.42.08-.16.28-.11.19,0,.09-.15.29-.05.18.1.11-.15.29-.24.18-.1.11-.14.29.29.17.43.12-.14.29-.21.17-.08.12-.13.28.24.15.36.13-.12.29-.07.15,0,.14-.11.28.18.14.29.14-.11.28.05.13.15.15-.1.28-.09.13,0,.15-.1.27,0,.11.12.16-.09.26.15.1.23.16-.08.26.34.09.41.17-.07.25,0,.09.1.16-.06.24,0,.07.09.17-.06.23.2.06.25.17-.05.22.24.05.27a.13.13,0,1,1,0,.25c.18,0,.2.31,0,.32a.14.14,0,0,1,0,.27.14.14,0,0,1,0,.28" transform="translate(0 0)"/><path class="cls-20" d="M45.36,26.52c.18,0,.17.09,0,.08.18,0,.16.14,0,.12.17,0,.15.48,0,.46.18,0,.13.22,0,.19.17,0,.12.23-.05.19.17,0,.11,0-.06,0,.17.05.09.58-.07.52.16.06.08,0-.09,0,.17.08.07.28-.09.2.16.08.06.18-.1.1.16.08,0,.35-.11.26.15.09,0,.32-.13.21.15.11,0,.19-.13.09.14.1,0,.47-.14.35.14.12,0,.25-.15.13.13.12,0,.39-.15.26.12.13,0,.11-.17,0,.12.14-.06.3-.17.16.11.14-.08.33-.18.18.1.15-.09.16-.18,0,.09.16-.11.5-.19.34.08.16-.12.2-.2,0,.08.16-.13.22-.2.06.07.16-.14.31-.21.14.07.17-.15.24-.21.07.06.17-.16.28-.21.11.05.17-.18.2-.22,0,0,.17-.19.17-.21,0,0,.18-.21.19-.22,0a.12.12,0,1,1-.23,0c0,.18-.22.31-.22.13,0,.18-.23.14-.22,0,0,.18-.24,0-.22-.14,0,.17-.25.09-.22-.09,0,.18-.25.19-.22,0a.11.11,0,1,1-.21-.05c0,.17-.27,0-.22-.2-.05.17-.27.39-.21.23-.06.16-.27,0-.2-.17-.07.16-.28.21-.2.05-.08.16-.29-.23-.2-.39-.09.16-.29,0-.19-.13-.1.15-.29.32-.19.18-.1.14-.28-.19-.18-.34-.1.15-.28-.15-.17-.28-.11.13-.28,0-.16-.12-.12.13-.29,0-.16-.12-.13.12-.28-.07-.15-.19-.13.12-.28.15-.14,0-.14.11-.27,0-.13-.1-.14.1-.27-.42-.12-.52-.15.1-.27,0-.11-.05-.16.08-.27-.25-.11-.33l-.09,0c-.16.07-.25-.25-.08-.31-.17.06-.24-.1-.07-.16-.17.06-.24-.26-.06-.3-.18,0-.23-.24,0-.28-.18,0-.22-.06,0-.08a.12.12,0,1,1,0-.24c-.18,0-.19-.35,0-.36-.17,0-.18-.1,0-.1a.13.13,0,1,1,0-.26c-.17,0-.16-.12,0-.1-.18,0-.15-.47,0-.44-.18,0-.14-.05,0,0-.18,0-.13-.19,0-.15-.18,0-.11-.32.06-.26-.17-.06-.1-.48.07-.42-.17-.06-.08-.23.08-.16-.16-.07-.07-.07.09,0-.16-.08,0-.51.11-.42-.16-.09,0-.24.11-.15-.15-.09,0-.26.12-.16-.14-.1,0-.19.13-.08-.14-.11,0-.47.14-.35-.13-.12,0-.23.15-.1-.13-.13,0-.31.16-.18-.12-.13.05-.22.16-.08-.11-.14.07-.24.18-.1-.11-.14.07-.32.17-.17-.1-.15.09-.24.19-.09-.1-.15.1-.18.19,0-.09-.16.12-.4.2-.24-.08-.16.13-.19.2,0-.07-.16.14-.25.2-.08-.06-.17.16-.18.21,0-.05-.17.17-.49.22-.32,0-.17.18-.2.21,0,0-.18.19-.24.22-.06,0-.18.2.12.22.3,0-.18.21-.37.22-.19,0-.18.22-.14.22,0,0-.18.23-.05.22.13,0-.18.24-.23.23-.06,0-.17.24-.21.22,0,0-.18.25-.06.21.12,0-.18.27-.34.22-.17.05-.17.27-.16.21,0,.06-.17.28.11.21.28a.12.12,0,1,1,.21.09c.07-.16.28-.26.2-.1.08-.16.28.26.2.42.08-.16.28-.11.19,0,.09-.15.29-.05.18.1.11-.15.29-.24.18-.1.11-.14.29.29.17.43.12-.14.29-.21.17-.08.12-.13.28.24.15.36.13-.12.29-.07.15,0,.14-.11.28.18.14.29.14-.11.28.05.13.15.15-.1.28-.09.13,0,.15-.1.27,0,.11.12.16-.09.26.15.1.23.16-.08.26.34.09.41.17-.07.25,0,.09.1.16-.06.24,0,.07.09.17-.06.23.2.06.25.17-.05.22.24.05.27a.13.13,0,1,1,0,.25c.18,0,.2.31,0,.32a.14.14,0,0,1,0,.27A.14.14,0,0,1,45.36,26.52Z" transform="translate(0 0)"/><path class="cls-21" d="M47.57,25.22a5.53,5.53,0,0,1,2-.62,5.73,5.73,0,0,1-1.88,1,5.92,5.92,0,0,1-2,.63,5.45,5.45,0,0,1,1.88-1" transform="translate(0 0)"/><path class="cls-21" d="M44,20.41A7.55,7.55,0,0,1,45.29,18a7,7,0,0,1-.8,2.62A7.17,7.17,0,0,1,43.21,23,7.16,7.16,0,0,1,44,20.41" transform="translate(0 0)"/><path class="cls-21" d="M41.39,19.32a5.69,5.69,0,0,1,1-1.95,5.86,5.86,0,0,1-.65,2.12,5.69,5.69,0,0,1-1,2,5.86,5.86,0,0,1,.65-2.12" transform="translate(0 0)"/><path class="cls-21" d="M34,26.07a5.4,5.4,0,0,1-1.82-1,5.62,5.62,0,0,1,2,.6,5.32,5.32,0,0,1,1.82,1,5.52,5.52,0,0,1-2-.61" transform="translate(0 0)"/><path class="cls-21" d="M41.88,32.8a7.47,7.47,0,0,1-.26,2.73,7.11,7.11,0,0,1-.27-2.73,7.15,7.15,0,0,1,.27-2.73,7.52,7.52,0,0,1,.26,2.73" transform="translate(0 0)"/><path class="cls-21" d="M48,25.88a7,7,0,0,1,2.3,1.22,6.81,6.81,0,0,1-2.49-.76,6.72,6.72,0,0,1-2.29-1.22,6.79,6.79,0,0,1,2.48.76" transform="translate(0 0)"/><path class="cls-6" d="M23.44,14.51s1.52-3.4,7.62-1.58c0,0-4.6,4.22-7.62,1.58" transform="translate(0 0)"/><path class="cls-7" d="M23.44,14.48s.89-1.94,4.47-.93c0,0-2.71,2.42-4.47.93" transform="translate(0 0)"/><path class="cls-6" d="M21,12.26A4.38,4.38,0,0,1,22.35,10,6.31,6.31,0,0,1,23,9.49,48,48,0,0,1,29.5,8.24a11.43,11.43,0,0,1-4.31,3.86,5.88,5.88,0,0,1-1,.39A4.21,4.21,0,0,1,21,12.26" transform="translate(0 0)"/><path class="cls-7" d="M21,12.22a2.85,2.85,0,0,1,1.42-1.75,4.82,4.82,0,0,1,.88-.41c1-.59,1.92-.28,2.84-.28-.61.61-.92.92-1.67,1.63a5.81,5.81,0,0,1-.76.54,2.78,2.78,0,0,1-2.71.27" transform="translate(0 0)"/><path class="cls-6" d="M17.53,9.88S14.89,6.32,20.32,1c0,0,1.69,7.25-2.79,8.86" transform="translate(0 0)"/><path class="cls-7" d="M17.49,9.87S16,7.8,19.14,4.67c0,0,.92,4.23-1.65,5.2" transform="translate(0 0)"/><path class="cls-6" d="M11.82,10.55s-4.1.67-6.16-6.16c0,0,6.76,1.72,6.16,6.16" transform="translate(0 0)"/><path class="cls-7" d="M11.79,10.57S9.43,10.93,8.18,7c0,0,3.92,1.06,3.61,3.62" transform="translate(0 0)"/><path class="cls-6" d="M10,15.11a4.27,4.27,0,0,1-1.59.95,6.55,6.55,0,0,1-.9.23A8.18,8.18,0,0,1,0,14.12c3-.06,5.59-1.53,8.5-.54a5.12,5.12,0,0,1,.55.4A4.7,4.7,0,0,1,10,15.11" transform="translate(0 0)"/><path class="cls-7" d="M10,15.16a2.72,2.72,0,0,1-1.46.66,4.24,4.24,0,0,1-1.14,0c-1-.44-2.49-.41-3.38-.92,1.5,0,2.7-1.11,4.41-1a2.63,2.63,0,0,1,.6.25,2.59,2.59,0,0,1,1,.95" transform="translate(0 0)"/><path class="cls-6" d="M10.42,20s-.14,4.37-7.58,5.11c0,0,3.15-6.63,7.58-5.11" transform="translate(0 0)"/><path class="cls-7" d="M10.44,20.08s-.11,2.51-4.45,3c0,0,1.88-3.83,4.45-3" transform="translate(0 0)"/><path class="cls-6" d="M13.93,22.94s2.87,4.08-3.4,9.88c0,0-1.68-8.2,3.4-9.88" transform="translate(0 0)"/><path class="cls-7" d="M14,23s1.61,2.37-2,5.8c0,0-.91-4.79,2-5.8" transform="translate(0 0)"/><path class="cls-6" d="M16.13,23.47s3.81,2.71.08,9.82c0,0-4.06-6.74-.08-9.82" transform="translate(0 0)"/><path class="cls-7" d="M16.17,23.47s2.17,1.59,0,5.77c0,0-2.31-4,0-5.77" transform="translate(0 0)"/><path class="cls-6" d="M20,22s4.48,0,5.43,7.65c0,0-6.86-3.05-5.43-7.65" transform="translate(0 0)"/><path class="cls-7" d="M20,22s2.57.05,3.18,4.5c0,0-4-1.84-3.18-4.5" transform="translate(0 0)"/><path class="cls-6" d="M22.21,18.77A4.5,4.5,0,0,1,24.79,18a7,7,0,0,1,.88.06c2.34.49,3.87,2.63,6,3.55a13.1,13.1,0,0,1-5.67.09,4.56,4.56,0,0,1-.53-.13,4.67,4.67,0,0,1-3.27-2.82" transform="translate(0 0)"/><path class="cls-7" d="M22.23,18.73a2.93,2.93,0,0,1,2.3-.33,5.31,5.31,0,0,1,.95.32c1,.46,1.3,1.38,2.22,2a12.38,12.38,0,0,1-2.28-.15,6,6,0,0,1-1-.12,2.91,2.91,0,0,1-2.24-1.71" transform="translate(0 0)"/><path class="cls-8" d="M19.87,11.13S19.51,6.63,27.06,5c0,0-2.46,7.16-7.19,6.12" transform="translate(0 0)"/><path class="cls-9" d="M19.85,11.1s-.17-2.59,4.22-3.59c0,0-1.49,4.15-4.22,3.59" transform="translate(0 0)"/><path class="cls-8" d="M16.12,9a3.33,3.33,0,0,1-.62-1,5.36,5.36,0,0,1-.2-.57A7.62,7.62,0,0,1,17.54,0c.31,2.76,1.53,6.13-.52,8.35a4.62,4.62,0,0,1-.41.34,4.53,4.53,0,0,1-.49.29" transform="translate(0 0)"/><path class="cls-9" d="M16.09,9a2.21,2.21,0,0,1-.24-.34,3,3,0,0,1-.31-1,7.1,7.1,0,0,1,1.09-4c.3,1.53,1.22,3.06.17,4.7a2.48,2.48,0,0,1-.71.6" transform="translate(0 0)"/><path class="cls-8" d="M13.59,10.21c-4.15.3-5.1-4.15-5.41-7.48,0,0,.27.12.69.34.21.11.46.25.74.42s.56.35.87.57a6.37,6.37,0,0,1,3.26,5.49,3.92,3.92,0,0,1-.15.66" transform="translate(0 0)"/><path class="cls-9" d="M13.56,10.24C11,10.19,10.39,8,10.08,6.06c1.58.63,3.17,1.27,3.54,3.24a2.17,2.17,0,0,1-.06.94" transform="translate(0 0)"/><path class="cls-8" d="M10.21,13.36S6.59,16,1.32,10.42c0,0,7.33-1.61,8.89,2.94" transform="translate(0 0)"/><path class="cls-9" d="M10.19,13.4S8.09,14.88,5,11.67c0,0,4.27-.89,5.21,1.73" transform="translate(0 0)"/><path class="cls-8" d="M9.81,18.68a4.38,4.38,0,0,1-1.65,2,5.18,5.18,0,0,1-.74.45c-2,1.09-4.49.17-6.63.48a9.17,9.17,0,0,1,4.85-3.4,6.18,6.18,0,0,1,1-.25,4.24,4.24,0,0,1,3.14.7" transform="translate(0 0)"/><path class="cls-9" d="M9.82,18.72a2.86,2.86,0,0,1-1.66,1.54,5,5,0,0,1-.94.27c-.93.79-1.84-.43-2.76-.13.31-.61,1.53-.91,1.8-1.38a5.92,5.92,0,0,1,.83-.43,2.8,2.8,0,0,1,2.73.13" transform="translate(0 0)"/><path class="cls-8" d="M11.5,21.14a5.1,5.1,0,0,1-1.09,3.58,7.35,7.35,0,0,1-.7.83,8.29,8.29,0,0,1-5.25,3.13c1.22-2.14,1.83-4.29,3.2-6.3A3.94,3.94,0,0,1,8.11,22a4.64,4.64,0,0,1,3.39-.88" transform="translate(0 0)"/><path class="cls-9" d="M11.53,21.17A3.49,3.49,0,0,1,9.9,24.23a5.63,5.63,0,0,1-.51.36c-.65.41-1.26.72-1.87,1a4.86,4.86,0,0,1,.72-2.37,4.34,4.34,0,0,1,.58-.84,3.06,3.06,0,0,1,2.71-1.24" transform="translate(0 0)"/><path class="cls-8" d="M15.44,23.52s3.4,3.39-1.6,9.93c0,0-2.95-7.5,1.6-9.93" transform="translate(0 0)"/><path class="cls-9" d="M15.48,23.53s1.93,2-.94,5.83c0,0-1.66-4.39.94-5.83" transform="translate(0 0)"/><path class="cls-8" d="M19,22.42a4.88,4.88,0,0,1,2.36,2.74,6.39,6.39,0,0,1,.32,1c.84,1.92.23,4.07-.08,5.91-1.22-1.84-3-3.68-3.56-5.85a5.14,5.14,0,0,1-.06-.55,4.49,4.49,0,0,1,1-3.24" transform="translate(0 0)"/><path class="cls-9" d="M19,22.41a3,3,0,0,1,1.46,1.89,5.47,5.47,0,0,1,.2,1c0,.92,0,1.84,0,2.76A5.46,5.46,0,0,1,19,26.18a4.8,4.8,0,0,1-.39-.9A3,3,0,0,1,19,22.41" transform="translate(0 0)"/><path class="cls-8" d="M21.9,19.58s4.1-1.69,7.87,4.91c0,0-7.43-.17-7.87-4.91" transform="translate(0 0)"/><path class="cls-9" d="M21.93,19.54s2.36-.93,4.61,2.89c0,0-4.32-.15-4.61-2.89" transform="translate(0 0)"/><path class="cls-10" d="M22.31,13.5a4.26,4.26,0,0,1,3.05-2.2l.47-.1c1.62-.33,3.52-.88,5.15-.33a22.4,22.4,0,0,1-5.11,3.3,3.72,3.72,0,0,1-.92.17,3.63,3.63,0,0,1-2.64-.84" transform="translate(0 0)"/><path class="cls-11" d="M22.3,13.47s.59-1.39,2.87-1.39h.57A5.75,5.75,0,0,1,27.18,12c-.54.54-1.08,1.36-1.79,1.51a4.93,4.93,0,0,1-.75.31,2.42,2.42,0,0,1-2.34-.31" transform="translate(0 0)"/><path class="cls-10" d="M19.32,11.16a4.94,4.94,0,0,1-.56-3.56A7.92,7.92,0,0,1,19,6.73c1-2.05,3.75-2.43,4-5a10.2,10.2,0,0,1-.28,5.74,7.28,7.28,0,0,1-.28.73,5.55,5.55,0,0,1-.41.7,4.82,4.82,0,0,1-2.74,2.29" transform="translate(0 0)"/><path class="cls-11" d="M19.28,11.14a3.75,3.75,0,0,1,.08-3.27,7.68,7.68,0,0,1,.41-.74,6.76,6.76,0,0,1,2-1.64,13.33,13.33,0,0,0-.35,2.1c0,.25-.05.51-.09.75a5.28,5.28,0,0,1-.44,1.45,3,3,0,0,1-1.62,1.35" transform="translate(0 0)"/><path class="cls-10" d="M15.1,9.82c-3.3-1.06-3.91-5.36-2.82-8.14.05-.26.12-.51.19-.76a6.59,6.59,0,0,1,.25-.75c.24.49.51,1,.79,1.44.13.24.27.48.41.72.94,2.13,3.08,4,1.7,6.72a4.53,4.53,0,0,1-.52.77" transform="translate(0 0)"/><path class="cls-11" d="M15.06,9.83C12.41,8.75,12.72,6,13,4.16c.92,1.53,2.75,2.76,2.51,4.75a2.44,2.44,0,0,1-.47.92" transform="translate(0 0)"/><path class="cls-10" d="M11.51,12.27a4.34,4.34,0,0,1-2.61,0A5.41,5.41,0,0,1,8.08,12C6.19,10.9,4.35,9.67,3.44,7.53,5.58,8.45,8,7.84,10,9.39a4.83,4.83,0,0,1,.71.79,4.18,4.18,0,0,1,.76,2.09" transform="translate(0 0)"/><path class="cls-11" d="M11.49,12.3A2.85,2.85,0,0,1,9.24,12a5.05,5.05,0,0,1-.81-.55A19.29,19.29,0,0,1,6.5,9.67c1.22,0,2.14-.3,3.34.44a3.4,3.4,0,0,1,.77.53,2.51,2.51,0,0,1,.88,1.66" transform="translate(0 0)"/><path class="cls-10" d="M10.15,16.62a4.5,4.5,0,0,1-2,1.81,5.44,5.44,0,0,1-.84.34,9.81,9.81,0,0,1-5.19,0l-.58-.15c-.39-.1-.81-.23-1.24-.38,0,0,.17-.14.48-.36q.23-.18.54-.39C4,16.43,6.53,15.08,9.17,15.91a5.19,5.19,0,0,1,.5.31,4.63,4.63,0,0,1,.48.4" transform="translate(0 0)"/><path class="cls-11" d="M10.16,16.67a2.69,2.69,0,0,1-1.2,1,3.65,3.65,0,0,1-.77.27A5.15,5.15,0,0,1,4.5,17.7c1.57-.5,2.92-2.25,4.78-1.57a2.5,2.5,0,0,1,.88.54" transform="translate(0 0)"/><path class="cls-10" d="M12.32,22.32a5.16,5.16,0,0,1-.75,4.45l-.32.47a11.29,11.29,0,0,1-4.08,3.89C8.4,29,7.79,26.53,9,24.26a3.54,3.54,0,0,1,.35-.42,4.36,4.36,0,0,1,3-1.52" transform="translate(0 0)"/><path class="cls-11" d="M12.36,22.34a3.29,3.29,0,0,1-.88,3.16,5.49,5.49,0,0,1-.41.44c-.23.6-1.45.9-1.75,1.51.61-.61.3-1.53.4-2.51a6.26,6.26,0,0,1,.38-.89,2.91,2.91,0,0,1,2.26-1.71" transform="translate(0 0)"/><path class="cls-10" d="M16.64,23.16a4.39,4.39,0,0,1,1.61,1.34,6.21,6.21,0,0,1,.47.68c1.4,2.65.17,5.72.48,8.48-1.53-1.84-3.06-3.68-3.46-5.91-.05-.2-.09-.39-.12-.59a4.87,4.87,0,0,1,1-4" transform="translate(0 0)"/><path class="cls-11" d="M16.68,23.15a2.8,2.8,0,0,1,1.2,1.19,3.79,3.79,0,0,1,.34.81A14.11,14.11,0,0,1,18,29.06c-1.22-.62-.91-2.15-1.69-2.89a3.92,3.92,0,0,1-.2-1,2.85,2.85,0,0,1,.6-2" transform="translate(0 0)"/><path class="cls-10" d="M21.23,21.11a4.69,4.69,0,0,1,2.74.51,6.81,6.81,0,0,1,.79.47c1.72,1.38,3.55,3.53,3.86,6-2.14-1.53-4.59-2.15-6.43-3.67a4.73,4.73,0,0,1-.32-.46,4.57,4.57,0,0,1-.64-2.83" transform="translate(0 0)"/><path class="cls-11" d="M21.27,21.08a3,3,0,0,1,2.28.77,5.16,5.16,0,0,1,.74.74c.35.88,1.58,1.19,1.58,2.41a13.76,13.76,0,0,0-3.32-1.3,3.67,3.67,0,0,1-.71-.71,2.66,2.66,0,0,1-.57-1.91" transform="translate(0 0)"/><path class="cls-10" d="M22.54,17A4.39,4.39,0,0,1,25,16a4.85,4.85,0,0,1,.86,0A18.11,18.11,0,0,1,32,18.57a8.56,8.56,0,0,1-4.87.89,7.6,7.6,0,0,1-1.07-.1A4.57,4.57,0,0,1,22.54,17" transform="translate(0 0)"/><path class="cls-11" d="M22.55,17a2.87,2.87,0,0,1,2.2-.59,4.85,4.85,0,0,1,1,.2c1.07-.15,1.38,1.08,2.3,1.38-.62.62-1.53.31-2.15.42a5.91,5.91,0,0,1-.94,0A2.83,2.83,0,0,1,22.55,17" transform="translate(0 0)"/><path class="cls-8" d="M23.35,15.7s2.17-3.37,9.12-.6c0,0-5.9,3.79-9.12.6" transform="translate(0 0)"/><path class="cls-9" d="M23.34,15.66s1.28-1.92,5.36-.35c0,0-3.47,2.17-5.36.35" transform="translate(0 0)"/><path class="cls-12" d="M24.05,16.75c.31,0,.3.34,0,.32a.23.23,0,1,1,0,.46c.31,0,.26,0-.05-.07.31.05.24.85-.07.78.31.07.22.25-.08.18.3.07.19.81-.11.72.3.09.17.48-.13.37.3.11.15.24-.14.11.29.13.12.7-.17.56.29.14.1.09-.18-.07.28.16.07.7-.19.53.26.17,0,.43-.22.25.26.18,0,.57-.23.38.25.19,0,.29-.25.08.24.21,0,.67-.26.46.23.21-.06.79-.28.57.22.22-.08.58-.28.34.2.24-.11.45-.31.2.2.25-.13.25-.31,0,.18.25-.16.55-.33.28.17.27-.18.47-.33.19.15.28-.21.7-.35.41.14.29-.23,0-.35-.32.12.29-.26.72-.37.43.11.29-.27.42-.36.12.09.3-.3.37-.38.06.08.31-.32.66-.38.35.06.31-.34.42-.38.11,0,.31-.36.14-.39-.18,0,.32-.37.34-.39,0,0,.31-.39-.07-.39-.38,0,.31-.41.71-.39.39,0,.32-.42.26-.39-.06,0,.32-.43.15-.39-.16,0,.31-.44.26-.38-.05-.06.31-.46.24-.38-.06-.08.3-.47.35-.38.05-.09.3-.48.22-.37-.08-.11.3-.48-.15-.36-.44-.12.29-.49.06-.35-.23-.14.29-.5.12-.35-.15-.15.27-.5.28-.33,0-.17.27-.51,0-.33-.25-.18.25-.51.28-.31,0-.2.25-.51-.21-.31-.45-.2.24-.5-.2-.29-.43-.21.23-.5-.21-.27-.43-.23.22-.5.39-.26.18-.24.21-.5-.54-.25-.73-.25.19-.49-.09-.23-.27-.26.18-.48-.33-.22-.5-.26.17-.47.42-.2.27-.27.15-.46-.31-.18-.45-.28.14-.45-.67-.16-.79-.29.12-.44-.33-.14-.44-.3.11-.43.22-.13.12-.3.1-.41-.64-.11-.72-.3.08-.39,0-.09,0a.22.22,0,1,1-.06-.43c-.31,0-.37-.8-.05-.84-.32,0-.35-.09,0-.1-.32,0-.33-.54,0-.54-.32,0-.31-.15,0-.14-.32,0-.29-.71,0-.68-.32,0-.26.09.05.13-.31,0-.24-.74.06-.67-.3-.07-.21-.37.09-.29-.3-.08-.19-.31.11-.22-.3-.09-.17-.86.13-.75-.3-.11-.15-.26.14-.13-.29-.13-.12-.51.16-.37a.22.22,0,1,1,.18-.39c-.27-.15-.06-.48.2-.31-.26-.17,0-.29.22-.11-.26-.18,0-.62.23-.43-.25-.19,0-1,.25-.75-.24-.21,0-.14.26.08-.23-.22.06-.53.27-.31-.21-.22.09-.27.29,0-.2-.23.11-1.08.31-.83-.2-.25.13-.42.31-.16-.18-.26.16-.4.33-.14-.17-.26.18-.23.33,0-.15-.27.21-.61.35-.33-.14-.28.23-.3.35,0-.12-.29.25-.6.36-.3-.11-.3.28-.54.37-.23-.09-.31.3.05.38.35-.08-.3.32-.43.38-.12-.06-.31.34-.42.38-.11,0-.31.36-.39.39-.07,0-.32.37-.64.39-.32,0-.32.39-.5.39-.18,0-.32.41.08.39.39,0-.31.42-.14.39.17,0-.31.43-.81.39-.49,0-.32.44.06.38.37.06-.31.46,0,.38.28.08-.3.47-.41.38-.11.09-.3.47-.07.37.22.1-.29.48-.18.36.11.12-.29.49-.31.35,0,.14-.28.5.08.35.35.15-.27.5-.38.33-.11.17-.27.51.09.33.35.18-.26.51.12.31.37.2-.25.51.09.31.33.2-.24.5-.35.29-.12.21-.23.5.07.27.29.23-.22.5.68.26.88.24-.2.5-.12.25.08.25-.2.49,0,.23.18.26-.18.48.35.22.52.26-.17.47,0,.19.11.28-.15.47.14.19.28.28-.14.45.55.16.67.29-.12.44.13.14.24.3-.11.43,0,.13.1.3-.09.41.53.11.61.3-.08.39.41.08.48.31-.07.38.46.07.5.31,0,.36,0,.05.08.31,0,.34.36,0,.38.31,0,.32.63,0,.63" transform="translate(0 0)"/><path class="cls-22" d="M24.05,16.75c.31,0,.3.34,0,.32a.23.23,0,1,1,0,.46c.31,0,.26,0-.05-.07.31.05.24.85-.07.78.31.07.22.25-.08.18.3.07.19.81-.11.72.3.09.17.48-.13.37.3.11.15.24-.14.11.29.13.12.7-.17.56.29.14.1.09-.18-.07.28.16.07.7-.19.53.26.17,0,.43-.22.25.26.18,0,.57-.23.38.25.19,0,.29-.25.08.24.21,0,.67-.26.46.23.21-.06.79-.28.57.22.22-.08.58-.28.34.2.24-.11.45-.31.2.2.25-.13.25-.31,0,.18.25-.16.55-.33.28.17.27-.18.47-.33.19.15.28-.21.7-.35.41.14.29-.23,0-.35-.32.12.29-.26.72-.37.43.11.29-.27.42-.36.12.09.3-.3.37-.38.06.08.31-.32.66-.38.35.06.31-.34.42-.38.11,0,.31-.36.14-.39-.18,0,.32-.37.34-.39,0,0,.31-.39-.07-.39-.38,0,.31-.41.71-.39.39,0,.32-.42.26-.39-.06,0,.32-.43.15-.39-.16,0,.31-.44.26-.38-.05-.06.31-.46.24-.38-.06-.08.3-.47.35-.38.05-.09.3-.48.22-.37-.08-.11.3-.48-.15-.36-.44-.12.29-.49.06-.35-.23-.14.29-.5.12-.35-.15-.15.27-.5.28-.33,0-.17.27-.51,0-.33-.25-.18.25-.51.28-.31,0-.2.25-.51-.21-.31-.45-.2.24-.5-.2-.29-.43-.21.23-.5-.21-.27-.43-.23.22-.5.39-.26.18-.24.21-.5-.54-.25-.73-.25.19-.49-.09-.23-.27-.26.18-.48-.33-.22-.5-.26.17-.47.42-.2.27-.27.15-.46-.31-.18-.45-.28.14-.45-.67-.16-.79-.29.12-.44-.33-.14-.44-.3.11-.43.22-.13.12-.3.1-.41-.64-.11-.72-.3.08-.39,0-.09,0a.22.22,0,1,1-.06-.43c-.31,0-.37-.8-.05-.84-.32,0-.35-.09,0-.1-.32,0-.33-.54,0-.54-.32,0-.31-.15,0-.14-.32,0-.29-.71,0-.68-.32,0-.26.09.05.13-.31,0-.24-.74.06-.67-.3-.07-.21-.37.09-.29-.3-.08-.19-.31.11-.22-.3-.09-.17-.86.13-.75-.3-.11-.15-.26.14-.13-.29-.13-.12-.51.16-.37a.22.22,0,1,1,.18-.39c-.27-.15-.06-.48.2-.31-.26-.17,0-.29.22-.11-.26-.18,0-.62.23-.43-.25-.19,0-1,.25-.75-.24-.21,0-.14.26.08-.23-.22.06-.53.27-.31-.21-.22.09-.27.29,0-.2-.23.11-1.08.31-.83-.2-.25.13-.42.31-.16-.18-.26.16-.4.33-.14-.17-.26.18-.23.33,0-.15-.27.21-.61.35-.33-.14-.28.23-.3.35,0-.12-.29.25-.6.36-.3-.11-.3.28-.54.37-.23-.09-.31.3.05.38.35-.08-.3.32-.43.38-.12-.06-.31.34-.42.38-.11,0-.31.36-.39.39-.07,0-.32.37-.64.39-.32,0-.32.39-.5.39-.18,0-.32.41.08.39.39,0-.31.42-.14.39.17,0-.31.43-.81.39-.49,0-.32.44.06.38.37.06-.31.46,0,.38.28.08-.3.47-.41.38-.11.09-.3.47-.07.37.22.1-.29.48-.18.36.11.12-.29.49-.31.35,0,.14-.28.5.08.35.35.15-.27.5-.38.33-.11.17-.27.51.09.33.35.18-.26.51.12.31.37.2-.25.51.09.31.33.2-.24.5-.35.29-.12.21-.23.5.07.27.29.23-.22.5.68.26.88.24-.2.5-.12.25.08.25-.2.49,0,.23.18.26-.18.48.35.22.52.26-.17.47,0,.19.11.28-.15.47.14.19.28.28-.14.45.55.16.67.29-.12.44.13.14.24.3-.11.43,0,.13.1.3-.09.41.53.11.61.3-.08.39.41.08.48.31-.07.38.46.07.5.31,0,.36,0,.05.08.31,0,.34.36,0,.38C24.35,16.1,24.36,16.75,24.05,16.75Z" transform="translate(0 0)"/><path class="cls-14" d="M23,16.78c.27,0,.26-.05,0-.06.27,0,.24.5,0,.48.27,0,.23.61,0,.57.27,0,.21.31-.06.25.27.06.19.29-.07.23.26.06.16.31-.1.23.26.08.15.3-.1.21a.18.18,0,1,1-.13.33.17.17,0,1,1-.14.31c.24.12.08.78-.16.65.24.13.06.16-.17,0,.23.14,0,.54-.18.38.22.16,0,.37-.2.2.21.17,0,.76-.21.58.2.18,0,.49-.23.3.2.19-.05-.09-.24-.29.19.2-.07.9-.25.69.18.21-.09.31-.26.1.17.21-.11.41-.27.19a.17.17,0,1,1-.28.19c.14.23-.16.27-.29,0,.13.23-.18.62-.3.37.12.25-.2.19-.3-.06.1.25-.22.48-.32.23.1.25-.23.38-.31.12.08.26-.26.32-.33.06.07.26-.27.17-.32-.09,0,.26-.29.32-.34,0,0,.27-.3.21-.33-.06,0,.27-.32.59-.33.32,0,.27-.34,0-.34-.26,0,.27-.35.4-.34.13,0,.27-.36.47-.33.2,0,.27-.38-.16-.34-.43,0,.27-.38.5-.33.23,0,.27-.39.39-.33.13-.06.26-.4-.35-.32-.61-.08.26-.41.32-.32.07-.09.25-.42.46-.31.21-.11.25-.43.06-.31-.19-.12.25-.43-.34-.29-.58-.14.24-.44.28-.29.05-.15.23-.44.26-.28,0-.16.23-.44-.1-.28-.31-.16.21-.43-.37-.26-.58-.17.21-.43.34-.25.14-.18.2-.43-.19-.23-.37-.2.18-.43-.13-.23-.31-.2.18-.43.2-.21,0-.22.17-.42-.21-.2-.37-.22.16-.42-.3-.19-.44-.23.14-.4-.32-.17-.45-.23.13-.4.29-.15.17-.25.12-.39-.71-.14-.82-.25.11-.38,0-.13-.07-.25.09-.37-.46-.11-.54A.18.18,0,1,1,9.92,18c-.26.07-.34-.05-.08-.1-.26.05-.32-.13-.05-.17-.27,0-.32-.7,0-.73-.27,0-.29-.18,0-.19-.27,0-.28-.24,0-.24a.18.18,0,1,1,0-.35c-.27,0-.25-.2,0-.17-.27,0-.22-.36,0-.32-.27,0-.21-.32.05-.26a.19.19,0,1,1,.08-.38c-.26-.07-.17-.51.09-.43-.26-.08-.14-.32.11-.23-.25-.09-.12-.5.13-.39-.25-.11-.11-.29.14-.18-.25-.11-.08-.58.15-.44-.23-.14-.06-.41.17-.27-.23-.14,0-.29.19-.14-.22-.15,0-.91.2-.74-.22-.17,0-.18.21,0-.2-.18,0-.22.23,0-.2-.18.05-.71.24-.51-.19-.2.07-.49.24-.28-.17-.21.1-.31.27-.09-.17-.22.11-.2.27,0-.16-.22.13-.87.28-.64-.15-.23.15.06.29.3-.14-.24.18-.43.29-.19-.11-.24.2-.75.31-.5-.11-.25.22-.23.31,0-.09-.25.24-.32.32-.07-.08-.25.26-.68.32-.42-.06-.26.28-.14.33.13,0-.27.29-.52.33-.25,0-.27.31-.2.34.07,0-.27.32-.26.33,0,0-.27.34-.15.34.12,0-.27.35-.54.33-.27,0-.27.37,0,.34.31,0-.27.38-.08.33.18,0-.26.39-.5.34-.23,0-.27.39.12.32.39.07-.27.41-.15.33.11.08-.26.41-.47.32-.21.09-.26.41.19.31.44.1-.25.42-.26.3,0,.12-.24.43.13.3.37.13-.24.43-.14.29.09.14-.23.44-.46.28-.23.16-.23.44.13.27.34.17-.21.44-.08.26.13.18-.21.44.06.25.25.19-.19.44.24.24.43.2-.19.43.17.23.35.2-.18.42-.25.21-.08.21-.17.42.35.2.51.22-.16.41-.06.18.08.23-.14.41.27.17.4.24-.13.4.3.16.42a.18.18,0,1,1,.14.33c.25-.11.38-.09.13,0,.25-.09.36.73.1.81.26-.08.36,0,.1.07a.17.17,0,1,1,.07.33c.27,0,.33.23.06.27.27,0,.31.44,0,.47.27,0,.3.26,0,.27.27,0,.28.49,0,.49" transform="translate(0 0)"/><path class="cls-23" d="M23,16.78c.27,0,.26-.05,0-.06.27,0,.24.5,0,.48.27,0,.23.61,0,.57.27,0,.21.31-.06.25.27.06.19.29-.07.23.26.06.16.31-.1.23.26.08.15.3-.1.21a.18.18,0,1,1-.13.33.17.17,0,1,1-.14.31c.24.12.08.78-.16.65.24.13.06.16-.17,0,.23.14,0,.54-.18.38.22.16,0,.37-.2.2.21.17,0,.76-.21.58.2.18,0,.49-.23.3.2.19-.05-.09-.24-.29.19.2-.07.9-.25.69.18.21-.09.31-.26.1.17.21-.11.41-.27.19a.17.17,0,1,1-.28.19c.14.23-.16.27-.29,0,.13.23-.18.62-.3.37.12.25-.2.19-.3-.06.1.25-.22.48-.32.23.1.25-.23.38-.31.12.08.26-.26.32-.33.06.07.26-.27.17-.32-.09,0,.26-.29.32-.34,0,0,.27-.3.21-.33-.06,0,.27-.32.59-.33.32,0,.27-.34,0-.34-.26,0,.27-.35.4-.34.13,0,.27-.36.47-.33.2,0,.27-.38-.16-.34-.43,0,.27-.38.5-.33.23,0,.27-.39.39-.33.13-.06.26-.4-.35-.32-.61-.08.26-.41.32-.32.07-.09.25-.42.46-.31.21-.11.25-.43.06-.31-.19-.12.25-.43-.34-.29-.58-.14.24-.44.28-.29.05-.15.23-.44.26-.28,0-.16.23-.44-.1-.28-.31-.16.21-.43-.37-.26-.58-.17.21-.43.34-.25.14-.18.2-.43-.19-.23-.37-.2.18-.43-.13-.23-.31-.2.18-.43.2-.21,0-.22.17-.42-.21-.2-.37-.22.16-.42-.3-.19-.44-.23.14-.4-.32-.17-.45-.23.13-.4.29-.15.17-.25.12-.39-.71-.14-.82-.25.11-.38,0-.13-.07-.25.09-.37-.46-.11-.54A.18.18,0,1,1,9.92,18c-.26.07-.34-.05-.08-.1-.26.05-.32-.13-.05-.17-.27,0-.32-.7,0-.73-.27,0-.29-.18,0-.19-.27,0-.28-.24,0-.24a.18.18,0,1,1,0-.35c-.27,0-.25-.2,0-.17-.27,0-.22-.36,0-.32-.27,0-.21-.32.05-.26a.19.19,0,1,1,.08-.38c-.26-.07-.17-.51.09-.43-.26-.08-.14-.32.11-.23-.25-.09-.12-.5.13-.39-.25-.11-.11-.29.14-.18-.25-.11-.08-.58.15-.44-.23-.14-.06-.41.17-.27-.23-.14,0-.29.19-.14-.22-.15,0-.91.2-.74-.22-.17,0-.18.21,0-.2-.18,0-.22.23,0-.2-.18.05-.71.24-.51-.19-.2.07-.49.24-.28-.17-.21.1-.31.27-.09-.17-.22.11-.2.27,0-.16-.22.13-.87.28-.64-.15-.23.15.06.29.3-.14-.24.18-.43.29-.19-.11-.24.2-.75.31-.5-.11-.25.22-.23.31,0-.09-.25.24-.32.32-.07-.08-.25.26-.68.32-.42-.06-.26.28-.14.33.13,0-.27.29-.52.33-.25,0-.27.31-.2.34.07,0-.27.32-.26.33,0,0-.27.34-.15.34.12,0-.27.35-.54.33-.27,0-.27.37,0,.34.31,0-.27.38-.08.33.18,0-.26.39-.5.34-.23,0-.27.39.12.32.39.07-.27.41-.15.33.11.08-.26.41-.47.32-.21.09-.26.41.19.31.44.1-.25.42-.26.3,0,.12-.24.43.13.3.37.13-.24.43-.14.29.09.14-.23.44-.46.28-.23.16-.23.44.13.27.34.17-.21.44-.08.26.13.18-.21.44.06.25.25.19-.19.44.24.24.43.2-.19.43.17.23.35.2-.18.42-.25.21-.08.21-.17.42.35.2.51.22-.16.41-.06.18.08.23-.14.41.27.17.4.24-.13.4.3.16.42a.18.18,0,1,1,.14.33c.25-.11.38-.09.13,0,.25-.09.36.73.1.81.26-.08.36,0,.1.07a.17.17,0,1,1,.07.33c.27,0,.33.23.06.27.27,0,.31.44,0,.47.27,0,.3.26,0,.27C23.25,16.28,23.26,16.78,23,16.78Z" transform="translate(0 0)"/><path class="cls-16" d="M22.52,16.67c.26,0,.25.45,0,.44.25,0,.22,0,0-.05.25,0,.21.5,0,.47.25,0,.2.22-.05.17.25.05.17.5-.07.43.24.07.15.5-.09.43.24.07.14.28-.1.19.24.09.12.35-.12.25.24.1.1.54-.13.42.23.12.08.54-.14.42.22.12.05.31-.16.18.21.13,0,.12-.17,0,.2.14,0,.44-.19.29.2.15,0,.38-.2.22.2.16,0,.32-.21.15.19.17,0,.46-.22.28.18.18-.06.66-.23.47.17.19-.09.44-.24.24.15.2-.11.38-.25.17.14.21-.13.34-.26.12.13.22-.15.1-.27-.12.12.22-.17.81-.28.58.11.23-.19.26-.29,0,.1.23-.2.12-.29-.12.09.24-.22.65-.29.41.07.24-.24.24-.3,0,.06.25-.26.11-.31-.14.05.25-.27.46-.31.21,0,.25-.28.22-.31,0,0,.26-.29.21-.31,0,0,.25-.31.57-.31.32,0,.25-.33.16-.31-.09,0,.25-.34,0-.32-.23,0,.25-.34.36-.31.11,0,.25-.35.19-.3-.06,0,.25-.37,0-.31-.27-.06.25-.37.13-.3-.11-.07.24-.38.11-.3-.13-.08.24-.39.13-.29-.1-.1.23-.39.47-.28.25-.11.22-.4-.38-.28-.61-.12.23-.4.46-.27.24-.13.22-.4-.35-.26-.56-.14.21-.4.27-.25.07-.15.2-.41-.05-.24-.24-.17.19-.41-.11-.23-.29-.18.18-.41,0-.23-.19-.18.18-.4.23-.21.07-.19.16-.39-.17-.19-.33-.2.16-.4-.2-.19-.34-.21.14-.38-.25-.17-.39-.21.14-.38-.06-.16-.18-.22.12-.37,0-.15-.13-.22.11-.36-.54-.13-.64a.17.17,0,1,1-.11-.33c-.24.09-.34-.15-.1-.23-.24.08-.33.13-.09.07A.18.18,0,1,1,10.3,18c-.25.05-.3-.48-.05-.52-.25,0-.29-.12,0-.14-.25,0-.28-.68,0-.69-.25,0-.26-.3,0-.3-.26,0-.25-.13,0-.12-.25,0-.22-.31,0-.29-.25,0-.21-.13,0-.09-.25,0-.2-.7.05-.65-.25-.05-.17-.32.07-.26a.16.16,0,1,1,.09-.31c-.24-.08-.14-.11.1,0-.24-.09-.12-.56.11-.46-.23-.1-.09-.46.14-.34-.23-.12-.08-.58.14-.46-.22-.12,0-.14.16,0-.21-.13,0-.45.17-.3-.21-.15,0-.36.19-.2-.2-.16,0-.68.19-.52-.19-.16,0-.09.21.09-.18-.18.05-.49.23-.31-.18-.18.06-.45.23-.26-.17-.19.09-.16.24,0-.15-.2.11-.45.25-.24-.14-.21.13-.46.26-.25-.13-.21.15-.53.27-.31-.12-.22.17-.3.28-.08-.11-.22.18-.52.28-.28-.1-.24.21-.25.29,0-.08-.24.23-.41.3-.16-.07-.25.24-.35.3-.11-.06-.24.26-.26.31,0,0-.25.27-.19.3.06,0-.25.29-.09.31.17,0-.26.3-.55.32-.3,0-.25.31-.3.31-.05,0-.25.33-.06.31.19,0-.25.34-.33.31-.08,0-.25.35-.17.31.08,0-.25.36-.37.31-.12.05-.25.37-.08.31.17.06-.25.37-.28.3,0,.07-.24.38.26.29.5.09-.24.39-.49.3-.26.09-.23.39-.09.28.14.11-.23.4-.1.28.12a.16.16,0,1,1,.27.16c.13-.21.4.11.26.31.14-.2.4.13.25.33.15-.2.41-.12.24.07.17-.19.41.17.23.35.18-.18.41,0,.22.14.19-.17.41,0,.21.15.2-.16.4.37.2.53.2-.16.39-.08.19.06.2-.14.38-.17.17,0,.21-.14.38.42.16.54.22-.12.37.32.14.43.23-.11.37.07.13.17.24-.1.36.06.12.14.24-.08.34,0,.1.12.24-.07.33.56.09.63.24-.07.32,0,.07,0,.25-.05.3.46.05.5a.17.17,0,1,1,0,.33c.25,0,.28.1,0,.11.25,0,.26.59,0,.59" transform="translate(0 0)"/><path class="cls-24" d="M22.52,16.67c.26,0,.25.45,0,.44.25,0,.22,0,0-.05.25,0,.21.5,0,.47.25,0,.2.22-.05.17.25.05.17.5-.07.43.24.07.15.5-.09.43.24.07.14.28-.1.19.24.09.12.35-.12.25.24.1.1.54-.13.42.23.12.08.54-.14.42.22.12.05.31-.16.18.21.13,0,.12-.17,0,.2.14,0,.44-.19.29.2.15,0,.38-.2.22.2.16,0,.32-.21.15.19.17,0,.46-.22.28.18.18-.06.66-.23.47.17.19-.09.44-.24.24.15.2-.11.38-.25.17.14.21-.13.34-.26.12.13.22-.15.1-.27-.12.12.22-.17.81-.28.58.11.23-.19.26-.29,0,.1.23-.2.12-.29-.12.09.24-.22.65-.29.41.07.24-.24.24-.3,0,.06.25-.26.11-.31-.14.05.25-.27.46-.31.21,0,.25-.28.22-.31,0,0,.26-.29.21-.31,0,0,.25-.31.57-.31.32,0,.25-.33.16-.31-.09,0,.25-.34,0-.32-.23,0,.25-.34.36-.31.11,0,.25-.35.19-.3-.06,0,.25-.37,0-.31-.27-.06.25-.37.13-.3-.11-.07.24-.38.11-.3-.13-.08.24-.39.13-.29-.1-.1.23-.39.47-.28.25-.11.22-.4-.38-.28-.61-.12.23-.4.46-.27.24-.13.22-.4-.35-.26-.56-.14.21-.4.27-.25.07-.15.2-.41-.05-.24-.24-.17.19-.41-.11-.23-.29-.18.18-.41,0-.23-.19-.18.18-.4.23-.21.07-.19.16-.39-.17-.19-.33-.2.16-.4-.2-.19-.34-.21.14-.38-.25-.17-.39-.21.14-.38-.06-.16-.18-.22.12-.37,0-.15-.13-.22.11-.36-.54-.13-.64a.17.17,0,1,1-.11-.33c-.24.09-.34-.15-.1-.23-.24.08-.33.13-.09.07A.18.18,0,1,1,10.3,18c-.25.05-.3-.48-.05-.52-.25,0-.29-.12,0-.14-.25,0-.28-.68,0-.69-.25,0-.26-.3,0-.3-.26,0-.25-.13,0-.12-.25,0-.22-.31,0-.29-.25,0-.21-.13,0-.09-.25,0-.2-.7.05-.65-.25-.05-.17-.32.07-.26a.16.16,0,1,1,.09-.31c-.24-.08-.14-.11.1,0-.24-.09-.12-.56.11-.46-.23-.1-.09-.46.14-.34-.23-.12-.08-.58.14-.46-.22-.12,0-.14.16,0-.21-.13,0-.45.17-.3-.21-.15,0-.36.19-.2-.2-.16,0-.68.19-.52-.19-.16,0-.09.21.09-.18-.18.05-.49.23-.31-.18-.18.06-.45.23-.26-.17-.19.09-.16.24,0-.15-.2.11-.45.25-.24-.14-.21.13-.46.26-.25-.13-.21.15-.53.27-.31-.12-.22.17-.3.28-.08-.11-.22.18-.52.28-.28-.1-.24.21-.25.29,0-.08-.24.23-.41.3-.16-.07-.25.24-.35.3-.11-.06-.24.26-.26.31,0,0-.25.27-.19.3.06,0-.25.29-.09.31.17,0-.26.3-.55.32-.3,0-.25.31-.3.31-.05,0-.25.33-.06.31.19,0-.25.34-.33.31-.08,0-.25.35-.17.31.08,0-.25.36-.37.31-.12.05-.25.37-.08.31.17.06-.25.37-.28.3,0,.07-.24.38.26.29.5.09-.24.39-.49.3-.26.09-.23.39-.09.28.14.11-.23.4-.1.28.12a.16.16,0,1,1,.27.16c.13-.21.4.11.26.31.14-.2.4.13.25.33.15-.2.41-.12.24.07.17-.19.41.17.23.35.18-.18.41,0,.22.14.19-.17.41,0,.21.15.2-.16.4.37.2.53.2-.16.39-.08.19.06.2-.14.38-.17.17,0,.21-.14.38.42.16.54.22-.12.37.32.14.43.23-.11.37.07.13.17.24-.1.36.06.12.14.24-.08.34,0,.1.12.24-.07.33.56.09.63.24-.07.32,0,.07,0,.25-.05.3.46.05.5a.17.17,0,1,1,0,.33c.25,0,.28.1,0,.11C22.77,16.07,22.78,16.67,22.52,16.67Z" transform="translate(0 0)"/><path class="cls-12" d="M20.4,16.71c.16,0,.16.06,0,.05.17,0,.15.35,0,.34.16,0,.14,0,0,0,.17,0,.13.27,0,.23a.11.11,0,1,1-.05.21c.16,0,.1.22-.06.17.16,0,.09.25-.06.19.15.06.07.53-.08.46.15.07.06.05-.08,0,.14.07,0,.19-.1.11.14.08,0,.26-.1.17.14.09,0,.33-.12.24.14.09,0,.25-.12.15.13.1,0,.25-.13.14.13.11,0,.47-.14.36.12.11,0,.14-.14,0,.11.12-.05.46-.15.33.1.13-.06.17-.16,0,.1.14-.07.21-.17.07.1.14-.08.17-.17,0,.09.14-.1.27-.18.12.08.15-.1.43-.18.28.08.15-.12.05-.18-.1.06.15-.14.44-.19.29,0,.15-.15,0-.2-.18.05.16-.15.47-.2.31.05.16-.16.19-.2,0,0,.17-.17.11-.2-.05,0,.16-.18.31-.2.14,0,.17-.2-.08-.21-.25,0,.17-.2.27-.2.1,0,.17-.21.13-.21,0,0,.17-.22.33-.2.16,0,.17-.23-.09-.2-.25,0,.16-.24.08-.21-.08,0,.16-.24.11-.2-.05,0,.16-.24.2-.19.05-.05.15-.26.21-.2.06-.06.15-.25-.14-.19-.29-.06.15-.26.13-.19,0-.07.15-.26.28-.18.13-.08.15-.26-.2-.17-.34-.09.14-.27.09-.17-.05-.1.14-.27-.05-.17-.18-.1.13-.27,0-.16-.11-.11.13-.27-.1-.15-.22-.12.12-.27,0-.15-.11-.12.11-.26.09-.13,0-.13.11-.26,0-.13-.1-.13.1-.26-.27-.13-.36-.13.09-.25.07-.11,0-.14.09-.25-.26-.1-.34-.15.08-.25-.14-.1-.22-.15.08-.24.07-.08,0-.16.06-.23-.06-.08-.12-.15.06-.22-.23-.07-.28-.15.05-.21-.22-.05-.26-.16,0-.21-.16,0-.2-.16,0-.2,0,0,0-.17,0-.19-.49,0-.51-.16,0-.18,0,0,0-.16,0-.17-.29,0-.29-.17,0-.16,0,0,0-.16,0-.14-.4,0-.38-.16,0-.14-.32,0-.3-.17,0-.13-.17,0-.14-.16,0-.11-.32,0-.28-.16,0-.1-.22.05-.17-.15,0-.08-.22.07-.16-.15-.06-.08-.14.08-.07-.16-.07-.07-.22.08-.14a.12.12,0,1,1,.1-.21c-.15-.08,0-.41.1-.33l.11.07c-.13-.09,0-.56.13-.46-.13-.1,0,0,.13.1-.13-.11,0-.51.13-.39-.12-.12,0-.06.15.06-.11-.12,0-.25.15-.12-.11-.13.06-.2.16-.07-.1-.13.07-.47.17-.33-.1-.14.08-.18.17,0-.09-.14.09-.1.17,0-.08-.14.11-.48.19-.33-.08-.15.12-.32.18-.16-.06-.16.13-.07.19.09-.06-.16.15-.07.2.09-.05-.16.15-.48.19-.32,0-.16.17-.2.2,0,0-.16.18-.21.21,0,0-.16.18,0,.2.22,0-.17.2-.2.2,0,0-.17.21-.14.21,0,0-.16.21-.28.2-.11,0-.17.23-.34.21-.17,0-.17.23.06.2.22,0-.16.24-.18.2,0,0-.16.25-.08.2.08.05-.16.25,0,.2.11.05-.16.25-.07.2.09,0-.16.25-.15.19,0,.06-.15.26-.09.18.06.08-.15.26,0,.18.14.08-.14.27-.2.18-.06.09-.14.27,0,.17.14.1-.14.27.14.17.27.1-.13.26-.15.16,0,.1-.12.26.15.15.27.11-.12.26,0,.14.08.12-.11.27.18.14.29.13-.11.26-.12.13,0,.13-.1.26.23.12.33.14-.1.26,0,.12.08.14-.08.24,0,.1.11.14-.08.24.17.1.24a.1.1,0,1,1,.08.18c.15-.06.23,0,.08.11.15-.06.22.14.06.19.16,0,.22.27.06.31.16,0,.21,0,.05,0,.16,0,.2.46,0,.48.17,0,.19.05,0,.06.16,0,.18.37,0,.37.17,0,.17.17,0,.17" transform="translate(0 0)"/><path class="cls-25" d="M20.4,16.71c.16,0,.16.06,0,.05.17,0,.15.35,0,.34.16,0,.14,0,0,0,.17,0,.13.27,0,.23a.11.11,0,1,1-.05.21c.16,0,.1.22-.06.17.16,0,.09.25-.06.19.15.06.07.53-.08.46.15.07.06.05-.08,0,.14.07,0,.19-.1.11.14.08,0,.26-.1.17.14.09,0,.33-.12.24.14.09,0,.25-.12.15.13.1,0,.25-.13.14.13.11,0,.47-.14.36.12.11,0,.14-.14,0,.11.12-.05.46-.15.33.1.13-.06.17-.16,0,.1.14-.07.21-.17.07.1.14-.08.17-.17,0,.09.14-.1.27-.18.12.08.15-.1.43-.18.28.08.15-.12.05-.18-.1.06.15-.14.44-.19.29,0,.15-.15,0-.2-.18.05.16-.15.47-.2.31.05.16-.16.19-.2,0,0,.17-.17.11-.2-.05,0,.16-.18.31-.2.14,0,.17-.2-.08-.21-.25,0,.17-.2.27-.2.1,0,.17-.21.13-.21,0,0,.17-.22.33-.2.16,0,.17-.23-.09-.2-.25,0,.16-.24.08-.21-.08,0,.16-.24.11-.2-.05,0,.16-.24.2-.19.05-.05.15-.26.21-.2.06-.06.15-.25-.14-.19-.29-.06.15-.26.13-.19,0-.07.15-.26.28-.18.13-.08.15-.26-.2-.17-.34-.09.14-.27.09-.17-.05-.1.14-.27-.05-.17-.18-.1.13-.27,0-.16-.11-.11.13-.27-.1-.15-.22-.12.12-.27,0-.15-.11-.12.11-.26.09-.13,0-.13.11-.26,0-.13-.1-.13.1-.26-.27-.13-.36-.13.09-.25.07-.11,0-.14.09-.25-.26-.1-.34-.15.08-.25-.14-.1-.22-.15.08-.24.07-.08,0-.16.06-.23-.06-.08-.12-.15.06-.22-.23-.07-.28-.15.05-.21-.22-.05-.26-.16,0-.21-.16,0-.2-.16,0-.2,0,0,0-.17,0-.19-.49,0-.51-.16,0-.18,0,0,0-.16,0-.17-.29,0-.29-.17,0-.16,0,0,0-.16,0-.14-.4,0-.38-.16,0-.14-.32,0-.3-.17,0-.13-.17,0-.14-.16,0-.11-.32,0-.28-.16,0-.1-.22.05-.17-.15,0-.08-.22.07-.16-.15-.06-.08-.14.08-.07-.16-.07-.07-.22.08-.14a.12.12,0,1,1,.1-.21c-.15-.08,0-.41.1-.33l.11.07c-.13-.09,0-.56.13-.46-.13-.1,0,0,.13.1-.13-.11,0-.51.13-.39-.12-.12,0-.06.15.06-.11-.12,0-.25.15-.12-.11-.13.06-.2.16-.07-.1-.13.07-.47.17-.33-.1-.14.08-.18.17,0-.09-.14.09-.1.17,0-.08-.14.11-.48.19-.33-.08-.15.12-.32.18-.16-.06-.16.13-.07.19.09-.06-.16.15-.07.2.09-.05-.16.15-.48.19-.32,0-.16.17-.2.2,0,0-.16.18-.21.21,0,0-.16.18,0,.2.22,0-.17.2-.2.2,0,0-.17.21-.14.21,0,0-.16.21-.28.2-.11,0-.17.23-.34.21-.17,0-.17.23.06.2.22,0-.16.24-.18.2,0,0-.16.25-.08.2.08.05-.16.25,0,.2.11.05-.16.25-.07.2.09,0-.16.25-.15.19,0,.06-.15.26-.09.18.06.08-.15.26,0,.18.14.08-.14.27-.2.18-.06.09-.14.27,0,.17.14.1-.14.27.14.17.27.1-.13.26-.15.16,0,.1-.12.26.15.15.27.11-.12.26,0,.14.08.12-.11.27.18.14.29.13-.11.26-.12.13,0,.13-.1.26.23.12.33.14-.1.26,0,.12.08.14-.08.24,0,.1.11.14-.08.24.17.1.24a.1.1,0,1,1,.08.18c.15-.06.23,0,.08.11.15-.06.22.14.06.19.16,0,.22.27.06.31.16,0,.21,0,.05,0,.16,0,.2.46,0,.48.17,0,.19.05,0,.06.16,0,.18.37,0,.37C20.56,16.54,20.56,16.71,20.4,16.71Z" transform="translate(0 0)"/><path class="cls-19" d="M19.8,16.53c.14,0,.14.13,0,.12.14,0,.12.33,0,.31.14,0,.12.13,0,.11.14,0,.11.36,0,.33.14,0,.1.05,0,0,.14,0,.09.28-.05.23.14.05.08.11-.05.06.13.05.06.41-.07.36.13.05.06.16-.07.09.13.07,0,.19-.08.12.12.07,0,.16-.09.08.12.08,0,.19-.1.11.12.08,0,.26-.1.17.11.09,0,.35-.11.26a.09.09,0,1,1-.12.14c.1.1,0,.23-.12.13.09.1,0,.17-.13.06.09.11-.05.14-.14,0,.09.11-.06.3-.14.19.08.11-.07.11-.14,0,.07.12-.09.31-.16.19.07.12-.09.17-.15.05.06.12-.1.12-.16,0,.06.13-.11.33-.16.2a.09.09,0,1,1-.17.07c.05.13-.13.17-.17,0,0,.14-.14.08-.17-.06,0,.14-.15.24-.17.1,0,.14-.16.08-.17-.07,0,.15-.17.28-.18.14,0,.14-.17.16-.17,0,0,.14-.18.15-.18,0,0,.14-.18,0-.17-.12,0,.14-.19.23-.17.09,0,.14-.2.2-.18.06,0,.14-.2-.07-.17-.21,0,.14-.21.24-.16.11-.05.13-.22-.18-.17-.31-.05.13-.22.14-.16,0-.06.13-.22,0-.16-.12-.06.12-.22.12-.16,0-.06.13-.22,0-.15-.14-.07.12-.22.19-.14.08-.08.11-.23-.07-.14-.18-.09.11-.23.08-.14,0-.09.11-.23-.12-.13-.22-.1.1-.23,0-.12-.09-.11.1-.23-.09-.12-.18-.11.09-.22.09-.11,0-.11.08-.22-.29-.1-.37-.12.08-.22-.07-.1-.15-.12.08-.21-.07-.09-.14-.12.07-.21,0-.08-.05-.13.06-.2-.11-.07-.17-.13.06-.2-.21-.07-.26-.13.05-.19,0-.06-.05-.13,0-.18-.13,0-.16-.14,0-.18-.13,0-.16-.14,0-.17-.21,0-.23-.14,0-.17-.26,0-.27-.14,0-.15-.08,0-.09-.14,0-.14-.26,0-.26a.09.09,0,1,1,0-.18c-.14,0-.13-.15,0-.14a.1.1,0,1,1,0-.19c-.14,0-.11,0,0,0-.14,0-.1-.43,0-.4-.14,0-.09-.19,0-.15-.13,0-.07,0,.06.09-.13-.05-.06-.3.07-.24-.13-.06-.06-.3.07-.23-.13-.07,0-.16.08-.09-.12-.07,0-.17.09-.09-.12-.08,0-.37.1-.29-.12-.08,0-.14.1,0-.11-.09,0-.24.11-.14-.11-.1,0-.2.12-.1-.1-.1,0-.33.12-.23-.1-.1,0-.21.13-.1-.09-.11.05-.09.14,0-.09-.11.06-.25.14-.13-.08-.12.07-.44.14-.32-.07-.12.09-.24.15-.11-.06-.13.1.06.16.18-.06-.12.1-.36.16-.23-.06-.13.11-.09.16,0-.05-.13.12-.19.17,0-.05-.14.13-.34.16-.21,0-.13.15,0,.17.14,0-.14.15-.18.18,0,0-.14.16-.27.17-.13,0-.14.17-.23.17-.09,0-.14.18,0,.18.17,0-.14.18-.29.17-.15,0-.14.19.06.18.2,0-.14.19-.21.17-.07,0-.14.2-.23.17-.09,0-.14.21-.1.17,0,0-.13.22.14.17.28.05-.14.22-.22.17-.09.05-.13.22,0,.16.09.06-.13.22-.06.16.06.06-.12.22.06.16.18.06-.12.22-.12.15,0,.07-.12.22.08.14.19.08-.11.23-.18.14-.06.09-.12.23.07.14.18.09-.11.22-.1.13,0,.09-.1.22.21.12.31.1-.1.23-.08.12,0,.11-.09.22,0,.11.07.11-.09.22.14.1.22.12-.08.22,0,.1.05.12-.07.21.34.09.41.12-.07.21,0,.08,0,.13-.06.2.23.07.29.13-.06.2-.16.07-.11.13,0,.19.24.05.29.14-.05.19.23.05.27.14,0,.18,0,0,.05.14,0,.17.24,0,.26.14,0,.16.07,0,.08.14,0,.16.17,0,.18.14,0,.14.12,0,.12" transform="translate(0 0)"/><path class="cls-26" d="M19.8,16.53c.14,0,.14.13,0,.12.14,0,.12.33,0,.31.14,0,.12.13,0,.11.14,0,.11.36,0,.33.14,0,.1.05,0,0,.14,0,.09.28-.05.23.14.05.08.11-.05.06.13.05.06.41-.07.36.13.05.06.16-.07.09.13.07,0,.19-.08.12.12.07,0,.16-.09.08.12.08,0,.19-.1.11.12.08,0,.26-.1.17.11.09,0,.35-.11.26a.09.09,0,1,1-.12.14c.1.1,0,.23-.12.13.09.1,0,.17-.13.06.09.11-.05.14-.14,0,.09.11-.06.3-.14.19.08.11-.07.11-.14,0,.07.12-.09.31-.16.19.07.12-.09.17-.15.05.06.12-.1.12-.16,0,.06.13-.11.33-.16.2a.09.09,0,1,1-.17.07c.05.13-.13.17-.17,0,0,.14-.14.08-.17-.06,0,.14-.15.24-.17.1,0,.14-.16.08-.17-.07,0,.15-.17.28-.18.14,0,.14-.17.16-.17,0,0,.14-.18.15-.18,0,0,.14-.18,0-.17-.12,0,.14-.19.23-.17.09,0,.14-.2.2-.18.06,0,.14-.2-.07-.17-.21,0,.14-.21.24-.16.11-.05.13-.22-.18-.17-.31-.05.13-.22.14-.16,0-.06.13-.22,0-.16-.12-.06.12-.22.12-.16,0-.06.13-.22,0-.15-.14-.07.12-.22.19-.14.08-.08.11-.23-.07-.14-.18-.09.11-.23.08-.14,0-.09.11-.23-.12-.13-.22-.1.1-.23,0-.12-.09-.11.1-.23-.09-.12-.18-.11.09-.22.09-.11,0-.11.08-.22-.29-.1-.37-.12.08-.22-.07-.1-.15-.12.08-.21-.07-.09-.14-.12.07-.21,0-.08-.05-.13.06-.2-.11-.07-.17-.13.06-.2-.21-.07-.26-.13.05-.19,0-.06-.05-.13,0-.18-.13,0-.16-.14,0-.18-.13,0-.16-.14,0-.17-.21,0-.23-.14,0-.17-.26,0-.27-.14,0-.15-.08,0-.09-.14,0-.14-.26,0-.26a.09.09,0,1,1,0-.18c-.14,0-.13-.15,0-.14a.1.1,0,1,1,0-.19c-.14,0-.11,0,0,0-.14,0-.1-.43,0-.4-.14,0-.09-.19,0-.15-.13,0-.07,0,.06.09-.13-.05-.06-.3.07-.24-.13-.06-.06-.3.07-.23-.13-.07,0-.16.08-.09-.12-.07,0-.17.09-.09-.12-.08,0-.37.1-.29-.12-.08,0-.14.1,0-.11-.09,0-.24.11-.14-.11-.1,0-.2.12-.1-.1-.1,0-.33.12-.23-.1-.1,0-.21.13-.1-.09-.11.05-.09.14,0-.09-.11.06-.25.14-.13-.08-.12.07-.44.14-.32-.07-.12.09-.24.15-.11-.06-.13.1.06.16.18-.06-.12.1-.36.16-.23-.06-.13.11-.09.16,0-.05-.13.12-.19.17,0-.05-.14.13-.34.16-.21,0-.13.15,0,.17.14,0-.14.15-.18.18,0,0-.14.16-.27.17-.13,0-.14.17-.23.17-.09,0-.14.18,0,.18.17,0-.14.18-.29.17-.15,0-.14.19.06.18.2,0-.14.19-.21.17-.07,0-.14.2-.23.17-.09,0-.14.21-.1.17,0,0-.13.22.14.17.28.05-.14.22-.22.17-.09.05-.13.22,0,.16.09.06-.13.22-.06.16.06.06-.12.22.06.16.18.06-.12.22-.12.15,0,.07-.12.22.08.14.19.08-.11.23-.18.14-.06.09-.12.23.07.14.18.09-.11.22-.1.13,0,.09-.1.22.21.12.31.1-.1.23-.08.12,0,.11-.09.22,0,.11.07.11-.09.22.14.1.22.12-.08.22,0,.1.05.12-.07.21.34.09.41.12-.07.21,0,.08,0,.13-.06.2.23.07.29.13-.06.2-.16.07-.11.13,0,.19.24.05.29.14-.05.19.23.05.27.14,0,.18,0,0,.05.14,0,.17.24,0,.26.14,0,.16.07,0,.08.14,0,.16.17,0,.18C19.94,16.4,19.94,16.53,19.8,16.53Z" transform="translate(0 0)"/><path class="cls-21" d="M21.44,15.46a4.6,4.6,0,0,1,1.74-.53,4.73,4.73,0,0,1-1.61.85,4.94,4.94,0,0,1-1.74.53,4.73,4.73,0,0,1,1.61-.85" transform="translate(0 0)"/><path class="cls-21" d="M17.24,11.29a6,6,0,0,1,1.09-2,6.25,6.25,0,0,1-.68,2.22,6.27,6.27,0,0,1-1.09,2,6,6,0,0,1,.68-2.22" transform="translate(0 0)"/><path class="cls-21" d="M12.05,13.33c-.88-.88-1.53-1.67-1.44-1.75s.87.56,1.75,1.44,1.53,1.66,1.44,1.75-.87-.56-1.75-1.44" transform="translate(0 0)"/><path class="cls-21" d="M10.81,16.55a6.54,6.54,0,0,1-2.17-1.16,6.46,6.46,0,0,1,2.35.72,6.42,6.42,0,0,1,2.17,1.15,6.62,6.62,0,0,1-2.35-.71" transform="translate(0 0)"/><path class="cls-21" d="M14.06,21a5.37,5.37,0,0,1-.92,1.73,5.18,5.18,0,0,1,.57-1.88,5.37,5.37,0,0,1,.92-1.73A5.18,5.18,0,0,1,14.06,21" transform="translate(0 0)"/><path class="cls-21" d="M19,20.81a6.38,6.38,0,0,1,.71,2.35A6.63,6.63,0,0,1,18.6,21a6.44,6.44,0,0,1-.72-2.34A6.56,6.56,0,0,1,19,20.81" transform="translate(0 0)"/><path class="cls-21" d="M21.9,16.27a4.75,4.75,0,0,1,1.52.81,4.71,4.71,0,0,1-1.65-.5,4.58,4.58,0,0,1-1.51-.8,4.31,4.31,0,0,1,1.64.49" transform="translate(0 0)"/><path class="cls-27" d="M70.79,24.07a.48.48,0,0,1-.13.33.46.46,0,0,1-.35.14H67.25a.07.07,0,0,0-.07.07v7.13a.45.45,0,0,1-.14.33.45.45,0,0,1-.34.14h-1a.45.45,0,0,1-.34-.14.49.49,0,0,1-.14-.33V19.91a.5.5,0,0,1,.14-.35.45.45,0,0,1,.34-.14h4.63a.46.46,0,0,1,.35.14.49.49,0,0,1,.13.35Zm-1.9-3.18a0,0,0,0,0,0-.05H67.25s-.07,0-.07.05v.36a.07.07,0,0,0,.07.07h1.59s0,0,0-.07Zm-1.71,2.16a.06.06,0,0,0,.07.07h1.59s0,0,0-.07v-.39s0-.06,0-.06H67.25s-.07,0-.07.06Zm7.54,5.66a.46.46,0,0,1-.15.34.45.45,0,0,1-.33.14h-.82s-.06,0-.06.07v2.22a.44.44,0,0,1-.14.34.47.47,0,0,1-.35.15h-.81a.45.45,0,0,1-.34-.15.47.47,0,0,1-.13-.34V29.26a.07.07,0,0,0-.07-.07h-.85a.07.07,0,0,0-.08.06,4.63,4.63,0,0,1-1.36,2.69.49.49,0,0,1-.36.12.61.61,0,0,1-.35-.17,6.91,6.91,0,0,0-.57-.51.32.32,0,0,1-.13-.28.41.41,0,0,1,.13-.29,3.18,3.18,0,0,0,.89-1.56s0-.06,0-.06h-.67a.48.48,0,0,1-.48-.48V28a.48.48,0,0,1,.14-.34.46.46,0,0,1,.34-.15h.75a0,0,0,0,0,.05-.05v-.69a0,0,0,0,0-.05,0h-.56a.47.47,0,0,1-.35-.15.44.44,0,0,1-.14-.34v-.61a.44.44,0,0,1,.14-.34.47.47,0,0,1,.35-.15H74a.45.45,0,0,1,.35.15.44.44,0,0,1,.14.34v.61a.44.44,0,0,1-.14.34.45.45,0,0,1-.35.15h-.61s-.06,0-.06,0v.69s0,.05.06.05h.82a.43.43,0,0,1,.33.15.45.45,0,0,1,.15.34ZM70.66,27.5s0,.05.06.05h.8s.07,0,.07-.05v-.69s0,0-.07,0h-.8s-.06,0-.06,0Zm6.08-8.08a.42.42,0,0,1,.34.14.5.5,0,0,1,.14.35v10a3.7,3.7,0,0,1-.15,1.19,1.26,1.26,0,0,1-.56.67,4,4,0,0,1-1.92.37.52.52,0,0,1-.35-.14.58.58,0,0,1-.21-.34,7.86,7.86,0,0,0-.31-1.08.3.3,0,0,1,.3-.42h.92a.28.28,0,0,0,.22-.07.32.32,0,0,0,.06-.22V24.65a.06.06,0,0,0-.07-.07H72a.42.42,0,0,1-.34-.14.47.47,0,0,1-.14-.33v-4.2a.5.5,0,0,1,.14-.35.42.42,0,0,1,.34-.14Zm-1.52,1.47s0-.05-.07-.05H73.51a0,0,0,0,0-.05.05v.36s0,.07.05.07h1.64a.06.06,0,0,0,.07-.07Zm-1.76,2.2c0,.05,0,.07.05.07h1.64s.07,0,.07-.07v-.43s0-.06-.07-.06H73.51s-.05,0-.05.06Z" transform="translate(0 0)"/><path class="cls-27" d="M91.31,30.19a.46.46,0,0,1,.48.48v.59a.47.47,0,0,1-.13.34.48.48,0,0,1-.35.14H85.75s0,0,0,.05a.41.41,0,0,1-.4.4H84.23a.45.45,0,0,1-.34-.15.45.45,0,0,1-.14-.33V26.84s0,0,0,0h0l-.16.17a.43.43,0,0,1-.34.15.54.54,0,0,1-.35-.16c-.32-.32-.61-.59-.87-.82h0l0,0v5.54a.48.48,0,0,1-.13.34.5.5,0,0,1-.35.14h-1a.48.48,0,0,1-.35-.14.46.46,0,0,1-.15-.34V25.46s0,0,0,0,0,0,0,0l-.32.38a.28.28,0,0,1-.28.1.27.27,0,0,1-.22-.18,11.57,11.57,0,0,0-.64-1.27.73.73,0,0,1-.08-.33v-.07a.72.72,0,0,1,.16-.38,14,14,0,0,0,2.55-4.27.46.46,0,0,1,.25-.28.48.48,0,0,1,.37,0l1,.31a.43.43,0,0,1,.28.23A.47.47,0,0,1,83,20c-.32.79-.68,1.55-1.07,2.3a.28.28,0,0,0,0,.12v3.2a0,0,0,0,0,0,0s0,0,0,0a8.72,8.72,0,0,0,2.2-3s0-.06,0-.06h-.36a.42.42,0,0,1-.33-.14.45.45,0,0,1-.15-.35V19.84a.47.47,0,0,1,.15-.35.45.45,0,0,1,.33-.14h.88a.52.52,0,0,1,.35.14.5.5,0,0,1,.14.35v1c0,.05,0,.07,0,.07h1c.05,0,.07,0,.07-.07V19.49a.46.46,0,0,1,.48-.48h1a.45.45,0,0,1,.34.13.48.48,0,0,1,.14.35v1.32c0,.05,0,.07.07.07h1.15a.06.06,0,0,0,.07-.07v-1a.49.49,0,0,1,.13-.35.48.48,0,0,1,.34-.14h1a.48.48,0,0,1,.34.14.47.47,0,0,1,.15.35v2.24a.45.45,0,0,1-.15.35.44.44,0,0,1-.34.14H88.13v0l1.07.23a.37.37,0,0,1,.25.21.33.33,0,0,1,0,.32l-.18.35s0,.05,0,.05h1.83a.48.48,0,0,1,.48.48v.59a.48.48,0,0,1-.14.34.49.49,0,0,1-.34.14H89.05a.05.05,0,0,0-.06.06v.52c0,.05,0,.07.06.07h1.72a.48.48,0,0,1,.34.14.46.46,0,0,1,.14.34v.47a.48.48,0,0,1-.14.34.45.45,0,0,1-.34.15H89.05s-.06,0-.06.05V28a.05.05,0,0,0,.06.06h1.72a.48.48,0,0,1,.34.14.5.5,0,0,1,.14.35V29a.48.48,0,0,1-.14.35.45.45,0,0,1-.34.15H89.05s-.06,0-.06,0v.56c0,.05,0,.07.06.07Zm-6.24-7.62s0,0,0,0l.68.19A.44.44,0,0,1,86,23a.38.38,0,0,1,0,.36c0,.1-.1.21-.16.33s0,.05,0,.05h1.29a.08.08,0,0,0,.08-.07,7.41,7.41,0,0,0,.27-1.05s0-.06,0-.06ZM87,26s.06,0,.06-.07v-.52A.05.05,0,0,0,87,25.3H85.75s0,0,0,.06v.52c0,.05,0,.07,0,.07Zm0,2.11a.05.05,0,0,0,.06-.06v-.56s0-.05-.06-.05H85.75s0,0,0,.05V28s0,.06,0,.06Zm-1.24,1.45s0,0,0,0v.56c0,.05,0,.07,0,.07H87s.06,0,.06-.07v-.56s0,0-.06,0Z" transform="translate(0 0)"/><path class="cls-27" d="M100.39,31.5l-.13,0a.64.64,0,0,1-.28-.07.8.8,0,0,1-.33-.28L98.9,30a.32.32,0,0,1,0-.3.29.29,0,0,1,.23-.18c.27,0,.56-.11.88-.19a4,4,0,0,0,2.15-1.23,3.36,3.36,0,0,0,.79-2.25,3.79,3.79,0,0,0-.63-2.23,2.9,2.9,0,0,0-1.77-1.19s-.07,0-.07,0a28.59,28.59,0,0,1-.8,3.55,11,11,0,0,1-1.59,3.41A2.68,2.68,0,0,1,96,30.67a2.58,2.58,0,0,1-2.15-1.23,5.07,5.07,0,0,1-.87-3,5.67,5.67,0,0,1,.5-2.33,6.24,6.24,0,0,1,1.38-1.94,6.54,6.54,0,0,1,2.09-1.32,6.82,6.82,0,0,1,2.59-.49,6.37,6.37,0,0,1,2.38.43A5,5,0,0,1,103.69,22a5.47,5.47,0,0,1,1.15,1.77,6,6,0,0,1,.41,2.21A5.42,5.42,0,0,1,104,29.53a6.22,6.22,0,0,1-3.64,2m-2.91-5.9a20.8,20.8,0,0,0,.71-3.08.05.05,0,0,0,0,0,0,0,0,0,0,0,0,4,4,0,0,0-1.67.93,4.15,4.15,0,0,0-1,1.38,3.4,3.4,0,0,0-.32,1.42,2.79,2.79,0,0,0,.26,1.35A.74.74,0,0,0,96,28c.26,0,.51-.19.74-.59a9.75,9.75,0,0,0,.72-1.85" transform="translate(0 0)"/><path class="cls-27" d="M108,27a.51.51,0,0,1,.22-.33.49.49,0,0,1,.37-.09l1.25.11a.39.39,0,0,1,.3.17.43.43,0,0,1,.07.33,4,4,0,0,0-.1.85,1.13,1.13,0,0,0,.62,1,4.07,4.07,0,0,0,2,.37,21.19,21.19,0,0,0,4.47-.43.43.43,0,0,1,.33.07.36.36,0,0,1,.15.3v1.41a.51.51,0,0,1-.12.38.61.61,0,0,1-.34.21,25.15,25.15,0,0,1-4.4.35,7,7,0,0,1-3.72-.8,2.64,2.64,0,0,1-1.22-2.33A9.49,9.49,0,0,1,108,27m8.15-6.78a.45.45,0,0,1,0-.34.41.41,0,0,1,.23-.25l.41-.18a.68.68,0,0,1,.4,0,.55.55,0,0,1,.32.24q.27.45.6,1.08a.42.42,0,0,1,0,.36.38.38,0,0,1-.24.25l-.6.26a.33.33,0,0,1-.24,0,.37.37,0,0,1-.19-.16s0,0,0,0v.94a.52.52,0,0,1-.14.36.48.48,0,0,1-.34.16c-1.28.09-2.51.14-3.68.14s-2.18,0-3.36-.12a.53.53,0,0,1-.35-.17.5.5,0,0,1-.14-.35V21.17a.43.43,0,0,1,.15-.33.47.47,0,0,1,.34-.11c1,.08,2.06.12,3.35.12s2.41-.05,3.72-.15c0,0,.05,0,0-.05s-.16-.31-.24-.44m1.73-.68a.35.35,0,0,1-.07-.21.5.5,0,0,1,0-.12A.39.39,0,0,1,118,19l.43-.18a.78.78,0,0,1,.22,0,.47.47,0,0,1,.17,0,.61.61,0,0,1,.32.25c.21.32.41.68.61,1.06a.39.39,0,0,1,.06.21.49.49,0,0,1,0,.15.49.49,0,0,1-.25.26l-.42.18a.65.65,0,0,1-.19,0,.63.63,0,0,1-.19,0,.5.5,0,0,1-.29-.26c-.21-.4-.41-.77-.61-1.09" transform="translate(0 0)"/><path class="cls-27" d="M133.71,28.29a.46.46,0,0,1-.14.34.49.49,0,0,1-.34.14h-2.12s0,0,0,.05a3.93,3.93,0,0,0,1,1,5,5,0,0,0,1.44.63.26.26,0,0,1,.2.19.27.27,0,0,1-.06.27,6,6,0,0,0-.61.89.62.62,0,0,1-.31.27.53.53,0,0,1-.39,0,5.1,5.1,0,0,1-2.68-2.14h-.07a6.17,6.17,0,0,1-3,2.07.58.58,0,0,1-.39,0,.66.66,0,0,1-.32-.25,6.64,6.64,0,0,0-.55-.73.29.29,0,0,1-.07-.19.26.26,0,0,1,0-.19.4.4,0,0,1,.16-.12,5,5,0,0,0,2.6-1.7s0-.05,0-.05H126a.5.5,0,0,1-.35-.14.46.46,0,0,1-.14-.34v-.77a.52.52,0,0,1,.14-.35A.5.5,0,0,1,126,27h.67s0,0,0,0a0,0,0,0,0,0,0c-.19-.15-.48-.38-.88-.67h0v0a.31.31,0,0,1-.06.23.29.29,0,0,1-.19.13l-1.2.3a.08.08,0,0,0-.06.08v3a3.24,3.24,0,0,1-.15,1.12,1.22,1.22,0,0,1-.53.62,4.18,4.18,0,0,1-1.8.36h0a.49.49,0,0,1-.34-.14.55.55,0,0,1-.2-.34c-.08-.3-.17-.61-.29-.93a.29.29,0,0,1,0-.3.3.3,0,0,1,.26-.14H122a.49.49,0,0,0,.22-.06.27.27,0,0,0,.06-.2V27.58s0-.07-.07-.06l-.86.22a.5.5,0,0,1-.38-.06.46.46,0,0,1-.21-.31l-.23-1a.52.52,0,0,1,0-.11.49.49,0,0,1,.07-.25.52.52,0,0,1,.3-.21l.69-.15.64-.12a.08.08,0,0,0,.07-.08V23.39s0-.06-.07-.06h-1.08a.46.46,0,0,1-.34-.15.45.45,0,0,1-.14-.33v-.92a.45.45,0,0,1,.14-.33.46.46,0,0,1,.34-.15h1.08s.07,0,.07-.06v-2a.51.51,0,0,1,.13-.35.5.5,0,0,1,.35-.14h1a.49.49,0,0,1,.33.14.47.47,0,0,1,.14.35v2s0,.06.07.06H125a.46.46,0,0,1,.34.15.45.45,0,0,1,.14.33v.92a.45.45,0,0,1-.14.33.46.46,0,0,1-.34.15h-.63s-.07,0-.07.06V25s0,0,.06,0l.78-.18a.43.43,0,0,1,.35.06.47.47,0,0,1,.18.31l0,.19s0,0,0,0h0a6,6,0,0,0,1.23-2.15s0-.06,0-.06l-.73,0a.46.46,0,0,1-.35-.12.54.54,0,0,1-.18-.33l-.08-.85a.45.45,0,0,1,.12-.34.4.4,0,0,1,.33-.15h.6a.08.08,0,0,0,.08-.06,15.17,15.17,0,0,0,.77-2,.5.5,0,0,1,.24-.31.45.45,0,0,1,.36-.06l1.19.26a.37.37,0,0,1,.26.53q-.42.92-.75,1.53s0,.06,0,.06l1.91-.08s0,0,0-.05l-.14-.18-.17-.2a.43.43,0,0,1-.08-.33.34.34,0,0,1,.17-.28l.66-.39a.59.59,0,0,1,.39-.08.58.58,0,0,1,.36.19,19.1,19.1,0,0,1,1.83,2.27.45.45,0,0,1,.09.26.36.36,0,0,1,0,.11.52.52,0,0,1-.22.32l-.79.49a.47.47,0,0,1-.35.05.45.45,0,0,1-.28-.23c0-.07-.09-.14-.13-.22a.1.1,0,0,0-.1,0c-1.2.08-2.51.14-3.92.21h0s0,0,0,0l.42.1a.4.4,0,0,1,.29.2.41.41,0,0,1,0,.36c0,.09-.07.18-.1.28s0,.06,0,.06h4.1a.44.44,0,0,1,.34.14.46.46,0,0,1,.14.34v.76a.48.48,0,0,1-.14.35.45.45,0,0,1-.34.15h-2.19s-.05,0-.05.05v1s0,.05.05.05h2.65a.49.49,0,0,1,.34.14.52.52,0,0,1,.14.35ZM126.82,27a0,0,0,0,0,0,0s0,0,0,0h1.76s.07,0,.07-.05V26s0-.05-.07-.05h-.89a.11.11,0,0,0-.09,0,7.68,7.68,0,0,1-.81,1" transform="translate(0 0)"/><path class="cls-27" d="M138.82,25a.45.45,0,0,1,.36.06.4.4,0,0,1,.18.31l.12.88a.49.49,0,0,1-.09.37.54.54,0,0,1-.32.23l-.39.09-.48.13a.07.07,0,0,0-.06.08v3a3.13,3.13,0,0,1-.15,1.09,1.19,1.19,0,0,1-.52.61,4.06,4.06,0,0,1-1.78.35h0a.48.48,0,0,1-.34-.13.55.55,0,0,1-.21-.34,8.57,8.57,0,0,0-.28-.91.29.29,0,0,1,0-.3.27.27,0,0,1,.26-.12h.76a.29.29,0,0,0,.21-.06.34.34,0,0,0,0-.2V27.62c0-.05,0-.06,0-.05l-.75.19a.49.49,0,0,1-.38-.05.41.41,0,0,1-.21-.31l-.26-1a.37.37,0,0,1,0-.12.48.48,0,0,1,.07-.23.47.47,0,0,1,.3-.21l1.25-.26s0,0,0-.08V23.41c0-.05,0-.07,0-.07h-1a.49.49,0,0,1-.34-.14.45.45,0,0,1-.14-.34V22a.45.45,0,0,1,.14-.34.49.49,0,0,1,.34-.14h1s0,0,0-.07v-2a.49.49,0,0,1,.15-.35.48.48,0,0,1,.34-.14h1a.5.5,0,0,1,.35.14.52.52,0,0,1,.14.35v2c0,.05,0,.07.06.07h1a.15.15,0,0,1,.15.15h0a21.44,21.44,0,0,0,1.16-2.29.61.61,0,0,1,.27-.28.58.58,0,0,1,.39-.06l.92.19a.41.41,0,0,1,.26.21.38.38,0,0,1,0,.33c-.22.45-.57,1.08-1,1.87a.09.09,0,0,0,0,.11,18.25,18.25,0,0,1,1.16,1.93.36.36,0,0,1,0,.35.41.41,0,0,1-.26.24l-.93.3a.47.47,0,0,1-.37,0,.59.59,0,0,1-.26-.28,13.51,13.51,0,0,0-1.3-2.48h0a0,0,0,0,0,0,0v1.11a.46.46,0,0,1-.15.34.48.48,0,0,1-.34.14h-.67s-.06,0-.06.07v1.67s0,.05.06,0Zm7.07.41H146l.22,0a1.15,1.15,0,0,1,.41.08l.54.21a.55.55,0,0,1,.28.26.46.46,0,0,1,.06.23.4.4,0,0,1,0,.15A7.88,7.88,0,0,1,145,30.1a10.94,10.94,0,0,1-4.34,2l-.14,0a.57.57,0,0,1-.53-.35,8.39,8.39,0,0,0-.48-.84.3.3,0,0,1,0-.29.28.28,0,0,1,.22-.19,10,10,0,0,0,2.72-.93s0,0,0-.07a16.55,16.55,0,0,0-1.34-1.05.09.09,0,0,0-.1,0,3.92,3.92,0,0,1-.53.32.48.48,0,0,1-.37.05.58.58,0,0,1-.3-.24,7.61,7.61,0,0,0-.55-.72.37.37,0,0,1-.1-.23.34.34,0,0,1,.2-.32,7,7,0,0,0,3-2.66.76.76,0,0,1,.3-.29.69.69,0,0,1,.4-.06l.44.09,0,0v0A14.25,14.25,0,0,0,142.11,22a.67.67,0,0,1-.16-.42.82.82,0,0,1,.11-.39q.63-1.05,1-1.86a.63.63,0,0,1,.28-.28.51.51,0,0,1,.26-.07h.13l.93.21a.35.35,0,0,1,.26.2.38.38,0,0,1,0,.33c-.21.37-.57,1-1.08,1.81a.11.11,0,0,0,0,.11,16.07,16.07,0,0,1,1.28,1.87.37.37,0,0,1,0,.34.33.33,0,0,1-.24.23l-1,.34s0,0,0,0,0,0,0,0l.07,0a.29.29,0,0,1,.25.19.38.38,0,0,1,0,.33c-.07.11-.13.23-.21.34s0,.05,0,.05Zm-.9,1.68s0-.05,0-.05h-2.18a.16.16,0,0,0-.11.05l-.2.19s0,0,0,.07a11.92,11.92,0,0,1,1.43,1s.07,0,.1,0a5.87,5.87,0,0,0,1-1.3m2.78-3.51a.53.53,0,0,1,0,.2.76.76,0,0,1,0,.15.43.43,0,0,1-.26.25l-.91.34a.48.48,0,0,1-.37,0,.59.59,0,0,1-.28-.26A16.51,16.51,0,0,0,144.61,22a.67.67,0,0,1-.15-.41.69.69,0,0,1,.11-.38c.42-.68.79-1.32,1.09-1.92a.61.61,0,0,1,.29-.28.59.59,0,0,1,.39-.06l1,.22a.32.32,0,0,1,.25.2.36.36,0,0,1,0,.32c-.25.44-.64,1.05-1.17,1.85a.12.12,0,0,0,0,.11,17,17,0,0,1,1.37,1.87" transform="translate(0 0)"/></g></g></g></svg>