<svg xmlns="http://www.w3.org/2000/svg" xmlns:xlink="http://www.w3.org/1999/xlink" viewBox="0 0 160.52 47.89"><defs><style>.cls-1,.cls-13,.cls-15,.cls-17,.cls-18,.cls-20,.cls-22,.cls-23,.cls-24,.cls-25,.cls-26{fill:none;}.cls-2{clip-path:url(#clip-path);}.cls-3{fill:#00a1e9;}.cls-4{fill:#86ba4b;}.cls-5{fill:#7baa4e;}.cls-6{fill:#f0b439;}.cls-7{fill:#e9ac31;}.cls-8{fill:#fdce2c;}.cls-9{fill:#fbc519;}.cls-10{fill:#fac03e;}.cls-11{fill:#f4bb14;}.cls-12{fill:#a16731;}.cls-13,.cls-18,.cls-22,.cls-25{stroke:#a16731;}.cls-13,.cls-15,.cls-17,.cls-18,.cls-20,.cls-22,.cls-23,.cls-24,.cls-25,.cls-26{stroke-miterlimit:10;}.cls-13{stroke-width:0.88px;}.cls-14{fill:#ad6c31;}.cls-15,.cls-23{stroke:#ad6c31;}.cls-15{stroke-width:0.75px;}.cls-16{fill:#b87340;}.cls-17,.cls-24{stroke:#b87340;}.cls-17{stroke-width:0.7px;}.cls-18{stroke-width:0.46px;}.cls-19{fill:#8e552f;}.cls-20,.cls-26{stroke:#8e552f;}.cls-20{stroke-width:0.39px;}.cls-21{fill:#c58e5f;}.cls-22{stroke-width:0.69px;}.cls-23{stroke-width:0.6px;}.cls-24{stroke-width:0.56px;}.cls-25{stroke-width:0.36px;}.cls-26{stroke-width:0.31px;}.cls-27{fill:#fff;}</style><clipPath id="clip-path" transform="translate(0 0)"><rect class="cls-1" width="160.52" height="47.89"/></clipPath></defs><g id="Layer_2" data-name="Layer 2"><g id="Layer_1-2" data-name="Layer 1"><g class="cls-2"><path class="cls-3" d="M157.25,38.64H32.07a3.26,3.26,0,0,1-3.26-3.27V15.94a3.26,3.26,0,0,1,3.26-3.26H157.25a3.27,3.27,0,0,1,3.27,3.26V35.37a3.27,3.27,0,0,1-3.27,3.27" transform="translate(0 0)"/><path class="cls-4" d="M51.16,24.57h0A3.65,3.65,0,0,0,53,29.05c2.45,1.2,5,0,6.52-1.34.08-.07-.44-.05-.35-.11a5.8,5.8,0,0,0,2.19-2c0-.08-.56.13-.48.08a7.13,7.13,0,0,0,1.8-2c0-.08-.38.13-.32,0a5.75,5.75,0,0,0,1-1.63c0-.07-.4.07-.37,0a7.74,7.74,0,0,0,.8-1.67l-.37.06a14.06,14.06,0,0,0,.7-1.74l-.33.09c.15-.75.36-1.56.41-2.1-8.53.81-12.67,3.94-13,7.9" transform="translate(0 0)"/><path class="cls-5" d="M48,21a3.63,3.63,0,0,0,3.17,3.58c2.15-2.73,5.7-5.47,13-7.9v-.1A20.6,20.6,0,0,0,62,16l.24-.25a12.75,12.75,0,0,0-1.87-.16l.22-.3a8.16,8.16,0,0,0-1.85,0c-.08,0,.24-.31.17-.32a5.35,5.35,0,0,0-1.92.18c-.1,0,.28-.27.19-.26a6.92,6.92,0,0,0-2.63.68c-.09,0,.37-.4.28-.39a5.65,5.65,0,0,0-2.8,1.05c-.09.05.16-.41,0-.37C50.27,16.53,48,18.27,48,21" transform="translate(0 0)"/><path class="cls-4" d="M23,29.63h0a2.7,2.7,0,0,0-2.19-2.79,4.47,4.47,0,0,0-4.33,2.31c-.05.07.32,0,.27,0a4.19,4.19,0,0,0-1.13,1.9c0,.06.37-.22.32-.16a5.19,5.19,0,0,0-.84,1.82c0,.07.25-.16.22-.1A4,4,0,0,0,14.89,34s.27-.14.26-.09a5.76,5.76,0,0,0-.22,1.35l.25-.12a9.33,9.33,0,0,0-.13,1.38l.22-.14c.05.56.07,1.18.15,1.57,3.68-5.3,6.32-7.49,7.55-8.32" transform="translate(0 0)"/><path class="cls-5" d="M26,31.49a2.68,2.68,0,0,0-3-1.86c-1.23.83-3.87,3-7.55,8.32a.2.2,0,0,1,0,.07,15.51,15.51,0,0,0,1.66,0l-.12.23A9.39,9.39,0,0,0,18.33,38l-.09.26a5.32,5.32,0,0,0,1.32-.37c.05,0-.11.28-.06.27a4,4,0,0,0,1.32-.53c.07,0-.14.25-.07.23a5.21,5.21,0,0,0,1.71-1c.06-.05-.18.36-.12.33a4.24,4.24,0,0,0,1.77-1.32c.05-.06,0,.31,0,.26A4.46,4.46,0,0,0,26,31.49" transform="translate(0 0)"/><path class="cls-6" d="M50,23.69s1.92-4.3,9.66-2c0,0-5.84,5.33-9.66,2" transform="translate(0 0)"/><path class="cls-7" d="M50,23.65s1.13-2.46,5.67-1.17c0,0-3.44,3.06-5.67,1.17" transform="translate(0 0)"/><path class="cls-6" d="M46.91,20.84A5.5,5.5,0,0,1,48.59,18a7.52,7.52,0,0,1,.84-.68,58.92,58.92,0,0,1,8.23-1.57c-1.55,1.93-3.1,3.87-5.47,4.87a8.24,8.24,0,0,1-1.24.5,5.41,5.41,0,0,1-4-.3" transform="translate(0 0)"/><path class="cls-7" d="M46.88,20.8a3.59,3.59,0,0,1,1.8-2.22,5.55,5.55,0,0,1,1.12-.51c1.27-.75,2.43-.37,3.59-.37-.77.78-1.16,1.17-2.12,2.07a6.53,6.53,0,0,1-1,.68,3.56,3.56,0,0,1-3.44.35" transform="translate(0 0)"/><path class="cls-6" d="M42.48,17.83S39.13,13.34,46,6.63c0,0,2.15,9.17-3.53,11.2" transform="translate(0 0)"/><path class="cls-7" d="M42.44,17.82s-1.9-2.62,2.08-6.58c0,0,1.17,5.35-2.08,6.58" transform="translate(0 0)"/><path class="cls-6" d="M35.24,18.68s-5.19.85-7.8-7.79c0,0,8.56,2.18,7.8,7.79" transform="translate(0 0)"/><path class="cls-7" d="M35.21,18.71s-3,.45-4.58-4.58c0,0,5,1.34,4.58,4.58" transform="translate(0 0)"/><path class="cls-6" d="M32.88,24.45a5.2,5.2,0,0,1-2,1.19,6.77,6.77,0,0,1-1.14.29c-3.71.93-7-.56-9.47-2.74,3.79-.08,7.09-1.93,10.78-.68a5.58,5.58,0,0,1,.69.51,5.91,5.91,0,0,1,1.15,1.43" transform="translate(0 0)"/><path class="cls-7" d="M32.88,24.51a3.46,3.46,0,0,1-1.85.83,4.94,4.94,0,0,1-1.45,0c-1.26-.55-3.16-.51-4.28-1.16,1.89,0,3.42-1.4,5.58-1.21a3.91,3.91,0,0,1,.76.31,3.26,3.26,0,0,1,1.24,1.21" transform="translate(0 0)"/><path class="cls-6" d="M33.47,30.68s-.18,5.53-9.6,6.46c0,0,4-8.38,9.6-6.46" transform="translate(0 0)"/><path class="cls-7" d="M33.5,30.72s-.15,3.18-5.65,3.79c0,0,2.39-4.85,5.65-3.79" transform="translate(0 0)"/><path class="cls-6" d="M37.92,34.35s3.64,5.15-4.31,12.49c0,0-2.13-10.37,4.31-12.49" transform="translate(0 0)"/><path class="cls-7" d="M38,34.37s2.05,3-2.54,7.33c0,0-1.16-6.05,2.54-7.33" transform="translate(0 0)"/><path class="cls-6" d="M40.7,35s4.84,3.43.1,12.41c0,0-5.14-8.51-.1-12.41" transform="translate(0 0)"/><path class="cls-7" d="M40.76,35s2.75,2,.05,7.28c0,0-2.93-5-.05-7.28" transform="translate(0 0)"/><path class="cls-6" d="M45.6,33.2s5.67,0,6.88,9.68c0,0-8.7-3.86-6.88-9.68" transform="translate(0 0)"/><path class="cls-7" d="M45.64,33.18s3.26.06,4,5.68c0,0-5-2.31-4-5.68" transform="translate(0 0)"/><path class="cls-6" d="M48.42,29.07a5.65,5.65,0,0,1,3.26-.94,6.29,6.29,0,0,1,1.12.07c3,.61,4.89,3.33,7.61,4.49-2.33.39-5,.77-7.18.12l-.68-.17a5.89,5.89,0,0,1-4.13-3.57" transform="translate(0 0)"/><path class="cls-7" d="M48.43,29a3.73,3.73,0,0,1,2.93-.41,6.24,6.24,0,0,1,1.2.4c1.26.58,1.65,1.74,2.81,2.52a15.83,15.83,0,0,1-2.9-.19,7.19,7.19,0,0,1-1.2-.16A3.68,3.68,0,0,1,48.43,29" transform="translate(0 0)"/><path class="cls-8" d="M45.45,19.41s-.46-5.68,9.11-7.73c0,0-3.12,9.05-9.11,7.73" transform="translate(0 0)"/><path class="cls-9" d="M45.42,19.37s-.22-3.27,5.35-4.54c0,0-1.89,5.25-5.35,4.54" transform="translate(0 0)"/><path class="cls-8" d="M40.7,16.7a4.41,4.41,0,0,1-.8-1.29,6.63,6.63,0,0,1-.25-.72c-1-3.53.52-7,2.85-9.35.38,3.49,1.93,7.75-.66,10.55a5.62,5.62,0,0,1-.53.44,5.2,5.2,0,0,1-.61.37" transform="translate(0 0)"/><path class="cls-9" d="M40.65,16.69a1.92,1.92,0,0,1-.29-.42A3.51,3.51,0,0,1,40,15a9.08,9.08,0,0,1,1.37-5c.39,1.94,1.55,3.88.23,5.94a3,3,0,0,1-.91.76" transform="translate(0 0)"/><path class="cls-8" d="M37.49,18.26C32.23,18.63,31,13,30.62,8.8a9.75,9.75,0,0,1,.89.43c.26.14.58.31.93.52s.72.45,1.1.72c2.31,1.33,4.32,4.14,4.13,6.94a4.45,4.45,0,0,1-.18.85" transform="translate(0 0)"/><path class="cls-9" d="M37.45,18.29c-3.21-.06-4-2.87-4.42-5.29,2,.81,4,1.61,4.5,4.1a2.71,2.71,0,0,1-.08,1.19" transform="translate(0 0)"/><path class="cls-8" d="M33.2,22.23s-4.58,3.33-11.26-3.71c0,0,9.28-2,11.26,3.71" transform="translate(0 0)"/><path class="cls-9" d="M33.18,22.28s-2.66,1.88-6.61-2.19c0,0,5.42-1.11,6.61,2.19" transform="translate(0 0)"/><path class="cls-8" d="M32.69,29a5.57,5.57,0,0,1-2.08,2.57,9,9,0,0,1-.94.56c-2.59,1.38-5.69.22-8.41.61a11.62,11.62,0,0,1,6.15-4.3,8.5,8.5,0,0,1,1.3-.32,5.4,5.4,0,0,1,4,.88" transform="translate(0 0)"/><path class="cls-9" d="M32.71,29A3.61,3.61,0,0,1,30.6,31a6.49,6.49,0,0,1-1.19.35c-1.17,1-2.33-.55-3.5-.16.39-.78,1.94-1.16,2.28-1.75a7.42,7.42,0,0,1,1-.54,3.58,3.58,0,0,1,3.47.15" transform="translate(0 0)"/><path class="cls-8" d="M34.84,32.07a6.41,6.41,0,0,1-1.39,4.53,11.14,11.14,0,0,1-.88,1,10.51,10.51,0,0,1-6.66,4c1.55-2.71,2.33-5.42,4.06-8,.18-.16.37-.31.57-.46a5.92,5.92,0,0,1,4.3-1.11" transform="translate(0 0)"/><path class="cls-9" d="M34.88,32.11s.32,2-2.07,3.86c-.19.15-.41.3-.65.46a25.71,25.71,0,0,1-2.37,1.3,7.21,7.21,0,0,1,1.64-4.06,3.89,3.89,0,0,1,3.45-1.56" transform="translate(0 0)"/><path class="cls-8" d="M39.83,35.07s4.31,4.29-2,12.57c0,0-3.74-9.49,2-12.57" transform="translate(0 0)"/><path class="cls-9" d="M39.89,35.08s2.44,2.51-1.2,7.38c0,0-2.1-5.55,1.2-7.38" transform="translate(0 0)"/><path class="cls-8" d="M44.31,33.69a6.17,6.17,0,0,1,3,3.45,10,10,0,0,1,.41,1.27c1.06,2.42.29,5.13-.1,7.46-1.55-2.33-3.88-4.65-4.52-7.39,0-.23-.06-.47-.08-.7a5.72,5.72,0,0,1,1.29-4.09" transform="translate(0 0)"/><path class="cls-9" d="M44.37,33.67a3.82,3.82,0,0,1,1.85,2.4,7,7,0,0,1,.25,1.27c0,1.16,0,2.33,0,3.49a7,7,0,0,1-2.08-2.39,6.46,6.46,0,0,1-.5-1.14,3.79,3.79,0,0,1,.49-3.63" transform="translate(0 0)"/><path class="cls-8" d="M48,30.09S53.21,28,58,36.3c0,0-9.41-.21-10-6.21" transform="translate(0 0)"/><path class="cls-9" d="M48.05,30.05s3-1.19,5.85,3.65c0,0-5.48-.19-5.85-3.65" transform="translate(0 0)"/><path class="cls-10" d="M48.53,22.42a5.44,5.44,0,0,1,3.87-2.79l.6-.13c2.06-.42,4.47-1.1,6.53-.42a28.65,28.65,0,0,1-6.48,4.18,5.35,5.35,0,0,1-1.16.21,4.71,4.71,0,0,1-3.36-1" transform="translate(0 0)"/><path class="cls-11" d="M48.52,22.37s.75-1.75,3.64-1.75c.23,0,.46,0,.72,0a7.56,7.56,0,0,1,1.83-.16c-.68.69-1.37,1.72-2.27,1.91a6.15,6.15,0,0,1-.95.4,3.08,3.08,0,0,1-3-.4" transform="translate(0 0)"/><path class="cls-10" d="M44.75,19.45A6.18,6.18,0,0,1,44,15a7.62,7.62,0,0,1,.3-1.11c1.26-2.58,4.74-3.06,5.11-6.35a12.79,12.79,0,0,1-.36,7.25,6.12,6.12,0,0,1-.35.93,7.35,7.35,0,0,1-.52.89,6.13,6.13,0,0,1-3.47,2.89" transform="translate(0 0)"/><path class="cls-11" d="M44.69,19.43a4.78,4.78,0,0,1,.11-4.13,8.62,8.62,0,0,1,.52-.94,8.77,8.77,0,0,1,2.54-2.08,17.79,17.79,0,0,0-.44,2.66c0,.32-.06.64-.11,1a7,7,0,0,1-.56,1.83,3.76,3.76,0,0,1-2.06,1.71" transform="translate(0 0)"/><path class="cls-10" d="M39.41,17.76c-4.19-1.35-5-6.78-3.58-10.3a8.42,8.42,0,0,1,.24-1c.09-.32.19-.63.31-.94.31.62.65,1.22,1,1.82l.53.9c1.18,2.7,3.89,5,2.14,8.51a6.24,6.24,0,0,1-.64,1" transform="translate(0 0)"/><path class="cls-11" d="M39.35,17.77c-3.36-1.36-3-4.85-2.58-7.17,1.16,1.94,3.48,3.49,3.18,6a3.15,3.15,0,0,1-.6,1.16" transform="translate(0 0)"/><path class="cls-10" d="M34.85,20.85a5.5,5.5,0,0,1-3.31,0,8.49,8.49,0,0,1-1-.36c-2.4-1.4-4.73-2.95-5.89-5.66,2.71,1.16,5.81.39,8.37,2.36a6.49,6.49,0,0,1,.9,1,5.28,5.28,0,0,1,1,2.64" transform="translate(0 0)"/><path class="cls-11" d="M34.82,20.9A3.6,3.6,0,0,1,32,20.51a6.17,6.17,0,0,1-1-.69,26.35,26.35,0,0,1-2.45-2.25c1.55,0,2.72-.38,4.24.55a5.14,5.14,0,0,1,1,.67,3.17,3.17,0,0,1,1.11,2.11" transform="translate(0 0)"/><path class="cls-10" d="M33.13,26.36a5.86,5.86,0,0,1-2.58,2.29,8.5,8.5,0,0,1-1.05.42,12.43,12.43,0,0,1-6.58,0l-.74-.18c-.5-.14-1-.3-1.57-.49,0,0,.22-.18.6-.46.19-.14.42-.31.69-.48,3.4-1.35,6.64-3.05,10-2a4.12,4.12,0,0,1,.63.39,5.69,5.69,0,0,1,.61.51" transform="translate(0 0)"/><path class="cls-11" d="M33.14,26.41a3.35,3.35,0,0,1-1.52,1.31,4.67,4.67,0,0,1-1,.35c-1.61.26-3.19.53-4.68-.35,2-.63,3.71-2.84,6.07-2a3.27,3.27,0,0,1,1.11.68" transform="translate(0 0)"/><path class="cls-10" d="M35.88,33.56a6.5,6.5,0,0,1-1,5.62,7,7,0,0,1-.4.6,14.32,14.32,0,0,1-5.16,4.92c1.55-2.71.77-5.81,2.34-8.69.13-.18.28-.36.43-.53a5.61,5.61,0,0,1,3.75-1.92" transform="translate(0 0)"/><path class="cls-11" d="M35.92,33.59s.71,1.81-1.11,4a6.47,6.47,0,0,1-.51.56c-.29.75-1.84,1.14-2.23,1.91.77-.77.39-1.94.51-3.18a8.51,8.51,0,0,1,.48-1.13,3.71,3.71,0,0,1,2.86-2.15" transform="translate(0 0)"/><path class="cls-10" d="M41.35,34.62a5.6,5.6,0,0,1,2,1.69,7.37,7.37,0,0,1,.6.87c1.77,3.35.22,7.22.6,10.71-1.93-2.33-3.87-4.65-4.38-7.47-.06-.24-.11-.49-.15-.74a6.18,6.18,0,0,1,1.29-5.06" transform="translate(0 0)"/><path class="cls-11" d="M41.41,34.6a3.67,3.67,0,0,1,1.51,1.52,4.72,4.72,0,0,1,.44,1A18.17,18.17,0,0,1,43,42.08c-1.55-.78-1.16-2.72-2.15-3.65a5.77,5.77,0,0,1-.25-1.29,3.61,3.61,0,0,1,.77-2.54" transform="translate(0 0)"/><path class="cls-10" d="M47.18,32a5.83,5.83,0,0,1,3.46.65,7.53,7.53,0,0,1,1,.58c2.18,1.75,4.51,4.47,4.89,7.57-2.71-1.94-5.81-2.71-8.14-4.64a4.67,4.67,0,0,1-.41-.58,5.68,5.68,0,0,1-.8-3.58" transform="translate(0 0)"/><path class="cls-11" d="M47.22,32a3.8,3.8,0,0,1,2.89,1,6.27,6.27,0,0,1,.93.93c.45,1.11,2,1.5,2,3.05a18.11,18.11,0,0,0-4.21-1.65,4.69,4.69,0,0,1-.89-.89A3.36,3.36,0,0,1,47.22,32" transform="translate(0 0)"/><path class="cls-10" d="M48.83,26.83A6.31,6.31,0,0,1,53,25.49a23.3,23.3,0,0,1,7.82,3.32c-1.94.78-3.88,1.55-6.18,1.14a12.51,12.51,0,0,1-1.36-.13,5.79,5.79,0,0,1-4.43-3" transform="translate(0 0)"/><path class="cls-11" d="M48.84,26.78A3.63,3.63,0,0,1,51.63,26a5.58,5.58,0,0,1,1.22.26c1.36-.2,1.75,1.35,2.91,1.74-.78.77-1.94.39-2.72.52a6.76,6.76,0,0,1-1.19,0,3.56,3.56,0,0,1-3-1.77" transform="translate(0 0)"/><path class="cls-8" d="M49.85,25.19s2.76-4.26,11.57-.76c0,0-7.48,4.79-11.57.76" transform="translate(0 0)"/><path class="cls-9" d="M49.85,25.14s1.62-2.42,6.79-.44c0,0-4.4,2.74-6.79.44" transform="translate(0 0)"/><path class="cls-12" d="M50.74,26c.4,0,.39.77,0,.75a.29.29,0,1,1,0,.58c.4,0,.34.53-.06.47.4.06.31.24-.08.16.39.08.27,1.32-.12,1.22.39.1.25.14-.13,0,.38.12.21.48-.16.35.37.13.18.6-.19.45.37.15.16,1-.2.78.36.18.12.23-.23,0a.27.27,0,1,1-.25.47c.34.21,0,.85-.28.62.33.23,0,1.08-.29.83.32.25,0,.6-.31.34.3.26,0,.6-.33.33.29.27-.08.08-.35-.21.27.29-.11.72-.37.42.26.3-.14.39-.38.08.24.31-.17.79-.4.46.23.33-.2,1.08-.41.75.21.33-.24.41-.43.06.19.35-.26.84-.44.48.18.36-.29,0-.45-.4.16.37-.32,1.24-.46.87.14.37-.34,0-.46-.39a.25.25,0,1,1-.48.13c.1.38-.4.59-.48.2.08.39-.43.43-.49,0,.06.39-.45.24-.49-.16,0,.4-.47,1-.49.62,0,.4-.5-.09-.5-.49,0,.4-.51.29-.49-.11,0,.4-.53.43-.49,0,0,.4-.56.73-.5.34-.06.39-.56,0-.48-.39-.08.39-.58.61-.48.23-.1.38-.6-.27-.48-.65-.12.38-.61.63-.47.25-.14.38-.61.5-.46.13-.15.37-.62.11-.45-.25-.17.36-.63-.23-.43-.57-.2.34-.64,0-.43-.32-.21.34-.64-.06-.41-.38-.23.32-.65.11-.4-.2-.25.31-.64-.21-.38-.51-.26.3-.65-.12-.37-.41-.28.29-.64.09-.35-.18-.29.27-.64.11-.33-.15-.31.26-.63-.36-.32-.6-.31.24-.62.14-.29-.09-.33.23-.61-.19-.27-.4-.34.21-.6-.51-.25-.7a.27.27,0,1,1-.23-.49c-.36.18-.57,0-.21-.17-.36.16-.56-.67-.18-.81-.38.14-.54.21-.16.09-.38.12-.52-1-.14-1.05-.38.1-.5-.36-.11-.44-.39.08-.48,0-.09-.09-.39.06-.45-.95-.06-1-.39,0-.43-.26,0-.28-.4,0-.42-.34,0-.34-.4,0-.38-.13,0-.11a.26.26,0,1,1,0-.51c-.39,0-.33-1,.06-1-.39-.06-.3-.49.09-.41-.39-.08-.27-.89.11-.79a.25.25,0,1,1,.14-.48c-.38-.11-.22-.45.16-.31-.38-.14-.18-.57.18-.42-.36-.15-.15-.51.21-.34-.36-.17-.12-.8.23-.6-.35-.2-.09-.11.25.1-.34-.21-.05-1.29.27-1.06-.32-.23,0,.06.3.3-.32-.24,0-.88.31-.62-.3-.26,0-1,.33-.67-.29-.28.07-.23.35.06-.28-.29.11-1.07.37-.77-.26-.3.14-.62.38-.3-.24-.32.17-.81.4-.49-.23-.32.2-.09.41.25-.21-.34.23-.95.43-.61-.2-.34.26-.75.43-.39-.17-.36.3.05.45.42-.15-.37.32-1.07.46-.7-.14-.37.35-.57.47-.19-.12-.38.38,0,.48.42-.1-.38.4-.9.48-.51-.08-.39.42-.68.48-.28-.06-.4.45-.44.5,0,0-.4.47.29.49.68,0-.39.49-.86.49-.46,0-.4.52,0,.5.38,0-.4.53-1,.49-.56,0-.4.55,0,.49.37.06-.4.57,0,.49.4.08-.39.58-.33.48.06.1-.39.6-.74.48-.36.12-.38.6.2.46.57.14-.37.62-.3.46.07.16-.37.63-.23.45.13.18-.36.63-.15.44.2.19-.35.64,0,.43.33.21-.34.64-.27.41.05.23-.32.64.13.4.45.24-.32.64-.27.38,0,.26-.31.64.2.37.49.27-.29.64.1.35.38.29-.28.63,0,.33.25.3-.26.63.32.31.56.32-.24.62-.13.3.1.32-.23.61.35.27.56.34-.21.6.33.25.53.35-.2.59.71.23.88.36-.17.57-.31.2-.16.37-.15.56.77.19.91.37-.14.54.17.16.29.38-.12.52.06.13.16.39-.1.51.78.12.86.39-.08.48.31.08.37.4-.06.46.86.06.9.4,0,.44.17,0,.19.4,0,.41,0,0,0" transform="translate(0 0)"/><path class="cls-13" d="M50.74,26c.4,0,.39.77,0,.75a.29.29,0,1,1,0,.58c.4,0,.34.53-.06.47.4.06.31.24-.08.16.39.08.27,1.32-.12,1.22.39.1.25.14-.13,0,.38.12.21.48-.16.35.37.13.18.6-.19.45.37.15.16,1-.2.78.36.18.12.23-.23,0a.27.27,0,1,1-.25.47c.34.21,0,.85-.28.62.33.23,0,1.08-.29.83.32.25,0,.6-.31.34.3.26,0,.6-.33.33.29.27-.08.08-.35-.21.27.29-.11.72-.37.42.26.3-.14.39-.38.08.24.31-.17.79-.4.46.23.33-.2,1.08-.41.75.21.33-.24.41-.43.06.19.35-.26.84-.44.48.18.36-.29,0-.45-.4.16.37-.32,1.24-.46.87.14.37-.34,0-.46-.39a.25.25,0,1,1-.48.13c.1.38-.4.59-.48.2.08.39-.43.43-.49,0,.06.39-.45.24-.49-.16,0,.4-.47,1-.49.62,0,.4-.5-.09-.5-.49,0,.4-.51.29-.49-.11,0,.4-.53.43-.49,0,0,.4-.56.73-.5.34-.06.39-.56,0-.48-.39-.08.39-.58.61-.48.23-.1.38-.6-.27-.48-.65-.12.38-.61.63-.47.25-.14.38-.61.5-.46.13-.15.37-.62.11-.45-.25-.17.36-.63-.23-.43-.57-.2.34-.64,0-.43-.32-.21.34-.64-.06-.41-.38-.23.32-.65.11-.4-.2-.25.31-.64-.21-.38-.51-.26.3-.65-.12-.37-.41-.28.29-.64.09-.35-.18-.29.27-.64.11-.33-.15-.31.26-.63-.36-.32-.6-.31.24-.62.14-.29-.09-.33.23-.61-.19-.27-.4-.34.21-.6-.51-.25-.7a.27.27,0,1,1-.23-.49c-.36.18-.57,0-.21-.17-.36.16-.56-.67-.18-.81-.38.14-.54.21-.16.09-.38.12-.52-1-.14-1.05-.38.1-.5-.36-.11-.44-.39.08-.48,0-.09-.09-.39.06-.45-.95-.06-1-.39,0-.43-.26,0-.28-.4,0-.42-.34,0-.34-.4,0-.38-.13,0-.11a.26.26,0,1,1,0-.51c-.39,0-.33-1,.06-1-.39-.06-.3-.49.09-.41-.39-.08-.27-.89.11-.79a.25.25,0,1,1,.14-.48c-.38-.11-.22-.45.16-.31-.38-.14-.18-.57.18-.42-.36-.15-.15-.51.21-.34-.36-.17-.12-.8.23-.6-.35-.2-.09-.11.25.1-.34-.21-.05-1.29.27-1.06-.32-.23,0,.06.3.3-.32-.24,0-.88.31-.62-.3-.26,0-1,.33-.67-.29-.28.07-.23.35.06-.28-.29.11-1.07.37-.77-.26-.3.14-.62.38-.3-.24-.32.17-.81.4-.49-.23-.32.2-.09.41.25-.21-.34.23-.95.43-.61-.2-.34.26-.75.43-.39-.17-.36.3.05.45.42-.15-.37.32-1.07.46-.7-.14-.37.35-.57.47-.19-.12-.38.38,0,.48.42-.1-.38.4-.9.48-.51-.08-.39.42-.68.48-.28-.06-.4.45-.44.5,0,0-.4.47.29.49.68,0-.39.49-.86.49-.46,0-.4.52,0,.5.38,0-.4.53-1,.49-.56,0-.4.55,0,.49.37.06-.4.57,0,.49.4.08-.39.58-.33.48.06.1-.39.6-.74.48-.36.12-.38.6.2.46.57.14-.37.62-.3.46.07.16-.37.63-.23.45.13.18-.36.63-.15.44.2.19-.35.64,0,.43.33.21-.34.64-.27.41.05.23-.32.64.13.4.45.24-.32.64-.27.38,0,.26-.31.64.2.37.49.27-.29.64.1.35.38.29-.28.63,0,.33.25.3-.26.63.32.31.56.32-.24.62-.13.3.1.32-.23.61.35.27.56.34-.21.6.33.25.53.35-.2.59.71.23.88.36-.17.57-.31.2-.16.37-.15.56.77.19.91.37-.14.54.17.16.29.38-.12.52.06.13.16.39-.1.51.78.12.86.39-.08.48.31.08.37.4-.06.46.86.06.9.4,0,.44.17,0,.19C51.13,25.9,51.14,26,50.74,26Z" transform="translate(0 0)"/><path class="cls-14" d="M49.4,26.13c.34,0,.33,1,0,1,.34,0,.31.24,0,.2.35,0,.29.64-.05.58.34.06.26.09-.07,0,.33.07.23.92-.1.83.33.09.21.44-.12.34.33.1.19,0-.13-.09.32.12.15.9-.16.77a.23.23,0,1,1-.18.41c.31.16.1.3-.2.13.3.17.08.68-.22.5.3.18.05.43-.23.23.28.2,0,.7-.25.49.27.21,0,.4-.27.18.26.22,0,.9-.29.66.25.24-.06.49-.3.24.24.25-.09.14-.32-.12.23.26-.12,1.05-.33.78.21.27-.14.41-.34.13.2.28-.17.59-.36.3.19.29-.2.06-.36-.24.16.3-.23.76-.38.45.15.31-.25.78-.39.46.14.32-.27.42-.39.09.12.33-.3.25-.41-.08.11.33-.32.33-.41,0,.09.34-.34.33-.41,0,.07.34-.37.33-.42,0a.22.22,0,1,1-.42.06c0,.34-.41.65-.43.3,0,.35-.43.56-.43.22,0,.34-.44.26-.42-.08,0,.34-.46.44-.43.1,0,.34-.47,0-.42-.3-.05.34-.49.37-.42,0-.07.34-.5.12-.42-.21-.08.33-.51.37-.41,0-.1.33-.52.06-.4-.27-.12.33-.53-.17-.4-.49-.13.32-.53.79-.38.49-.15.3-.55-.49-.38-.79-.17.3-.55.52-.37.23-.18.29-.55-.47-.35-.75-.2.28-.56.06-.35-.22-.21.28-.55.27-.33,0-.22.26-.55-.14-.31-.39-.24.25-.55.08-.31-.16-.24.24-.54.22-.28,0-.26.22-.54-.47-.27-.68-.27.21-.54,0-.25-.21-.29.19-.53,0-.24-.21-.29.18-.51-.21-.21-.38-.3.17-.51-.53-.2-.68-.31.15-.5.05-.18-.08-.32.13-.48-.63-.16-.75-.32.12-.46-.15-.14-.26-.32.11-.45-.15-.11-.23-.34.08-.44-.83-.1-.9-.34.07-.41-.28-.07-.34-.34.06-.4-.54-.06-.58-.34,0-.37.21,0,.19-.34,0-.35-.91,0-.91-.34,0-.33-.33,0-.31-.34,0-.31-.33,0-.29-.34,0-.28-.31.06-.25-.34-.06-.27-.48.07-.41-.34-.07-.24-.47.1-.38-.34-.09-.21-1.09.11-1-.32-.11-.18,0,.14.11-.32-.12-.16-.89.16-.75-.32-.14-.13-.61.18-.46-.31-.15-.1-.15.2,0-.3-.16-.08-.85.21-.67-.29-.18,0-.47.24-.28-.28-.19,0-.24.25,0-.27-.21,0-.58.27-.35-.26-.23,0-1,.29-.77-.25-.23.06-.37.3-.12-.24-.25.09-.57.31-.3-.22-.27.12-.27.33,0-.21-.27.15-1,.35-.74-.2-.29.17-.31.35,0-.18-.29.2-.39.37-.09-.17-.3.23-.64.38-.33-.15-.31.25-.64.38-.33-.13-.31.28.05.4.38-.12-.33.3-.85.4-.53-.1-.32.33-.59.41-.26-.08-.33.35-.52.42-.18-.07-.34.37-.32.42,0-.05-.34.39-.41.42-.07,0-.34.41,0,.43.39,0-.34.42-.66.42-.32a.22.22,0,1,1,.43,0c0-.34.46-.39.43,0,0-.34.47,0,.42.39.05-.34.49-.29.42,0,.07-.33.5-.14.41.19.09-.33.52-.71.41-.38.11-.33.53.16.41.49.12-.33.53-.33.39,0,.14-.31.54,0,.39.33.15-.31.54-.44.38-.14.16-.3.55,0,.37.26.18-.29.55.42.35.71.2-.29.55-.28.34,0,.21-.27.56-.13.33.13.23-.26.56.14.32.39.24-.25.55.45.3.69.25-.24.55-.51.29-.29.26-.22.54.13.27.34.27-.21.53.5.25.69.28-.19.53-.13.24.05a.22.22,0,1,1,.21.38c.3-.16.51.53.2.68.31-.15.49,0,.18.17.31-.14.48.53.16.65.32-.12.46.49.13.59.33-.1.45.08.12.17.33-.09.43.62.1.69.33-.07.41.2.07.25.34,0,.4.05.05.09.35,0,.38.92,0,.94.34,0,.35-.12,0-.12" transform="translate(0 0)"/><path class="cls-15" d="M49.4,26.13c.34,0,.33,1,0,1,.34,0,.31.24,0,.2.35,0,.29.64-.05.58.34.06.26.09-.07,0,.33.07.23.92-.1.83.33.09.21.44-.12.34.33.1.19,0-.13-.09.32.12.15.9-.16.77a.23.23,0,1,1-.18.41c.31.16.1.3-.2.13.3.17.08.68-.22.5.3.18.05.43-.23.23.28.2,0,.7-.25.49.27.21,0,.4-.27.18.26.22,0,.9-.29.66.25.24-.06.49-.3.24.24.25-.09.14-.32-.12.23.26-.12,1.05-.33.78.21.27-.14.41-.34.13.2.28-.17.59-.36.3.19.29-.2.06-.36-.24.16.3-.23.76-.38.45.15.31-.25.78-.39.46.14.32-.27.42-.39.09.12.33-.3.25-.41-.08.11.33-.32.33-.41,0,.09.34-.34.33-.41,0,.07.34-.37.33-.42,0a.22.22,0,1,1-.42.06c0,.34-.41.65-.43.3,0,.35-.43.56-.43.22,0,.34-.44.26-.42-.08,0,.34-.46.44-.43.1,0,.34-.47,0-.42-.3-.05.34-.49.37-.42,0-.07.34-.5.12-.42-.21-.08.33-.51.37-.41,0-.1.33-.52.06-.4-.27-.12.33-.53-.17-.4-.49-.13.32-.53.79-.38.49-.15.3-.55-.49-.38-.79-.17.3-.55.52-.37.23-.18.29-.55-.47-.35-.75-.2.28-.56.06-.35-.22-.21.28-.55.27-.33,0-.22.26-.55-.14-.31-.39-.24.25-.55.08-.31-.16-.24.24-.54.22-.28,0-.26.22-.54-.47-.27-.68-.27.21-.54,0-.25-.21-.29.19-.53,0-.24-.21-.29.18-.51-.21-.21-.38-.3.17-.51-.53-.2-.68-.31.15-.5.05-.18-.08-.32.13-.48-.63-.16-.75-.32.12-.46-.15-.14-.26-.32.11-.45-.15-.11-.23-.34.08-.44-.83-.1-.9-.34.07-.41-.28-.07-.34-.34.06-.4-.54-.06-.58-.34,0-.37.21,0,.19-.34,0-.35-.91,0-.91-.34,0-.33-.33,0-.31-.34,0-.31-.33,0-.29-.34,0-.28-.31.06-.25-.34-.06-.27-.48.07-.41-.34-.07-.24-.47.1-.38-.34-.09-.21-1.09.11-1-.32-.11-.18,0,.14.11-.32-.12-.16-.89.16-.75-.32-.14-.13-.61.18-.46-.31-.15-.1-.15.2,0-.3-.16-.08-.85.21-.67-.29-.18,0-.47.24-.28-.28-.19,0-.24.25,0-.27-.21,0-.58.27-.35-.26-.23,0-1,.29-.77-.25-.23.06-.37.3-.12-.24-.25.09-.57.31-.3-.22-.27.12-.27.33,0-.21-.27.15-1,.35-.74-.2-.29.17-.31.35,0-.18-.29.2-.39.37-.09-.17-.3.23-.64.38-.33-.15-.31.25-.64.38-.33-.13-.31.28.05.4.38-.12-.33.3-.85.4-.53-.1-.32.33-.59.41-.26-.08-.33.35-.52.42-.18-.07-.34.37-.32.42,0-.05-.34.39-.41.42-.07,0-.34.41,0,.43.39,0-.34.42-.66.42-.32a.22.22,0,1,1,.43,0c0-.34.46-.39.43,0,0-.34.47,0,.42.39.05-.34.49-.29.42,0,.07-.33.5-.14.41.19.09-.33.52-.71.41-.38.11-.33.53.16.41.49.12-.33.53-.33.39,0,.14-.31.54,0,.39.33.15-.31.54-.44.38-.14.16-.3.55,0,.37.26.18-.29.55.42.35.71.2-.29.55-.28.34,0,.21-.27.56-.13.33.13.23-.26.56.14.32.39.24-.25.55.45.3.69.25-.24.55-.51.29-.29.26-.22.54.13.27.34.27-.21.53.5.25.69.28-.19.53-.13.24.05a.22.22,0,1,1,.21.38c.3-.16.51.53.2.68.31-.15.49,0,.18.17.31-.14.48.53.16.65.32-.12.46.49.13.59.33-.1.45.08.12.17.33-.09.43.62.1.69.33-.07.41.2.07.25.34,0,.4.05.05.09.35,0,.38.92,0,.94C49.73,26.23,49.74,26.13,49.4,26.13Z" transform="translate(0 0)"/><path class="cls-16" d="M48.81,26.51c.32,0,.31.24,0,.22.32,0,.29.41,0,.38.32,0,.27.63-.05.58.32,0,.24.6-.07.54.31.06.22.28-.09.2.31.08.2.62-.11.53.31.09.17.2-.13.09.3.11.15.67-.14.55.29.12.12.23-.17.09.29.14.1.33-.18.18.28.15.07.79-.21.62.28.17.05.35-.21.16.26.19,0,.44-.24.24.25.2,0,.71-.25.5.24.21,0,.64-.27.42.24.22-.06.49-.28.25.22.24-.08.24-.29,0,.21.24-.11.47-.31.22.2.25-.13,1-.32.77.19.26-.16.23-.33,0,.17.27-.18.3-.34,0,.16.28-.21.75-.35.46.14.29-.23.09-.36-.21.13.3-.26.63-.37.33.11.3-.28.29-.37,0,.09.31-.3.37-.38.06.08.31-.33.54-.39.22.06.32-.34.69-.39.37,0,.32-.36.35-.39,0,0,.32-.38.23-.4-.09,0,.32-.4.3-.4,0,0,.32-.41.33-.39,0,0,.32-.43.22-.4-.1,0,.32-.44.22-.39-.1,0,.32-.46.34-.39,0-.07.31-.47.45-.39.14-.08.31-.48.21-.38-.1-.1.31-.49.21-.38-.09-.11.3-.49.07-.36-.22-.13.29-.5.23-.36-.06-.14.29-.51,0-.35-.23-.16.28-.52-.44-.35-.71-.17.27-.51.53-.33.27-.18.26-.51-.38-.32-.63-.19.25-.51.43-.3.19-.21.24-.52-.4-.3-.63-.22.23-.51-.3-.28-.52-.23.22-.51.41-.26.2-.25.21-.51,0-.25-.2-.26.19-.5-.44-.24-.62-.26.18-.49-.27-.22-.44-.27.17-.48-.25-.2-.4-.28.15-.47.2-.18.06-.29.14-.46-.43-.17-.56-.29.13-.45,0-.15-.15-.3.12-.43-.7-.12-.8-.31.1-.42.2-.11.12-.31.08-.41-.85-.09-.91-.32.06-.39.08-.07,0-.32.05-.37-.3,0-.33-.32,0-.35-1,0-1-.32,0-.33-.22,0-.22a.22.22,0,1,1,0-.43c-.32,0-.29-.59,0-.55-.32,0-.27.16,0,.21-.32-.05-.25-.79.07-.73-.32-.06-.22-.39.09-.31-.31-.08-.2-.4.11-.3-.31-.1-.18-.29.12-.18-.3-.11-.14-1.05.15-.92-.29-.13-.12-.2.17-.05-.29-.15-.1-.74.18-.58-.28-.16-.07-.26.2-.09-.27-.17,0-.66.22-.48-.26-.18,0-.23.24,0-.26-.19,0-.64.25-.43-.25-.21,0-.36.26-.14-.23-.22.06-.55.28-.32-.22-.23.09-.41.3-.17-.21-.24.11-.95.3-.7-.19-.25.14-.21.32,0a.2.2,0,1,1,.33-.21c-.16-.27.19-.86.35-.58-.16-.28.21,0,.35.26-.14-.28.23-.44.36-.15-.13-.29.25-.52.37-.22-.12-.3.27-.61.37-.31-.1-.3.3-.41.38-.1-.08-.31.32-.61.39-.29-.07-.32.34.07.39.38,0-.31.36-.35.39,0,0-.32.38-.46.4-.14,0-.32.39-.54.39-.23,0-.31.42-.36.4,0,0-.32.43.06.4.38,0-.32.44-.27.39,0,0-.31.45-.27.39,0,.06-.31.47-.56.39-.25.08-.31.47-.35.38-.05.09-.3.48.31.37.61.11-.3.5-.48.37-.19.13-.29.5.26.36.55.14-.29.51-.19.35.09.16-.28.51-.2.34.07.17-.27.52-.07.33.19.19-.26.52,0,.32.26.2-.25.52.16.31.41.21-.25.52.15.29.38.23-.23.52,0,.29.19.23-.22.5.21.26.42.24-.21.5.07.25.26.25-.19.5-.4.24-.21.26-.19.49.38.22.55.27-.17.48,0,.2.19.28-.15.47.49.18.63.29-.14.46.38.17.51.29-.13.44,0,.14.11.3-.11.44.05.13.15.31-.1.42.56.11.64.31-.08.4.6.09.66.31-.06.39-.11.07-.06.32,0,.37.8.05.83.32,0,.35-.05,0,0,.32,0,.33.74,0,.74" transform="translate(0 0)"/><path class="cls-17" d="M48.81,26.51c.32,0,.31.24,0,.22.32,0,.29.41,0,.38.32,0,.27.63-.05.58.32,0,.24.6-.07.54.31.06.22.28-.09.2.31.08.2.62-.11.53.31.09.17.2-.13.09.3.11.15.67-.14.55.29.12.12.23-.17.09.29.14.1.33-.18.18.28.15.07.79-.21.62.28.17.05.35-.21.16.26.19,0,.44-.24.24.25.2,0,.71-.25.5.24.21,0,.64-.27.42.24.22-.06.49-.28.25.22.24-.08.24-.29,0,.21.24-.11.47-.31.22.2.25-.13,1-.32.77.19.26-.16.23-.33,0,.17.27-.18.3-.34,0,.16.28-.21.75-.35.46.14.29-.23.09-.36-.21.13.3-.26.63-.37.33.11.3-.28.29-.37,0,.09.31-.3.37-.38.06.08.31-.33.54-.39.22.06.32-.34.69-.39.37,0,.32-.36.35-.39,0,0,.32-.38.23-.4-.09,0,.32-.4.3-.4,0,0,.32-.41.33-.39,0,0,.32-.43.22-.4-.1,0,.32-.44.22-.39-.1,0,.32-.46.34-.39,0-.07.31-.47.45-.39.14-.08.31-.48.21-.38-.1-.1.31-.49.21-.38-.09-.11.3-.49.07-.36-.22-.13.29-.5.23-.36-.06-.14.29-.51,0-.35-.23-.16.28-.52-.44-.35-.71-.17.27-.51.53-.33.27-.18.26-.51-.38-.32-.63-.19.25-.51.43-.3.19-.21.24-.52-.4-.3-.63-.22.23-.51-.3-.28-.52-.23.22-.51.41-.26.2-.25.21-.51,0-.25-.2-.26.19-.5-.44-.24-.62-.26.18-.49-.27-.22-.44-.27.17-.48-.25-.2-.4-.28.15-.47.2-.18.06-.29.14-.46-.43-.17-.56-.29.13-.45,0-.15-.15-.3.12-.43-.7-.12-.8-.31.1-.42.2-.11.12-.31.08-.41-.85-.09-.91-.32.06-.39.08-.07,0-.32.05-.37-.3,0-.33-.32,0-.35-1,0-1-.32,0-.33-.22,0-.22a.22.22,0,1,1,0-.43c-.32,0-.29-.59,0-.55-.32,0-.27.16,0,.21-.32-.05-.25-.79.07-.73-.32-.06-.22-.39.09-.31-.31-.08-.2-.4.11-.3-.31-.1-.18-.29.12-.18-.3-.11-.14-1.05.15-.92-.29-.13-.12-.2.17-.05-.29-.15-.1-.74.18-.58-.28-.16-.07-.26.2-.09-.27-.17,0-.66.22-.48-.26-.18,0-.23.24,0-.26-.19,0-.64.25-.43-.25-.21,0-.36.26-.14-.23-.22.06-.55.28-.32-.22-.23.09-.41.3-.17-.21-.24.11-.95.3-.7-.19-.25.14-.21.32,0a.2.2,0,1,1,.33-.21c-.16-.27.19-.86.35-.58-.16-.28.21,0,.35.26-.14-.28.23-.44.36-.15-.13-.29.25-.52.37-.22-.12-.3.27-.61.37-.31-.1-.3.3-.41.38-.1-.08-.31.32-.61.39-.29-.07-.32.34.07.39.38,0-.31.36-.35.39,0,0-.32.38-.46.4-.14,0-.32.39-.54.39-.23,0-.31.42-.36.4,0,0-.32.43.06.4.38,0-.32.44-.27.39,0,0-.31.45-.27.39,0,.06-.31.47-.56.39-.25.08-.31.47-.35.38-.05.09-.3.48.31.37.61.11-.3.5-.48.37-.19.13-.29.5.26.36.55.14-.29.51-.19.35.09.16-.28.51-.2.34.07.17-.27.52-.07.33.19.19-.26.52,0,.32.26.2-.25.52.16.31.41.21-.25.52.15.29.38.23-.23.52,0,.29.19.23-.22.5.21.26.42.24-.21.5.07.25.26.25-.19.5-.4.24-.21.26-.19.49.38.22.55.27-.17.48,0,.2.19.28-.15.47.49.18.63.29-.14.46.38.17.51.29-.13.44,0,.14.11.3-.11.44.05.13.15.31-.1.42.56.11.64.31-.08.4.6.09.66.31-.06.39-.11.07-.06.32,0,.37.8.05.83.32,0,.35-.05,0,0C49.12,25.75,49.13,26.51,48.81,26.51Z" transform="translate(0 0)"/><path class="cls-12" d="M46.12,26.26c.2,0,.2.36,0,.35.21,0,.19.13,0,.11.21,0,.17.4,0,.37a.15.15,0,1,1-.05.3c.21,0,.15.28-.06.23.21.05.13.52-.07.45.2.07.11,0-.08-.08.19.07.09.54-.1.45.19.09.08.26-.11.16.19.1.06.31-.12.21.18.1.05.16-.13.05.18.11,0,.69-.14.57.17.12,0,.24-.16.11.17.13,0,.19-.16.05.16.14,0,.58-.18.44.15.14,0,.11-.18,0,.14.15-.06.55-.19.39.13.16-.08.12-.21-.05.13.17-.09.46-.2.28.11.18-.11.11-.22-.07.11.18-.12.33-.23.15a.13.13,0,1,1-.23.13c.1.19-.15.54-.23.35.08.19-.17.09-.24-.1.07.19-.19.46-.25.26.06.2-.2.25-.25.05,0,.2-.21.25-.25,0,0,.21-.23.24-.26,0,0,.21-.24.36-.26.15,0,.21-.25-.12-.26-.33,0,.21-.26.62-.26.41,0,.21-.27.09-.26-.12,0,.21-.28.22-.26,0,0,.21-.29.2-.25,0,0,.21-.3-.14-.26-.35,0,.21-.31.18-.25,0-.06.21-.32.13-.25-.07-.07.2-.32.28-.25.08-.07.2-.32,0-.24-.17-.08.2-.33.05-.24-.14-.09.19-.33.15-.23,0-.1.19-.33.07-.22-.11a.13.13,0,1,1-.22-.15c-.12.17-.34-.2-.21-.37-.13.17-.34.31-.2.15-.14.16-.34-.33-.19-.48-.15.15-.34.26-.19.11-.15.15-.33-.09-.17-.22-.16.13-.33,0-.17-.16-.16.13-.32-.38-.15-.5-.17.12-.32,0-.14-.08-.18.11-.32-.07-.14-.17-.18.1-.3-.25-.12-.34-.18.09-.3.12-.1,0-.2.08-.3-.47-.1-.54-.2.07-.29-.12-.09-.18-.2.06-.27,0-.07-.07-.2.06-.26-.3-.06-.35-.2,0-.25-.21,0-.25a.14.14,0,1,1,0-.27.15.15,0,1,1,0-.29c-.21,0-.22-.21,0-.21-.21,0-.2-.39,0-.38-.21,0-.19-.36,0-.34-.21,0-.18-.05,0,0-.21,0-.16-.5,0-.46-.2,0-.14,0,.06.06-.2-.05-.13-.53.07-.46-.2-.07-.11-.52.09-.44-.2-.08-.1-.27.1-.19-.2-.08-.08-.27.1-.17-.18-.1-.06-.16.12-.06-.18-.1,0-.6.14-.49-.18-.11,0-.26.14-.14-.17-.12,0-.34.15-.21-.16-.13,0-.08.17.06-.16-.14,0-.68.17-.53-.15-.15,0-.17.19,0-.15-.16,0-.3.19-.14-.14-.16.07-.31.2-.14-.13-.17.09-.5.21-.33-.12-.17.11-.06.22.12-.11-.18.12-.45.22-.27a.13.13,0,1,1,.23-.12c-.09-.19.16-.52.24-.32-.08-.2.17-.29.24-.09-.07-.2.18-.28.25-.08-.07-.2.19-.29.25-.08-.06-.21.21,0,.25.23,0-.2.22-.17.26,0,0-.21.23-.27.25-.06a.13.13,0,1,1,.26,0c0-.21.26-.21.26,0,0-.21.27-.25.26,0,0-.21.28-.36.26-.15,0-.21.29-.3.26-.1,0-.2.3-.11.26.09,0-.2.3.14.25.35,0-.21.31-.3.25-.1a.13.13,0,1,1,.25.08c.07-.19.32-.08.24.12.08-.2.33-.16.23,0,.1-.19.34.11.23.29.11-.18.34-.16.23,0,.11-.18.34,0,.22.19.12-.17.33.1.2.27.13-.17.34-.29.21-.13.13-.16.33.17.19.32.14-.15.34.24.18.39.16-.15.34,0,.18.17.16-.14.33-.3.16-.17.17-.13.33.37.16.49.17-.12.32.19.14.3.18-.11.31-.07.13,0,.18-.1.31,0,.12.11.19-.09.3.5.11.58.19-.08.29,0,.1,0,.19-.07.28.12.08.18.2-.06.28.31.07.36.21,0,.27.11.06.15.21,0,.25.14.05.17.2,0,.24.53,0,.55.21,0,.23.12,0,.13.21,0,.21.18,0,.18" transform="translate(0 0)"/><path class="cls-18" d="M46.12,26.26c.2,0,.2.36,0,.35.21,0,.19.13,0,.11.21,0,.17.4,0,.37a.15.15,0,1,1-.05.3c.21,0,.15.28-.06.23.21.05.13.52-.07.45.2.07.11,0-.08-.08.19.07.09.54-.1.45.19.09.08.26-.11.16.19.1.06.31-.12.21.18.1.05.16-.13.05.18.11,0,.69-.14.57.17.12,0,.24-.16.11.17.13,0,.19-.16.05.16.14,0,.58-.18.44.15.14,0,.11-.18,0,.14.15-.06.55-.19.39.13.16-.08.12-.21-.05.13.17-.09.46-.2.28.11.18-.11.11-.22-.07.11.18-.12.33-.23.15a.13.13,0,1,1-.23.13c.1.19-.15.54-.23.35.08.19-.17.09-.24-.1.07.19-.19.46-.25.26.06.2-.2.25-.25.05,0,.2-.21.25-.25,0,0,.21-.23.24-.26,0,0,.21-.24.36-.26.15,0,.21-.25-.12-.26-.33,0,.21-.26.62-.26.41,0,.21-.27.09-.26-.12,0,.21-.28.22-.26,0,0,.21-.29.2-.25,0,0,.21-.3-.14-.26-.35,0,.21-.31.18-.25,0-.06.21-.32.13-.25-.07-.07.2-.32.28-.25.08-.07.2-.32,0-.24-.17-.08.2-.33.05-.24-.14-.09.19-.33.15-.23,0-.1.19-.33.07-.22-.11a.13.13,0,1,1-.22-.15c-.12.17-.34-.2-.21-.37-.13.17-.34.31-.2.15-.14.16-.34-.33-.19-.48-.15.15-.34.26-.19.11-.15.15-.33-.09-.17-.22-.16.13-.33,0-.17-.16-.16.13-.32-.38-.15-.5-.17.12-.32,0-.14-.08-.18.11-.32-.07-.14-.17-.18.1-.3-.25-.12-.34-.18.09-.3.12-.1,0-.2.08-.3-.47-.1-.54-.2.07-.29-.12-.09-.18-.2.06-.27,0-.07-.07-.2.06-.26-.3-.06-.35-.2,0-.25-.21,0-.25a.14.14,0,1,1,0-.27.15.15,0,1,1,0-.29c-.21,0-.22-.21,0-.21-.21,0-.2-.39,0-.38-.21,0-.19-.36,0-.34-.21,0-.18-.05,0,0-.21,0-.16-.5,0-.46-.2,0-.14,0,.06.06-.2-.05-.13-.53.07-.46-.2-.07-.11-.52.09-.44-.2-.08-.1-.27.1-.19-.2-.08-.08-.27.1-.17-.18-.1-.06-.16.12-.06-.18-.1,0-.6.14-.49-.18-.11,0-.26.14-.14-.17-.12,0-.34.15-.21-.16-.13,0-.08.17.06-.16-.14,0-.68.17-.53-.15-.15,0-.17.19,0-.15-.16,0-.3.19-.14-.14-.16.07-.31.2-.14-.13-.17.09-.5.21-.33-.12-.17.11-.06.22.12-.11-.18.12-.45.22-.27a.13.13,0,1,1,.23-.12c-.09-.19.16-.52.24-.32-.08-.2.17-.29.24-.09-.07-.2.18-.28.25-.08-.07-.2.19-.29.25-.08-.06-.21.21,0,.25.23,0-.2.22-.17.26,0,0-.21.23-.27.25-.06a.13.13,0,1,1,.26,0c0-.21.26-.21.26,0,0-.21.27-.25.26,0,0-.21.28-.36.26-.15,0-.21.29-.3.26-.1,0-.2.3-.11.26.09,0-.2.3.14.25.35,0-.21.31-.3.25-.1a.13.13,0,1,1,.25.08c.07-.19.32-.08.24.12.08-.2.33-.16.23,0,.1-.19.34.11.23.29.11-.18.34-.16.23,0,.11-.18.34,0,.22.19.12-.17.33.1.2.27.13-.17.34-.29.21-.13.13-.16.33.17.19.32.14-.15.34.24.18.39.16-.15.34,0,.18.17.16-.14.33-.3.16-.17.17-.13.33.37.16.49.17-.12.32.19.14.3.18-.11.31-.07.13,0,.18-.1.31,0,.12.11.19-.09.3.5.11.58.19-.08.29,0,.1,0,.19-.07.28.12.08.18.2-.06.28.31.07.36.21,0,.27.11.06.15.21,0,.25.14.05.17.2,0,.24.53,0,.55.21,0,.23.12,0,.13C46.32,26.07,46.32,26.26,46.12,26.26Z" transform="translate(0 0)"/><path class="cls-19" d="M45.36,26.4c.18,0,.17.21,0,.2.18,0,.16.24,0,.22a.11.11,0,1,1,0,.22c.18,0,.13.14,0,.1.17,0,.12.24-.05.2.17,0,.11.48-.06.43.17.05.09.32-.07.26.16.06.08,0-.09-.07.17.07.07.47-.09.39.16.08.06.08-.1,0,.16.09,0,.58-.11.49.15.09,0,.27-.13.17.15.1,0,.19-.13.08.14.11,0,.28-.14.17.14.11,0,.16-.15,0,.13.12,0,.28-.15.15.12.13,0,.46-.17.32.12.14-.06.15-.17,0,.11.14-.08.47-.18.32.1.15-.09.12-.18,0,.09.15-.11.34-.19.18.08.16-.12.26-.2.1.08.16-.13.05-.2-.12.07.17-.14.27-.21.11a.12.12,0,1,1-.21.09c.06.17-.16.41-.21.24.05.17-.18.27-.22.09,0,.18-.19.05-.21-.13,0,.18-.21.2-.22,0,0,.18-.22.41-.23.23,0,.18-.22.06-.22-.12,0,.18-.23.24-.22.06,0,.18-.24-.09-.22-.27,0,.18-.25.28-.22.1,0,.18-.25,0-.22-.17,0,.17-.26.29-.21.11,0,.18-.27,0-.22-.16-.05.17-.27.07-.21-.1-.06.17-.27.26-.2.09-.07.17-.28-.08-.2-.24-.08.16-.29.06-.2-.09-.09.15-.29.26-.19.1-.1.16-.29-.23-.19-.38-.1.15-.28.25-.18.11-.1.14-.28-.24-.17-.37-.11.13-.28,0-.16-.12-.12.13-.29.06-.16-.07-.13.13-.28-.2-.15-.32-.13.12-.28.11-.14,0-.14.11-.27-.2-.13-.3-.14.1-.27,0-.12-.1-.15.09-.27-.17-.11-.26a.12.12,0,1,1-.11-.21c-.16.08-.25,0-.09-.05-.16.07-.25-.34-.08-.4-.17.06-.24-.07-.07-.13-.17.06-.24,0-.06-.07-.18,0-.23-.41,0-.44-.18,0-.22.12,0,.09-.18,0-.21-.18,0-.2-.18,0-.19-.57,0-.58-.17,0-.18-.14,0-.14-.18,0-.17-.09,0-.08a.12.12,0,1,1,0-.24c-.18,0-.15-.43,0-.4-.18,0-.14-.15,0-.12-.18,0-.13-.16,0-.11-.18-.05-.11-.38.06-.33-.17-.05-.1-.15.07-.09a.12.12,0,1,1,.08-.22.12.12,0,1,1,.09-.22c-.16-.08,0-.21.11-.12-.16-.09,0-.39.11-.3-.15-.09,0-.32.12-.21-.14-.11,0-.41.13-.3-.14-.11,0-.18.14-.06-.13-.12,0-.19.15-.07-.13-.12,0-.19.16-.06-.12-.13.05-.27.16-.14-.11-.13.07-.26.18-.12-.11-.14.07-.41.17-.26-.1-.15.09-.31.19-.16-.1-.15.1-.26.19-.11-.09-.15.12-.14.2,0-.08-.16.13-.35.2-.19-.07-.16.14-.28.2-.11-.06-.17.16-.38.21-.21-.05-.17.17-.25.22-.07,0-.18.18,0,.21.18,0-.18.19-.42.22-.24,0-.18.2-.14.22,0,0-.18.21-.07.22.11,0-.18.22-.09.22.08,0-.17.23-.24.22-.06,0-.18.24-.44.23-.26,0-.18.24-.08.22.09,0-.17.25.05.21.23,0-.18.27-.34.22-.17.05-.17.27.14.21.31.06-.17.28-.24.21-.07.07-.17.28-.07.21.1.07-.17.28,0,.2.14.08-.16.28-.16.2,0,.08-.16.28.21.19.37.09-.16.29-.23.18-.08.11-.15.29-.1.18,0,.11-.14.29,0,.17.12.12-.13.29.06.17.19.12-.13.28.11.15.23.13-.12.29.1.15.21.14-.11.28,0,.14.14.14-.11.28-.07.13,0,.15-.11.28.33.13.42.15-.09.27,0,.11,0,.16-.08.26.09.1.16.16-.07.26.3.09.37.17-.07.25,0,.09.07.16-.06.24.3.07.35.17-.05.23,0,.06,0,.17,0,.22.16.05.19.17,0,.22.37,0,.4.18,0,.2.08,0,.1.17,0,.19.31,0,.32a.14.14,0,0,1,0,.27" transform="translate(0 0)"/><path class="cls-20" d="M45.36,26.4c.18,0,.17.21,0,.2.18,0,.16.24,0,.22a.11.11,0,1,1,0,.22c.18,0,.13.14,0,.1.17,0,.12.24-.05.2.17,0,.11.48-.06.43.17.05.09.32-.07.26.16.06.08,0-.09-.07.17.07.07.47-.09.39.16.08.06.08-.1,0,.16.09,0,.58-.11.49.15.09,0,.27-.13.17.15.1,0,.19-.13.08.14.11,0,.28-.14.17.14.11,0,.16-.15,0,.13.12,0,.28-.15.15.12.13,0,.46-.17.32.12.14-.06.15-.17,0,.11.14-.08.47-.18.32.1.15-.09.12-.18,0,.09.15-.11.34-.19.18.08.16-.12.26-.2.1.08.16-.13.05-.2-.12.07.17-.14.27-.21.11a.12.12,0,1,1-.21.09c.06.17-.16.41-.21.24.05.17-.18.27-.22.09,0,.18-.19.05-.21-.13,0,.18-.21.2-.22,0,0,.18-.22.41-.23.23,0,.18-.22.06-.22-.12,0,.18-.23.24-.22.06,0,.18-.24-.09-.22-.27,0,.18-.25.28-.22.1,0,.18-.25,0-.22-.17,0,.17-.26.29-.21.11,0,.18-.27,0-.22-.16-.05.17-.27.07-.21-.1-.06.17-.27.26-.2.09-.07.17-.28-.08-.2-.24-.08.16-.29.06-.2-.09-.09.15-.29.26-.19.1-.1.16-.29-.23-.19-.38-.1.15-.28.25-.18.11-.1.14-.28-.24-.17-.37-.11.13-.28,0-.16-.12-.12.13-.29.06-.16-.07-.13.13-.28-.2-.15-.32-.13.12-.28.11-.14,0-.14.11-.27-.2-.13-.3-.14.1-.27,0-.12-.1-.15.09-.27-.17-.11-.26a.12.12,0,1,1-.11-.21c-.16.08-.25,0-.09-.05-.16.07-.25-.34-.08-.4-.17.06-.24-.07-.07-.13-.17.06-.24,0-.06-.07-.18,0-.23-.41,0-.44-.18,0-.22.12,0,.09-.18,0-.21-.18,0-.2-.18,0-.19-.57,0-.58-.17,0-.18-.14,0-.14-.18,0-.17-.09,0-.08a.12.12,0,1,1,0-.24c-.18,0-.15-.43,0-.4-.18,0-.14-.15,0-.12-.18,0-.13-.16,0-.11-.18-.05-.11-.38.06-.33-.17-.05-.1-.15.07-.09a.12.12,0,1,1,.08-.22.12.12,0,1,1,.09-.22c-.16-.08,0-.21.11-.12-.16-.09,0-.39.11-.3-.15-.09,0-.32.12-.21-.14-.11,0-.41.13-.3-.14-.11,0-.18.14-.06-.13-.12,0-.19.15-.07-.13-.12,0-.19.16-.06-.12-.13.05-.27.16-.14-.11-.13.07-.26.18-.12-.11-.14.07-.41.17-.26-.1-.15.09-.31.19-.16-.1-.15.1-.26.19-.11-.09-.15.12-.14.2,0-.08-.16.13-.35.2-.19-.07-.16.14-.28.2-.11-.06-.17.16-.38.21-.21-.05-.17.17-.25.22-.07,0-.18.18,0,.21.18,0-.18.19-.42.22-.24,0-.18.2-.14.22,0,0-.18.21-.07.22.11,0-.18.22-.09.22.08,0-.17.23-.24.22-.06,0-.18.24-.44.23-.26,0-.18.24-.08.22.09,0-.17.25.05.21.23,0-.18.27-.34.22-.17.05-.17.27.14.21.31.06-.17.28-.24.21-.07.07-.17.28-.07.21.1.07-.17.28,0,.2.14.08-.16.28-.16.2,0,.08-.16.28.21.19.37.09-.16.29-.23.18-.08.11-.15.29-.1.18,0,.11-.14.29,0,.17.12.12-.13.29.06.17.19.12-.13.28.11.15.23.13-.12.29.1.15.21.14-.11.28,0,.14.14.14-.11.28-.07.13,0,.15-.11.28.33.13.42.15-.09.27,0,.11,0,.16-.08.26.09.1.16.16-.07.26.3.09.37.17-.07.25,0,.09.07.16-.06.24.3.07.35.17-.05.23,0,.06,0,.17,0,.22.16.05.19.17,0,.22.37,0,.4.18,0,.2.08,0,.1.17,0,.19.31,0,.32A.14.14,0,0,1,45.36,26.4Z" transform="translate(0 0)"/><path class="cls-21" d="M47.57,25.22a5.53,5.53,0,0,1,2-.62,5.73,5.73,0,0,1-1.88,1,5.92,5.92,0,0,1-2,.63,5.45,5.45,0,0,1,1.88-1" transform="translate(0 0)"/><path class="cls-21" d="M44,20.41A7.55,7.55,0,0,1,45.29,18a7,7,0,0,1-.8,2.62A7.17,7.17,0,0,1,43.21,23,7.16,7.16,0,0,1,44,20.41" transform="translate(0 0)"/><path class="cls-21" d="M41.39,19.32a5.69,5.69,0,0,1,1-1.95,5.86,5.86,0,0,1-.65,2.12,5.69,5.69,0,0,1-1,2,5.86,5.86,0,0,1,.65-2.12" transform="translate(0 0)"/><path class="cls-21" d="M34,26.07a5.4,5.4,0,0,1-1.82-1,5.62,5.62,0,0,1,2,.6,5.32,5.32,0,0,1,1.82,1,5.52,5.52,0,0,1-2-.61" transform="translate(0 0)"/><path class="cls-21" d="M41.88,32.8a7.47,7.47,0,0,1-.26,2.73,7.11,7.11,0,0,1-.27-2.73,7.15,7.15,0,0,1,.27-2.73,7.52,7.52,0,0,1,.26,2.73" transform="translate(0 0)"/><path class="cls-21" d="M48,25.88a7,7,0,0,1,2.3,1.22,6.81,6.81,0,0,1-2.49-.76,6.72,6.72,0,0,1-2.29-1.22,6.79,6.79,0,0,1,2.48.76" transform="translate(0 0)"/><path class="cls-6" d="M23.44,14.51s1.52-3.4,7.62-1.58c0,0-4.6,4.22-7.62,1.58" transform="translate(0 0)"/><path class="cls-7" d="M23.44,14.48s.89-1.94,4.47-.93c0,0-2.71,2.42-4.47.93" transform="translate(0 0)"/><path class="cls-6" d="M21,12.26A4.38,4.38,0,0,1,22.35,10,5.26,5.26,0,0,1,23,9.49,48,48,0,0,1,29.5,8.24a11.43,11.43,0,0,1-4.31,3.86,5.88,5.88,0,0,1-1,.39A4.21,4.21,0,0,1,21,12.26" transform="translate(0 0)"/><path class="cls-7" d="M21,12.22a2.85,2.85,0,0,1,1.42-1.75,4.82,4.82,0,0,1,.88-.41c1-.59,1.92-.28,2.84-.28-.61.61-.92.92-1.67,1.63a5.81,5.81,0,0,1-.76.54,2.78,2.78,0,0,1-2.71.27" transform="translate(0 0)"/><path class="cls-6" d="M17.53,9.88S14.89,6.33,20.32,1c0,0,1.69,7.25-2.79,8.86" transform="translate(0 0)"/><path class="cls-7" d="M17.49,9.87S16,7.8,19.14,4.67c0,0,.92,4.23-1.65,5.2" transform="translate(0 0)"/><path class="cls-6" d="M11.82,10.55s-4.1.67-6.16-6.16c0,0,6.76,1.72,6.16,6.16" transform="translate(0 0)"/><path class="cls-7" d="M11.79,10.57S9.43,10.93,8.18,7c0,0,3.92,1.06,3.61,3.62" transform="translate(0 0)"/><path class="cls-6" d="M10,15.11a4.27,4.27,0,0,1-1.59.95,6.55,6.55,0,0,1-.9.23A8.18,8.18,0,0,1,0,14.12c3-.06,5.59-1.53,8.5-.54a5.12,5.12,0,0,1,.55.4A4.7,4.7,0,0,1,10,15.11" transform="translate(0 0)"/><path class="cls-7" d="M10,15.16a2.72,2.72,0,0,1-1.46.66,4.24,4.24,0,0,1-1.14,0c-1-.44-2.49-.41-3.38-.92,1.5,0,2.7-1.11,4.41-1a2.63,2.63,0,0,1,.6.25,2.59,2.59,0,0,1,1,.95" transform="translate(0 0)"/><path class="cls-6" d="M10.42,20s-.14,4.37-7.58,5.11c0,0,3.15-6.63,7.58-5.11" transform="translate(0 0)"/><path class="cls-7" d="M10.44,20.08s-.11,2.51-4.45,3c0,0,1.88-3.83,4.45-3" transform="translate(0 0)"/><path class="cls-6" d="M13.93,22.94s2.87,4.08-3.4,9.88c0,0-1.68-8.2,3.4-9.88" transform="translate(0 0)"/><path class="cls-7" d="M14,23s1.61,2.37-2,5.8c0,0-.91-4.79,2-5.8" transform="translate(0 0)"/><path class="cls-6" d="M16.13,23.47s3.81,2.71.08,9.82c0,0-4.06-6.74-.08-9.82" transform="translate(0 0)"/><path class="cls-7" d="M16.17,23.47s2.17,1.59,0,5.77c0,0-2.31-4,0-5.77" transform="translate(0 0)"/><path class="cls-6" d="M20,22s4.48,0,5.43,7.65c0,0-6.86-3.05-5.43-7.65" transform="translate(0 0)"/><path class="cls-7" d="M20,22s2.57.05,3.18,4.5c0,0-4-1.84-3.18-4.5" transform="translate(0 0)"/><path class="cls-6" d="M22.21,18.77A4.5,4.5,0,0,1,24.79,18a7,7,0,0,1,.88.06c2.34.49,3.87,2.63,6,3.55a13.1,13.1,0,0,1-5.67.09,4.56,4.56,0,0,1-.53-.13,4.67,4.67,0,0,1-3.27-2.82" transform="translate(0 0)"/><path class="cls-7" d="M22.23,18.73a2.93,2.93,0,0,1,2.3-.33,5.31,5.31,0,0,1,.95.32c1,.46,1.3,1.38,2.22,2a12.38,12.38,0,0,1-2.28-.15,6,6,0,0,1-1-.12,2.91,2.91,0,0,1-2.24-1.71" transform="translate(0 0)"/><path class="cls-8" d="M19.87,11.13S19.51,6.63,27.06,5c0,0-2.46,7.16-7.19,6.12" transform="translate(0 0)"/><path class="cls-9" d="M19.85,11.1s-.17-2.59,4.22-3.59c0,0-1.49,4.15-4.22,3.59" transform="translate(0 0)"/><path class="cls-8" d="M16.12,9a3.33,3.33,0,0,1-.62-1,5.36,5.36,0,0,1-.2-.57A7.62,7.62,0,0,1,17.54,0c.31,2.76,1.53,6.13-.52,8.35a4.62,4.62,0,0,1-.41.34,4.53,4.53,0,0,1-.49.29" transform="translate(0 0)"/><path class="cls-9" d="M16.09,9a2.21,2.21,0,0,1-.24-.34,3,3,0,0,1-.31-1,7.1,7.1,0,0,1,1.09-4c.3,1.53,1.22,3.06.17,4.7a2.48,2.48,0,0,1-.71.6" transform="translate(0 0)"/><path class="cls-8" d="M13.59,10.21c-4.15.3-5.1-4.15-5.41-7.48,0,0,.27.12.69.34.21.11.46.25.74.42s.56.35.87.57a6.37,6.37,0,0,1,3.26,5.49,3.92,3.92,0,0,1-.15.66" transform="translate(0 0)"/><path class="cls-9" d="M13.56,10.24C11,10.19,10.39,8,10.08,6.06c1.58.63,3.17,1.27,3.54,3.24a2.17,2.17,0,0,1-.06.94" transform="translate(0 0)"/><path class="cls-8" d="M10.21,13.36S6.59,16,1.32,10.42c0,0,7.33-1.61,8.89,2.94" transform="translate(0 0)"/><path class="cls-9" d="M10.19,13.4S8.09,14.88,5,11.67c0,0,4.27-.89,5.21,1.73" transform="translate(0 0)"/><path class="cls-8" d="M9.81,18.68a4.38,4.38,0,0,1-1.65,2,5.18,5.18,0,0,1-.74.45c-2,1.09-4.49.17-6.63.48a9.17,9.17,0,0,1,4.85-3.4,6.18,6.18,0,0,1,1-.25,4.24,4.24,0,0,1,3.14.7" transform="translate(0 0)"/><path class="cls-9" d="M9.82,18.72a2.86,2.86,0,0,1-1.66,1.54,5,5,0,0,1-.94.27c-.93.79-1.84-.43-2.76-.13.31-.61,1.53-.91,1.8-1.38a5.92,5.92,0,0,1,.83-.43,2.8,2.8,0,0,1,2.73.13" transform="translate(0 0)"/><path class="cls-8" d="M11.5,21.14a5.1,5.1,0,0,1-1.09,3.58,7.35,7.35,0,0,1-.7.83,8.29,8.29,0,0,1-5.25,3.13c1.22-2.14,1.83-4.29,3.2-6.3A3.94,3.94,0,0,1,8.11,22a4.64,4.64,0,0,1,3.39-.88" transform="translate(0 0)"/><path class="cls-9" d="M11.53,21.17A3.49,3.49,0,0,1,9.9,24.23a5.63,5.63,0,0,1-.51.36c-.65.41-1.26.72-1.87,1a4.86,4.86,0,0,1,.72-2.37,4.34,4.34,0,0,1,.58-.84,3.06,3.06,0,0,1,2.71-1.24" transform="translate(0 0)"/><path class="cls-8" d="M15.44,23.52s3.4,3.39-1.6,9.93c0,0-2.95-7.5,1.6-9.93" transform="translate(0 0)"/><path class="cls-9" d="M15.48,23.53s1.93,2-.94,5.83c0,0-1.66-4.39.94-5.83" transform="translate(0 0)"/><path class="cls-8" d="M19,22.42a4.88,4.88,0,0,1,2.36,2.74,6.39,6.39,0,0,1,.32,1c.84,1.92.23,4.07-.08,5.91-1.22-1.84-3-3.68-3.56-5.85a5.14,5.14,0,0,1-.06-.55,4.49,4.49,0,0,1,1-3.24" transform="translate(0 0)"/><path class="cls-9" d="M19,22.41a3,3,0,0,1,1.46,1.89,5.47,5.47,0,0,1,.2,1c0,.92,0,1.84,0,2.76A5.46,5.46,0,0,1,19,26.18a4.8,4.8,0,0,1-.39-.9A3,3,0,0,1,19,22.41" transform="translate(0 0)"/><path class="cls-8" d="M21.9,19.58s4.1-1.69,7.87,4.91c0,0-7.43-.17-7.87-4.91" transform="translate(0 0)"/><path class="cls-9" d="M21.93,19.54s2.36-.93,4.61,2.89c0,0-4.32-.15-4.61-2.89" transform="translate(0 0)"/><path class="cls-10" d="M22.31,13.5a4.26,4.26,0,0,1,3.05-2.2l.47-.1c1.62-.33,3.52-.88,5.15-.33a22.4,22.4,0,0,1-5.11,3.3,3.72,3.72,0,0,1-.92.17,3.63,3.63,0,0,1-2.64-.84" transform="translate(0 0)"/><path class="cls-11" d="M22.3,13.47s.59-1.39,2.87-1.39h.57A5.75,5.75,0,0,1,27.18,12c-.54.54-1.08,1.36-1.79,1.51a4.93,4.93,0,0,1-.75.31,2.42,2.42,0,0,1-2.34-.31" transform="translate(0 0)"/><path class="cls-10" d="M19.32,11.16a5,5,0,0,1-.56-3.56A8.75,8.75,0,0,1,19,6.72c1-2,3.75-2.42,4-5a10.2,10.2,0,0,1-.28,5.74,7.28,7.28,0,0,1-.28.73,5.55,5.55,0,0,1-.41.7,4.82,4.82,0,0,1-2.74,2.29" transform="translate(0 0)"/><path class="cls-11" d="M19.28,11.14a3.75,3.75,0,0,1,.08-3.27,7.68,7.68,0,0,1,.41-.74,6.76,6.76,0,0,1,2-1.64,13.33,13.33,0,0,0-.35,2.1c0,.25-.05.51-.09.75a5.28,5.28,0,0,1-.44,1.45,3,3,0,0,1-1.62,1.35" transform="translate(0 0)"/><path class="cls-10" d="M15.1,9.82c-3.3-1.06-3.91-5.36-2.82-8.15.05-.25.12-.5.19-.75a6.59,6.59,0,0,1,.25-.75c.24.49.51,1,.79,1.44.13.24.27.48.41.72.94,2.13,3.08,4,1.7,6.72a4.53,4.53,0,0,1-.52.77" transform="translate(0 0)"/><path class="cls-11" d="M15.06,9.83C12.41,8.75,12.72,6,13,4.16c.92,1.53,2.75,2.76,2.51,4.75a2.44,2.44,0,0,1-.47.92" transform="translate(0 0)"/><path class="cls-10" d="M11.51,12.27a4.34,4.34,0,0,1-2.61,0A5.41,5.41,0,0,1,8.08,12C6.19,10.9,4.35,9.67,3.44,7.53,5.58,8.45,8,7.84,10,9.39a4.83,4.83,0,0,1,.71.79,4.18,4.18,0,0,1,.76,2.09" transform="translate(0 0)"/><path class="cls-11" d="M11.49,12.3A2.85,2.85,0,0,1,9.24,12a5.05,5.05,0,0,1-.81-.55A19.29,19.29,0,0,1,6.5,9.67c1.22,0,2.14-.3,3.34.44a3.4,3.4,0,0,1,.77.53,2.51,2.51,0,0,1,.88,1.66" transform="translate(0 0)"/><path class="cls-10" d="M10.15,16.62a4.5,4.5,0,0,1-2,1.81,5.44,5.44,0,0,1-.84.34,9.81,9.81,0,0,1-5.19,0l-.58-.15c-.39-.1-.81-.23-1.24-.38,0,0,.17-.14.48-.36q.23-.18.54-.39C4,16.43,6.53,15.08,9.17,15.91a5.19,5.19,0,0,1,.5.31,4.63,4.63,0,0,1,.48.4" transform="translate(0 0)"/><path class="cls-11" d="M10.16,16.67a2.69,2.69,0,0,1-1.2,1,3.65,3.65,0,0,1-.77.27A5.15,5.15,0,0,1,4.5,17.7c1.57-.5,2.92-2.25,4.78-1.57a2.5,2.5,0,0,1,.88.54" transform="translate(0 0)"/><path class="cls-10" d="M12.32,22.32a5.16,5.16,0,0,1-.75,4.45l-.32.47a11.29,11.29,0,0,1-4.08,3.89C8.4,29,7.79,26.53,9,24.26a3.54,3.54,0,0,1,.35-.42,4.36,4.36,0,0,1,3-1.52" transform="translate(0 0)"/><path class="cls-11" d="M12.36,22.34a3.29,3.29,0,0,1-.88,3.16,5.49,5.49,0,0,1-.41.44c-.23.59-1.45.9-1.75,1.51.61-.61.3-1.53.4-2.51a5.81,5.81,0,0,1,.38-.89,2.91,2.91,0,0,1,2.26-1.71" transform="translate(0 0)"/><path class="cls-10" d="M16.64,23.16a4.39,4.39,0,0,1,1.61,1.34,6.21,6.21,0,0,1,.47.68c1.4,2.65.17,5.72.48,8.48-1.53-1.84-3.06-3.68-3.46-5.91-.05-.2-.09-.39-.12-.59a4.87,4.87,0,0,1,1-4" transform="translate(0 0)"/><path class="cls-11" d="M16.68,23.15a2.8,2.8,0,0,1,1.2,1.19,3.79,3.79,0,0,1,.34.81A14.11,14.11,0,0,1,18,29.06c-1.22-.62-.91-2.15-1.69-2.89a3.92,3.92,0,0,1-.2-1,2.85,2.85,0,0,1,.6-2" transform="translate(0 0)"/><path class="cls-10" d="M21.23,21.11a4.69,4.69,0,0,1,2.74.51,6.81,6.81,0,0,1,.79.47c1.72,1.38,3.55,3.53,3.86,6-2.14-1.53-4.59-2.15-6.43-3.67a4.73,4.73,0,0,1-.32-.46,4.57,4.57,0,0,1-.64-2.83" transform="translate(0 0)"/><path class="cls-11" d="M21.27,21.08a3,3,0,0,1,2.28.77,5.16,5.16,0,0,1,.74.74c.35.88,1.58,1.19,1.58,2.41a13.76,13.76,0,0,0-3.32-1.3,3.67,3.67,0,0,1-.71-.71,2.66,2.66,0,0,1-.57-1.91" transform="translate(0 0)"/><path class="cls-10" d="M22.54,17A4.39,4.39,0,0,1,25,16a4.85,4.85,0,0,1,.86,0A18.11,18.11,0,0,1,32,18.57a8.56,8.56,0,0,1-4.87.89,7.6,7.6,0,0,1-1.07-.1A4.57,4.57,0,0,1,22.54,17" transform="translate(0 0)"/><path class="cls-11" d="M22.55,17a2.87,2.87,0,0,1,2.2-.59,4.85,4.85,0,0,1,1,.2c1.07-.15,1.38,1.08,2.3,1.38-.62.62-1.53.31-2.15.42a5.91,5.91,0,0,1-.94,0A2.83,2.83,0,0,1,22.55,17" transform="translate(0 0)"/><path class="cls-8" d="M23.35,15.7s2.17-3.37,9.12-.61c0,0-5.9,3.8-9.12.61" transform="translate(0 0)"/><path class="cls-9" d="M23.34,15.66s1.28-1.92,5.36-.35c0,0-3.47,2.17-5.36.35" transform="translate(0 0)"/><path class="cls-12" d="M24.05,16.47c.31,0,.3.37,0,.35.31,0,.28.57,0,.54a.22.22,0,1,1-.05.44c.31.05.24.14-.07.08.31.06.22.84-.08.77.3.07.19.61-.11.51.3.1.17.33-.13.22.3.11.15.16-.14,0,.29.13.12.57-.17.43.29.14.1.37-.18.22.28.15.07.94-.2.78.27.16.05.61-.21.43.26.18,0,.38-.23.19.25.19,0,.32-.25.11.24.21,0,.71-.26.49.23.22-.06.5-.28.27.22.23-.08.51-.29.27.21.24-.11.41-.3.16.19.25-.13.14-.31-.12.18.26-.16,1-.33.71.17.27-.18.43-.33.15.15.28-.21.35-.35.07.14.28-.23.36-.35.07.12.29-.26.57-.37.27.11.3-.27.07-.37-.23.1.3-.29.78-.37.47.08.31-.32.52-.38.21.06.31-.34.32-.38,0,0,.31-.36.06-.39-.26,0,.32-.38.36-.39.05,0,.31-.39.53-.39.22,0,.31-.41,0-.39-.34,0,.31-.42.87-.39.56,0,.31-.44-.36-.39-.67,0,.31-.45.44-.38.14-.07.3-.46.51-.38.21-.08.3-.47,0-.38-.31-.09.3-.48.46-.37.17-.11.29-.48,0-.36-.31-.12.29-.49-.13-.35-.42-.14.29-.5.14-.35-.13-.15.27-.5.06-.34-.21-.16.27-.5.22-.32,0-.18.26-.51.08-.32-.17-.19.25-.5-.21-.3-.45-.2.24-.5,0-.29-.2-.21.23-.5-.24-.27-.46-.23.22-.5.24-.27,0-.23.21-.49-.55-.24-.74-.25.19-.49,0-.23-.19-.26.18-.48.13-.22,0a.2.2,0,1,1-.2-.33c-.27.15-.46-.2-.18-.34-.28.14-.45-.14-.16-.26-.29.12-.44-.4-.15-.51-.29.11-.42-.08-.12-.17-.3.09-.41-.73-.11-.81-.3.08-.39-.23-.09-.3-.3.07-.38-.53-.06-.58-.32,0-.37-.09-.05-.12a.21.21,0,1,1,0-.42c-.32,0-.33-.3,0-.3-.32,0-.31-.39,0-.37-.32,0-.29-.37,0-.34-.32,0-.27-.57.05-.52-.32,0-.24-.29.06-.23-.3-.06-.21-.35.09-.27-.3-.08-.19-.8.11-.71-.3-.09-.17-.68.13-.57-.3-.11-.15-.2.14-.08-.29-.12-.12-.25.16-.11-.28-.14-.09-.58.18-.43-.27-.15-.06-.67.2-.5-.26-.17,0-.64.22-.46a.21.21,0,1,1,.23-.34c-.25-.19,0-.14.25.07-.24-.21,0-.64.26-.42-.23-.22.06-.35.27-.12-.21-.23.09-1,.29-.74-.2-.24.11-.25.3,0-.19-.24.14-.21.32.05-.18-.26.16-.48.32-.21-.16-.27.19-.57.34-.3-.15-.27.21-.9.35-.62-.14-.28.23-.13.35.16-.12-.29.25-.42.36-.13-.11-.29.28-.6.37-.3-.09-.3.3-.3.38,0-.08-.3.31-.65.38-.34-.07-.31.33-.41.38-.1,0-.31.36-.42.39-.11,0-.31.37.17.39.48,0-.31.39-.29.39,0,0-.32.4-.48.39-.16,0-.32.42-.1.39.21,0-.31.43-.77.38-.46,0-.31.45,0,.39.27.06-.31.46-.36.38-.06.08-.3.47,0,.37.33.1-.3.48-.39.37-.1.11-.29.49-.17.37.12.12-.29.49-.06.35.23.14-.29.5,0,.35.23.15-.28.5-.06.33.21.17-.27.51.18.33.44.18-.26.51-.43.31-.18.2-.25.51.07.31.31.2-.24.5.22.28.45.22-.23.51.33.28.55.23-.22.5,0,.26.17.24-.21.5-.23.25,0,.25-.19.49.42.23.6.26-.18.48.14.21.31.27-.17.48,0,.2.17.28-.15.47.61.18.75.29-.14.46.17.17.29.29-.12.44,0,.14.09.3-.1.43.25.13.34.3-.09.41.55.11.63.3-.08.39.06.08.13.31-.07.38.5.07.55.31,0,.36.25.05.28.31,0,.34.67,0,.68h0" transform="translate(0 0)"/><path class="cls-22" d="M24.05,16.47c.31,0,.3.37,0,.35.31,0,.28.57,0,.54a.22.22,0,1,1-.05.44c.31.05.24.14-.07.08.31.06.22.84-.08.77.3.07.19.61-.11.51.3.1.17.33-.13.22.3.11.15.16-.14,0,.29.13.12.57-.17.43.29.14.1.37-.18.22.28.15.07.94-.2.78.27.16.05.61-.21.43.26.18,0,.38-.23.19.25.19,0,.32-.25.11.24.21,0,.71-.26.49.23.22-.06.5-.28.27.22.23-.08.51-.29.27.21.24-.11.41-.3.16.19.25-.13.14-.31-.12.18.26-.16,1-.33.71.17.27-.18.43-.33.15.15.28-.21.35-.35.07.14.28-.23.36-.35.07.12.29-.26.57-.37.27.11.3-.27.07-.37-.23.1.3-.29.78-.37.47.08.31-.32.52-.38.21.06.31-.34.32-.38,0,0,.31-.36.06-.39-.26,0,.32-.38.36-.39.05,0,.31-.39.53-.39.22,0,.31-.41,0-.39-.34,0,.31-.42.87-.39.56,0,.31-.44-.36-.39-.67,0,.31-.45.44-.38.14-.07.3-.46.51-.38.21-.08.3-.47,0-.38-.31-.09.3-.48.46-.37.17-.11.29-.48,0-.36-.31-.12.29-.49-.13-.35-.42-.14.29-.5.14-.35-.13-.15.27-.5.06-.34-.21-.16.27-.5.22-.32,0-.18.26-.51.08-.32-.17-.19.25-.5-.21-.3-.45-.2.24-.5,0-.29-.2-.21.23-.5-.24-.27-.46-.23.22-.5.24-.27,0-.23.21-.49-.55-.24-.74-.25.19-.49,0-.23-.19-.26.18-.48.13-.22,0a.2.2,0,1,1-.2-.33c-.27.15-.46-.2-.18-.34-.28.14-.45-.14-.16-.26-.29.12-.44-.4-.15-.51-.29.11-.42-.08-.12-.17-.3.09-.41-.73-.11-.81-.3.08-.39-.23-.09-.3-.3.07-.38-.53-.06-.58-.32,0-.37-.09-.05-.12a.21.21,0,1,1,0-.42c-.32,0-.33-.3,0-.3-.32,0-.31-.39,0-.37-.32,0-.29-.37,0-.34-.32,0-.27-.57.05-.52-.32,0-.24-.29.06-.23-.3-.06-.21-.35.09-.27-.3-.08-.19-.8.11-.71-.3-.09-.17-.68.13-.57-.3-.11-.15-.2.14-.08-.29-.12-.12-.25.16-.11-.28-.14-.09-.58.18-.43-.27-.15-.06-.67.2-.5-.26-.17,0-.64.22-.46a.21.21,0,1,1,.23-.34c-.25-.19,0-.14.25.07-.24-.21,0-.64.26-.42-.23-.22.06-.35.27-.12-.21-.23.09-1,.29-.74-.2-.24.11-.25.3,0-.19-.24.14-.21.32.05-.18-.26.16-.48.32-.21-.16-.27.19-.57.34-.3-.15-.27.21-.9.35-.62-.14-.28.23-.13.35.16-.12-.29.25-.42.36-.13-.11-.29.28-.6.37-.3-.09-.3.3-.3.38,0-.08-.3.31-.65.38-.34-.07-.31.33-.41.38-.1,0-.31.36-.42.39-.11,0-.31.37.17.39.48,0-.31.39-.29.39,0,0-.32.4-.48.39-.16,0-.32.42-.1.39.21,0-.31.43-.77.38-.46,0-.31.45,0,.39.27.06-.31.46-.36.38-.06.08-.3.47,0,.37.33.1-.3.48-.39.37-.1.11-.29.49-.17.37.12.12-.29.49-.06.35.23.14-.29.5,0,.35.23.15-.28.5-.06.33.21.17-.27.51.18.33.44.18-.26.51-.43.31-.18.2-.25.51.07.31.31.2-.24.5.22.28.45.22-.23.51.33.28.55.23-.22.5,0,.26.17.24-.21.5-.23.25,0,.25-.19.49.42.23.6.26-.18.48.14.21.31.27-.17.48,0,.2.17.28-.15.47.61.18.75.29-.14.46.17.17.29.29-.12.44,0,.14.09.3-.1.43.25.13.34.3-.09.41.55.11.63.3-.08.39.06.08.13.31-.07.38.5.07.55.31,0,.36.25.05.28.31,0,.34.67,0,.68Z" transform="translate(0 0)"/><path class="cls-14" d="M23,16.86c.27,0,.26.17,0,.16.27,0,.24.33,0,.3.27,0,.23.16,0,.12.27,0,.21.64-.06.59.27,0,.19.57-.07.5.26.07.16.34-.1.26.26.08.15.19-.1.1.25.09.12.69-.13.58.25.11.1.26-.14.14.24.12.08.51-.16.38.24.13.06.48-.17.34.23.14,0,0-.18-.14.22.16,0,.73-.2.57.21.16,0,.17-.21,0,.2.18,0,.59-.23.41.2.18-.05.73-.24.53.19.2-.07.19-.25,0,.18.2-.09.49-.26.27.17.22-.11.59-.27.36.16.23-.14,0-.28-.26.14.23-.16.48-.29.24.13.24-.18.39-.3.15.12.24-.2.42-.3.17.1.25-.22.23-.31,0,.09.25-.24.55-.32.29.08.26-.26.54-.33.28.07.26-.27.42-.32.15,0,.27-.29,0-.34-.28,0,.27-.3.6-.33.33,0,.27-.32-.09-.33-.36,0,.27-.34.64-.34.37,0,.27-.35.05-.34-.22,0,.27-.36.47-.33.2,0,.27-.38.1-.34-.17,0,.27-.38.38-.33.11,0,.27-.39.27-.33,0-.06.26-.4.13-.32-.13-.08.26-.41.1-.32-.15-.09.25-.42-.08-.31-.33-.11.25-.43.19-.31-.06-.12.25-.43.1-.29-.14-.14.24-.44,0-.29-.2-.15.24-.44,0-.28-.25-.16.23-.44-.17-.28-.38-.16.21-.43.11-.26-.1-.17.21-.43,0-.25-.22-.18.2-.43.06-.23-.13-.2.19-.43-.23-.23-.41-.2.18-.43.17-.21,0-.22.16-.42-.45-.2-.61-.22.16-.42.2-.19.06-.23.14-.4-.15-.17-.29-.23.14-.4-.06-.15-.18-.25.12-.39-.63-.14-.74-.25.11-.38.2-.13.11-.25.09-.37-.58-.11-.66-.26.08-.35.07-.09,0-.26.07-.34-.45-.08-.51-.26.06-.32-.52-.05-.56-.27,0-.32-.31,0-.33-.27,0-.29-.07,0-.08a.19.19,0,1,1,0-.37.2.2,0,1,1,0-.4c-.27,0-.25-.43,0-.4-.27,0-.22-.5,0-.45-.27-.05-.21-.41.05-.35-.26-.06-.18-.19.08-.13-.26-.06-.17-.29.09-.21-.26-.08-.14-.59.11-.49-.25-.1-.12-.36.13-.25-.25-.11-.11-.61.14-.49-.25-.12-.08-.42.15-.28-.23-.14-.06-.06.17.09-.23-.15,0-.44.19-.28-.22-.16,0-.5.2-.34-.22-.16,0-.69.21-.51-.2-.18,0-.16.23,0-.2-.19.05-.76.24-.56-.19-.2.07,0,.24.19-.17-.21.1-.71.27-.49-.17-.22.11-.26.27,0-.16-.22.13-.64.28-.41-.15-.23.16-.18.29.06-.13-.24.18-.64.29-.4-.11-.24.2-.48.31-.23-.11-.25.22-.36.31-.1-.09-.26.24-.47.32-.21-.08-.26.26-.2.32.06-.06-.26.28-.14.33.13,0-.27.29-.48.33-.21,0-.27.31-.09.34.18,0-.27.32-.31.33,0,0-.27.34-.48.34-.21,0-.27.35-.21.34.06,0-.27.36,0,.33.25,0-.27.38-.44.33-.17,0-.27.39-.39.34-.12,0-.27.39-.22.32,0,.07-.26.41.22.33.48.08-.26.41-.24.32,0,.09-.26.41,0,.31.29.1-.25.42-.57.3-.33.12-.24.43.21.3.45.13-.24.43.09.29.32.14-.23.44-.32.28-.09.16-.23.44.24.27.46.17-.22.44-.47.26-.26.18-.21.44.13.25.32.19-.19.44.35.24.53.2-.18.43-.11.23.07.2-.18.42.35.21.52.21-.17.42-.11.2,0,.22-.15.41,0,.18.1.23-.14.41.55.17.68.24-.13.4.11.16.23.24-.12.39.28.14.39.25-.11.38,0,.13.05.25-.09.36.09.1.17.26-.08.36.45.1.52.26-.07.34.1.07.16.27-.06.33.44.06.48.27,0,.31.42,0,.45.27,0,.3.32,0,.33.27,0,.28.51,0,.51" transform="translate(0 0)"/><path class="cls-23" d="M23,16.86c.27,0,.26.17,0,.16.27,0,.24.33,0,.3.27,0,.23.16,0,.12.27,0,.21.64-.06.59.27,0,.19.57-.07.5.26.07.16.34-.1.26.26.08.15.19-.1.1.25.09.12.69-.13.58.25.11.1.26-.14.14.24.12.08.51-.16.38.24.13.06.48-.17.34.23.14,0,0-.18-.14.22.16,0,.73-.2.57.21.16,0,.17-.21,0,.2.18,0,.59-.23.41.2.18-.05.73-.24.53.19.2-.07.19-.25,0,.18.2-.09.49-.26.27.17.22-.11.59-.27.36.16.23-.14,0-.28-.26.14.23-.16.48-.29.24.13.24-.18.39-.3.15.12.24-.2.42-.3.17.1.25-.22.23-.31,0,.09.25-.24.55-.32.29.08.26-.26.54-.33.28.07.26-.27.42-.32.15,0,.27-.29,0-.34-.28,0,.27-.3.6-.33.33,0,.27-.32-.09-.33-.36,0,.27-.34.64-.34.37,0,.27-.35.05-.34-.22,0,.27-.36.47-.33.2,0,.27-.38.1-.34-.17,0,.27-.38.38-.33.11,0,.27-.39.27-.33,0-.06.26-.4.13-.32-.13-.08.26-.41.1-.32-.15-.09.25-.42-.08-.31-.33-.11.25-.43.19-.31-.06-.12.25-.43.1-.29-.14-.14.24-.44,0-.29-.2-.15.24-.44,0-.28-.25-.16.23-.44-.17-.28-.38-.16.21-.43.11-.26-.1-.17.21-.43,0-.25-.22-.18.2-.43.06-.23-.13-.2.19-.43-.23-.23-.41-.2.18-.43.17-.21,0-.22.16-.42-.45-.2-.61-.22.16-.42.2-.19.06-.23.14-.4-.15-.17-.29-.23.14-.4-.06-.15-.18-.25.12-.39-.63-.14-.74-.25.11-.38.2-.13.11-.25.09-.37-.58-.11-.66-.26.08-.35.07-.09,0-.26.07-.34-.45-.08-.51-.26.06-.32-.52-.05-.56-.27,0-.32-.31,0-.33-.27,0-.29-.07,0-.08a.19.19,0,1,1,0-.37.2.2,0,1,1,0-.4c-.27,0-.25-.43,0-.4-.27,0-.22-.5,0-.45-.27-.05-.21-.41.05-.35-.26-.06-.18-.19.08-.13-.26-.06-.17-.29.09-.21-.26-.08-.14-.59.11-.49-.25-.1-.12-.36.13-.25-.25-.11-.11-.61.14-.49-.25-.12-.08-.42.15-.28-.23-.14-.06-.06.17.09-.23-.15,0-.44.19-.28-.22-.16,0-.5.2-.34-.22-.16,0-.69.21-.51-.2-.18,0-.16.23,0-.2-.19.05-.76.24-.56-.19-.2.07,0,.24.19-.17-.21.1-.71.27-.49-.17-.22.11-.26.27,0-.16-.22.13-.64.28-.41-.15-.23.16-.18.29.06-.13-.24.18-.64.29-.4-.11-.24.2-.48.31-.23-.11-.25.22-.36.31-.1-.09-.26.24-.47.32-.21-.08-.26.26-.2.32.06-.06-.26.28-.14.33.13,0-.27.29-.48.33-.21,0-.27.31-.09.34.18,0-.27.32-.31.33,0,0-.27.34-.48.34-.21,0-.27.35-.21.34.06,0-.27.36,0,.33.25,0-.27.38-.44.33-.17,0-.27.39-.39.34-.12,0-.27.39-.22.32,0,.07-.26.41.22.33.48.08-.26.41-.24.32,0,.09-.26.41,0,.31.29.1-.25.42-.57.3-.33.12-.24.43.21.3.45.13-.24.43.09.29.32.14-.23.44-.32.28-.09.16-.23.44.24.27.46.17-.22.44-.47.26-.26.18-.21.44.13.25.32.19-.19.44.35.24.53.2-.18.43-.11.23.07.2-.18.42.35.21.52.21-.17.42-.11.2,0,.22-.15.41,0,.18.1.23-.14.41.55.17.68.24-.13.4.11.16.23.24-.12.39.28.14.39.25-.11.38,0,.13.05.25-.09.36.09.1.17.26-.08.36.45.1.52.26-.07.34.1.07.16.27-.06.33.44.06.48.27,0,.31.42,0,.45.27,0,.3.32,0,.33C23.25,16.34,23.26,16.86,23,16.86Z" transform="translate(0 0)"/><path class="cls-16" d="M22.52,16.5a.16.16,0,1,1,0,.32c.25,0,.22.43,0,.4.25,0,.21.12,0,.09.25,0,.2.55-.05.5.25.05.17.29-.07.23.24.06.15.33-.09.26a.17.17,0,1,1-.1.32c.24.09.12.78-.12.68.24.1.1.12-.13,0,.23.11.08.34-.14.22.22.12.05.45-.16.31.21.14,0,.3-.17.15.2.15,0,.75-.19.6.2.15,0,0-.2-.12.2.16,0,.75-.21.57.19.18,0,.35-.22.16.18.19-.06.28-.23.08.17.2-.09.27-.24.07.15.2-.11.62-.25.41.14.21-.13.43-.26.22.13.21-.15.1-.27-.12.12.22-.17.48-.28.26.11.22-.19.48-.29.25.1.23-.2.16-.29-.07.09.23-.22.43-.29.18.07.25-.24.17-.3-.07.06.24-.26.67-.31.43.05.24-.27,0-.31-.24,0,.25-.28.22-.31,0,0,.25-.29.53-.31.27,0,.26-.31.34-.31.08,0,.26-.33.13-.31-.12,0,.25-.34,0-.32-.21,0,.25-.34.63-.31.38,0,.25-.35-.07-.3-.32,0,.25-.37.27-.31,0-.06.24-.37.26-.3,0-.07.24-.38.21-.3,0-.08.24-.39.08-.29-.15-.1.23-.39-.05-.28-.27-.11.22-.4-.25-.28-.47-.12.22-.4.46-.27.25-.13.21-.4,0-.26-.25-.14.21-.4-.09-.25-.29-.15.2-.41.25-.24.06-.17.19-.41-.52-.23-.7-.18.18-.41.25-.23.08-.18.17-.4-.28-.21-.45-.19.17-.39.09-.19-.07-.2.16-.4.11-.19,0-.21.14-.38-.23-.17-.36-.21.13-.38-.54-.16-.66-.22.12-.37-.11-.14-.22-.23.11-.37.22-.14.12-.23.1-.35-.66-.11-.74-.24.08-.34.24-.1.16-.24.08-.33-.21-.09-.28-.24.07-.32-.24-.07-.29-.25.05-.3-.67-.05-.7a.19.19,0,0,1,0-.38c-.25,0-.28.06,0,0-.25,0-.26-.62,0-.62-.26,0-.25-.41,0-.39-.25,0-.22,0,0,.06-.25,0-.21-.45,0-.42-.25,0-.2-.26.05-.21-.25-.05-.17-.72.07-.65-.24-.07-.15.05.09.12-.24-.07-.14-.38.1-.29-.24-.09-.12-.84.11-.74-.23-.1-.09-.34.14-.23-.23-.11-.08-.28.14-.16-.22-.12,0-.57.16-.44-.21-.13,0-.38.17-.24-.21-.14,0-.12.19,0-.2-.15,0-.43.19-.27-.19-.16,0-.56.21-.38-.18-.18.05-.36.23-.18-.18-.18.06-.18.23,0-.17-.19.09-.42.24-.22-.15-.2.11-.57.25-.36-.14-.21.13-.38.26-.17-.13-.21.15-.29.27-.07-.12-.22.17-.34.28-.11-.11-.23.18-.3.28-.06-.1-.24.21-.7.29-.46-.08-.24.23-.24.3,0-.07-.24.24-.14.3.11-.06-.25.26-.49.31-.24,0-.25.27-.29.3,0,0-.25.29-.24.31,0,0-.25.3-.26.32,0,0-.25.31-.1.31.15,0-.25.33-.65.31-.39,0-.26.34-.24.31,0,0-.26.35-.22.31,0,0-.25.36.19.31.44.05-.25.37-.46.31-.21.06-.25.37,0,.3.27.07-.24.38-.13.29.11.09-.24.39-.35.3-.12.09-.23.39.16.28.39.11-.23.4,0,.28.2.12-.22.4,0,.27.21.13-.21.4-.05.26.16.14-.21.4,0,.25.24.15-.2.41-.43.24-.24.17-.19.41.24.23.43.18-.19.41-.23.22-.06.19-.17.41.54.21.7.2-.16.4,0,.2.18.2-.15.39,0,.19.18.2-.14.38,0,.17.11.21-.13.38.27.16.4.22-.13.37.24.14.35.23-.11.37-.17.13-.08.24-.09.36.53.12.62a.17.17,0,1,1,.1.32c.24-.08.33-.07.09,0,.24-.06.32.7.07.75.25,0,.3,0,.05,0,.25,0,.29.16,0,.19.25,0,.28.6,0,.61.25,0,.26.05,0,.05" transform="translate(0 0)"/><path class="cls-24" d="M22.52,16.5a.16.16,0,1,1,0,.32c.25,0,.22.43,0,.4.25,0,.21.12,0,.09.25,0,.2.55-.05.5.25.05.17.29-.07.23.24.06.15.33-.09.26a.17.17,0,1,1-.1.32c.24.09.12.78-.12.68.24.1.1.12-.13,0,.23.11.08.34-.14.22.22.12.05.45-.16.31.21.14,0,.3-.17.15.2.15,0,.75-.19.6.2.15,0,0-.2-.12.2.16,0,.75-.21.57.19.18,0,.35-.22.16.18.19-.06.28-.23.08.17.2-.09.27-.24.07.15.2-.11.62-.25.41.14.21-.13.43-.26.22.13.21-.15.1-.27-.12.12.22-.17.48-.28.26.11.22-.19.48-.29.25.1.23-.2.16-.29-.07.09.23-.22.43-.29.18.07.25-.24.17-.3-.07.06.24-.26.67-.31.43.05.24-.27,0-.31-.24,0,.25-.28.22-.31,0,0,.25-.29.53-.31.27,0,.26-.31.34-.31.08,0,.26-.33.13-.31-.12,0,.25-.34,0-.32-.21,0,.25-.34.63-.31.38,0,.25-.35-.07-.3-.32,0,.25-.37.27-.31,0-.06.24-.37.26-.3,0-.07.24-.38.21-.3,0-.08.24-.39.08-.29-.15-.1.23-.39-.05-.28-.27-.11.22-.4-.25-.28-.47-.12.22-.4.46-.27.25-.13.21-.4,0-.26-.25-.14.21-.4-.09-.25-.29-.15.2-.41.25-.24.06-.17.19-.41-.52-.23-.7-.18.18-.41.25-.23.08-.18.17-.4-.28-.21-.45-.19.17-.39.09-.19-.07-.2.16-.4.11-.19,0-.21.14-.38-.23-.17-.36-.21.13-.38-.54-.16-.66-.22.12-.37-.11-.14-.22-.23.11-.37.22-.14.12-.23.1-.35-.66-.11-.74-.24.08-.34.24-.1.16-.24.08-.33-.21-.09-.28-.24.07-.32-.24-.07-.29-.25.05-.3-.67-.05-.7a.19.19,0,0,1,0-.38c-.25,0-.28.06,0,0-.25,0-.26-.62,0-.62-.26,0-.25-.41,0-.39-.25,0-.22,0,0,.06-.25,0-.21-.45,0-.42-.25,0-.2-.26.05-.21-.25-.05-.17-.72.07-.65-.24-.07-.15.05.09.12-.24-.07-.14-.38.1-.29-.24-.09-.12-.84.11-.74-.23-.1-.09-.34.14-.23-.23-.11-.08-.28.14-.16-.22-.12,0-.57.16-.44-.21-.13,0-.38.17-.24-.21-.14,0-.12.19,0-.2-.15,0-.43.19-.27-.19-.16,0-.56.21-.38-.18-.18.05-.36.23-.18-.18-.18.06-.18.23,0-.17-.19.09-.42.24-.22-.15-.2.11-.57.25-.36-.14-.21.13-.38.26-.17-.13-.21.15-.29.27-.07-.12-.22.17-.34.28-.11-.11-.23.18-.3.28-.06-.1-.24.21-.7.29-.46-.08-.24.23-.24.3,0-.07-.24.24-.14.3.11-.06-.25.26-.49.31-.24,0-.25.27-.29.3,0,0-.25.29-.24.31,0,0-.25.3-.26.32,0,0-.25.31-.1.31.15,0-.25.33-.65.31-.39,0-.26.34-.24.31,0,0-.26.35-.22.31,0,0-.25.36.19.31.44.05-.25.37-.46.31-.21.06-.25.37,0,.3.27.07-.24.38-.13.29.11.09-.24.39-.35.3-.12.09-.23.39.16.28.39.11-.23.4,0,.28.2.12-.22.4,0,.27.21.13-.21.4-.05.26.16.14-.21.4,0,.25.24.15-.2.41-.43.24-.24.17-.19.41.24.23.43.18-.19.41-.23.22-.06.19-.17.41.54.21.7.2-.16.4,0,.2.18.2-.15.39,0,.19.18.2-.14.38,0,.17.11.21-.13.38.27.16.4.22-.13.37.24.14.35.23-.11.37-.17.13-.08.24-.09.36.53.12.62a.17.17,0,1,1,.1.32c.24-.08.33-.07.09,0,.24-.06.32.7.07.75.25,0,.3,0,.05,0,.25,0,.29.16,0,.19.25,0,.28.6,0,.61C22.77,16.44,22.78,16.5,22.52,16.5Z" transform="translate(0 0)"/><path class="cls-12" d="M20.4,16.57c.16,0,.16.19,0,.18.17,0,.15.21,0,.19.16,0,.14.36,0,.33.17,0,.13.23,0,.19.16,0,.11.08-.05,0,.16,0,.1.21-.06.16a.11.11,0,1,1-.06.21c.15.06.07.25-.08.18.15.07.06.57-.08.49l-.1-.05c.14.08,0,.32-.1.23.14.09,0,.19-.12.09.14.1,0,.26-.12.16.13.1,0,.53-.13.42.13.11,0,.11-.14,0,.12.11,0,.4-.14.28.11.12-.05.11-.15,0,.1.13-.06.14-.16,0,.1.13-.07.53-.17.39.1.14-.08.14-.17,0,.09.14-.1.11-.18,0,.08.15-.1.27-.18.12.08.15-.12.46-.18.3.06.16-.14,0-.19-.13,0,.16-.15.48-.2.32.05.16-.15.07-.2-.1.05.17-.16.36-.2.2,0,.16-.17.16-.2,0,0,.16-.18.14-.2,0,0,.17-.2.07-.21-.1,0,.17-.2.18-.2,0,0,.16-.21.36-.21.2,0,.16-.22.11-.2,0,0,.16-.23,0-.2-.16,0,.17-.24.15-.21,0,0,.16-.24.16-.2,0,0,.16-.24-.09-.19-.25-.05.16-.26.26-.2.1-.06.16-.25,0-.19-.19-.06.15-.26.29-.19.14-.07.15-.26,0-.18-.18-.08.15-.26.05-.17-.09-.09.14-.27,0-.17-.16-.1.14-.27-.16-.17-.29-.1.13-.27.13-.16,0-.11.13-.27-.12-.15-.24-.12.12-.27,0-.15-.14-.12.11-.26.11-.13,0-.13.11-.26,0-.13-.1-.13.1-.26-.25-.13-.35-.13.1-.25-.14-.11-.23-.14.09-.25,0-.1-.1-.15.08-.25,0-.1-.12-.15.08-.24,0-.08-.05-.16.07-.23-.33-.08-.38-.15.05-.22-.19-.07-.24-.15.05-.21-.1-.05-.15-.16.05-.21-.27,0-.3-.16,0-.2.14,0,.12a.12.12,0,1,1,0-.24c-.16,0-.18-.28,0-.28a.12.12,0,1,1,0-.23c-.17,0-.16-.18,0-.17-.16,0-.14-.41,0-.39-.16,0-.14-.09,0-.06-.17,0-.13-.4,0-.37-.16,0-.11-.2,0-.16-.16,0-.1-.27.05-.22-.15,0-.08-.07.07,0-.15-.06-.08-.3.08-.23-.16-.07-.07-.13.08,0-.15-.08-.05-.57.1-.49-.15-.08,0-.12.1,0-.14-.09,0-.12.11,0a.11.11,0,1,1,.13-.18c-.13-.1,0-.32.13-.21-.13-.11,0-.36.13-.24-.12-.12,0-.34.15-.22-.11-.12,0-.22.15-.09-.11-.13.06-.06.16.07-.1-.13.07-.59.17-.45-.1-.14.08-.09.17.05-.09-.14.09-.29.17-.14-.08-.15.11-.3.19-.15-.08-.15.12-.2.18,0-.06-.15.13,0,.19.11-.06-.15.15-.37.2-.22-.05-.15.15-.09.19.07,0-.16.17-.37.2-.2,0-.17.18-.26.21-.09,0-.17.18-.14.2,0,0-.16.2-.2.2,0,0-.17.21-.05.21.12,0-.17.21-.1.2.07,0-.17.23-.22.21-.06,0-.16.23-.15.2,0,0-.16.24,0,.2.12,0-.16.25-.16.2,0,.05-.16.25-.26.2-.1.05-.16.25.14.2.29A.1.1,0,1,1,18,13c.06-.15.26-.07.18.08.08-.15.26-.1.18.05.08-.15.27-.08.18.06.09-.14.27-.15.17,0,.1-.13.27.16.17.29.1-.13.26-.12.16,0,.1-.12.26.07.15.19.11-.12.26.19.14.3.12-.11.27-.17.14-.06.13-.11.26.06.13.16.13-.1.26.08.12.18.14-.1.26,0,.12.07.14-.08.24.25.1.33.14-.08.24.23.1.31.14-.08.23.05.08.12.15-.07.23.22.08.27.15-.05.22-.15.06-.1.16-.05.22.44.06.48.16,0,.21,0,.05.06.16,0,.2.31,0,.34.17,0,.19,0,0,.05.16,0,.18.37,0,.38.17,0,.17,0,0,0" transform="translate(0 0)"/><path class="cls-25" d="M20.4,16.57c.16,0,.16.19,0,.18.17,0,.15.21,0,.19.16,0,.14.36,0,.33.17,0,.13.23,0,.19.16,0,.11.08-.05,0,.16,0,.1.21-.06.16a.11.11,0,1,1-.06.21c.15.06.07.25-.08.18.15.07.06.57-.08.49l-.1-.05c.14.08,0,.32-.1.23.14.09,0,.19-.12.09.14.1,0,.26-.12.16.13.1,0,.53-.13.42.13.11,0,.11-.14,0,.12.11,0,.4-.14.28.11.12-.05.11-.15,0,.1.13-.06.14-.16,0,.1.13-.07.53-.17.39.1.14-.08.14-.17,0,.09.14-.1.11-.18,0,.08.15-.1.27-.18.12.08.15-.12.46-.18.3.06.16-.14,0-.19-.13,0,.16-.15.48-.2.32.05.16-.15.07-.2-.1.05.17-.16.36-.2.2,0,.16-.17.16-.2,0,0,.16-.18.14-.2,0,0,.17-.2.07-.21-.1,0,.17-.2.18-.2,0,0,.16-.21.36-.21.2,0,.16-.22.11-.2,0,0,.16-.23,0-.2-.16,0,.17-.24.15-.21,0,0,.16-.24.16-.2,0,0,.16-.24-.09-.19-.25-.05.16-.26.26-.2.1-.06.16-.25,0-.19-.19-.06.15-.26.29-.19.14-.07.15-.26,0-.18-.18-.08.15-.26.05-.17-.09-.09.14-.27,0-.17-.16-.1.14-.27-.16-.17-.29-.1.13-.27.13-.16,0-.11.13-.27-.12-.15-.24-.12.12-.27,0-.15-.14-.12.11-.26.11-.13,0-.13.11-.26,0-.13-.1-.13.1-.26-.25-.13-.35-.13.1-.25-.14-.11-.23-.14.09-.25,0-.1-.1-.15.08-.25,0-.1-.12-.15.08-.24,0-.08-.05-.16.07-.23-.33-.08-.38-.15.05-.22-.19-.07-.24-.15.05-.21-.1-.05-.15-.16.05-.21-.27,0-.3-.16,0-.2.14,0,.12a.12.12,0,1,1,0-.24c-.16,0-.18-.28,0-.28a.12.12,0,1,1,0-.23c-.17,0-.16-.18,0-.17-.16,0-.14-.41,0-.39-.16,0-.14-.09,0-.06-.17,0-.13-.4,0-.37-.16,0-.11-.2,0-.16-.16,0-.1-.27.05-.22-.15,0-.08-.07.07,0-.15-.06-.08-.3.08-.23-.16-.07-.07-.13.08,0-.15-.08-.05-.57.1-.49-.15-.08,0-.12.1,0-.14-.09,0-.12.11,0a.11.11,0,1,1,.13-.18c-.13-.1,0-.32.13-.21-.13-.11,0-.36.13-.24-.12-.12,0-.34.15-.22-.11-.12,0-.22.15-.09-.11-.13.06-.06.16.07-.1-.13.07-.59.17-.45-.1-.14.08-.09.17.05-.09-.14.09-.29.17-.14-.08-.15.11-.3.19-.15-.08-.15.12-.2.18,0-.06-.15.13,0,.19.11-.06-.15.15-.37.2-.22-.05-.15.15-.09.19.07,0-.16.17-.37.2-.2,0-.17.18-.26.21-.09,0-.17.18-.14.2,0,0-.16.2-.2.2,0,0-.17.21-.05.21.12,0-.17.21-.1.2.07,0-.17.23-.22.21-.06,0-.16.23-.15.2,0,0-.16.24,0,.2.12,0-.16.25-.16.2,0,.05-.16.25-.26.2-.1.05-.16.25.14.2.29A.1.1,0,1,1,18,13c.06-.15.26-.07.18.08.08-.15.26-.1.18.05.08-.15.27-.08.18.06.09-.14.27-.15.17,0,.1-.13.27.16.17.29.1-.13.26-.12.16,0,.1-.12.26.07.15.19.11-.12.26.19.14.3.12-.11.27-.17.14-.06.13-.11.26.06.13.16.13-.1.26.08.12.18.14-.1.26,0,.12.07.14-.08.24.25.1.33.14-.08.24.23.1.31.14-.08.23.05.08.12.15-.07.23.22.08.27.15-.05.22-.15.06-.1.16-.05.22.44.06.48.16,0,.21,0,.05.06.16,0,.2.31,0,.34.17,0,.19,0,0,.05.16,0,.18.37,0,.38C20.56,16.53,20.56,16.57,20.4,16.57Z" transform="translate(0 0)"/><path class="cls-19" d="M19.8,16.54c.14,0,.14.27,0,.26.14,0,.12.06,0,0,.14,0,.12.3,0,.28.14,0,.11.34,0,.31.14,0,.1.21,0,.17.14,0,.09-.05-.05-.1.14.05.08.49-.05.44.13,0,.06,0-.07-.05.13.06.06.36-.07.3a.09.09,0,1,1-.08.17c.12.07,0,.09-.09,0a.1.1,0,1,1-.1.17c.12.08,0,.32-.1.23.11.09,0,.09-.11,0,.11.1,0,.24-.12.14.1.1,0,.2-.12.09.09.11,0,.35-.13.25.09.1-.05.07-.14-.05.09.12-.06.41-.14.29.08.12-.07.18-.14.06.07.12-.09.16-.16,0,.07.13-.09.17-.15,0,.06.13-.1.32-.16.19.06.13-.11.17-.16,0,.05.13-.12.27-.17.14.05.13-.13,0-.17-.14,0,.13-.14.31-.17.17,0,.14-.15.13-.17,0,0,.13-.16.1-.17,0,0,.14-.17.24-.18.1,0,.14-.17,0-.17-.15,0,.14-.18.23-.18.09,0,.14-.18.15-.17,0,0,.14-.19.14-.17,0,0,.14-.2,0-.18-.11,0,.14-.2,0-.17-.08,0,.13-.21.34-.16.21-.05.13-.22-.13-.17-.26-.05.13-.22.25-.16.12-.06.13-.22-.19-.16-.32-.06.13-.22.07-.16-.05-.06.12-.22,0-.15-.11-.07.12-.22.19-.14.07-.08.12-.23-.15-.14-.26-.09.11-.23.14-.14,0-.09.11-.23-.13-.13-.23-.1.1-.23-.06-.12-.16-.11.1-.23.08-.12,0-.11.09-.22-.16-.11-.25-.11.09-.22-.05-.1-.13-.12.08-.22.11-.1,0-.12.08-.21-.28-.09-.34-.12.06-.21.13-.08.07-.13.06-.2-.17-.07-.23a.09.09,0,1,1-.07-.17c-.13,0-.19-.09-.06-.13-.13,0-.18-.34,0-.38-.14,0-.18-.05,0-.08-.14,0-.17-.08,0-.1-.14,0-.17-.08,0-.1-.14,0-.15-.28,0-.29-.14,0-.14-.12,0-.12-.14,0-.14-.17,0-.16-.14,0-.13-.18,0-.16a.11.11,0,0,1,0-.21c-.14,0-.11-.25,0-.22-.14,0-.1-.06,0,0-.14,0-.09-.39,0-.34-.13,0-.07-.18.06-.13-.13-.05-.06-.34.07-.28-.13-.06-.06-.17.07-.11-.13-.06,0,0,.08,0-.12-.07,0-.29.09-.22-.12-.07,0-.14.1-.06-.12-.08,0-.25.1-.16-.11-.09,0-.43.11-.34-.11-.09,0,0,.12.09-.1-.1,0-.48.12-.38-.1-.1,0,0,.13.07-.09-.11.05-.29.14-.18-.09-.11.06-.31.14-.2-.08-.11.07-.05.14.07-.07-.12.09-.21.15-.09-.06-.12.1-.2.16-.07-.06-.13.1-.19.16-.06-.06-.13.11-.26.16-.13-.05-.13.12-.08.17,0-.05-.13.13-.44.16-.31,0-.13.15.07.17.21,0-.14.16-.36.18-.22,0-.14.16-.16.17,0,0-.14.17,0,.17.12,0-.14.18-.33.18-.19,0-.14.18,0,.17.13,0-.14.19-.22.18-.08,0-.14.19,0,.17.1,0-.14.2,0,.17.11,0-.14.21,0,.17.11,0-.14.22-.16.17,0,.05-.14.22-.27.17-.13.05-.14.22.18.16.31.06-.13.22-.23.16-.11.06-.12.22,0,.16.15.06-.12.22-.17.15-.05.07-.12.22.13.14.24.08-.11.23,0,.14.1.09-.11.23,0,.14.15.09-.1.23-.17.13-.07.1-.1.22.08.12.18.1-.1.23.14.12.23.11-.09.22.08.11.17.11-.09.22,0,.1.1.12-.08.22.06.1.14.12-.08.21.15.09.21a.09.09,0,1,1,.08.16c.13-.06.2-.1.07-.05.13,0,.2.25.07.3.13-.05.19.12.05.17.14-.05.19,0,.05.07.14,0,.18.33,0,.36.14,0,.17.12,0,.15.14,0,.16.05,0,.06.14,0,.16.1,0,.1a.12.12,0,0,1,0,.23" transform="translate(0 0)"/><path class="cls-26" d="M19.8,16.54c.14,0,.14.27,0,.26.14,0,.12.06,0,0,.14,0,.12.3,0,.28.14,0,.11.34,0,.31.14,0,.1.21,0,.17.14,0,.09-.05-.05-.1.14.05.08.49-.05.44.13,0,.06,0-.07-.05.13.06.06.36-.07.3a.09.09,0,1,1-.08.17c.12.07,0,.09-.09,0a.1.1,0,1,1-.1.17c.12.08,0,.32-.1.23.11.09,0,.09-.11,0,.11.1,0,.24-.12.14.1.1,0,.2-.12.09.09.11,0,.35-.13.25.09.1-.05.07-.14-.05.09.12-.06.41-.14.29.08.12-.07.18-.14.06.07.12-.09.16-.16,0,.07.13-.09.17-.15,0,.06.13-.1.32-.16.19.06.13-.11.17-.16,0,.05.13-.12.27-.17.14.05.13-.13,0-.17-.14,0,.13-.14.31-.17.17,0,.14-.15.13-.17,0,0,.13-.16.1-.17,0,0,.14-.17.24-.18.1,0,.14-.17,0-.17-.15,0,.14-.18.23-.18.09,0,.14-.18.15-.17,0,0,.14-.19.14-.17,0,0,.14-.2,0-.18-.11,0,.14-.2,0-.17-.08,0,.13-.21.34-.16.21-.05.13-.22-.13-.17-.26-.05.13-.22.25-.16.12-.06.13-.22-.19-.16-.32-.06.13-.22.07-.16-.05-.06.12-.22,0-.15-.11-.07.12-.22.19-.14.07-.08.12-.23-.15-.14-.26-.09.11-.23.14-.14,0-.09.11-.23-.13-.13-.23-.1.1-.23-.06-.12-.16-.11.1-.23.08-.12,0-.11.09-.22-.16-.11-.25-.11.09-.22-.05-.1-.13-.12.08-.22.11-.1,0-.12.08-.21-.28-.09-.34-.12.06-.21.13-.08.07-.13.06-.2-.17-.07-.23a.09.09,0,1,1-.07-.17c-.13,0-.19-.09-.06-.13-.13,0-.18-.34,0-.38-.14,0-.18-.05,0-.08-.14,0-.17-.08,0-.1-.14,0-.17-.08,0-.1-.14,0-.15-.28,0-.29-.14,0-.14-.12,0-.12-.14,0-.14-.17,0-.16-.14,0-.13-.18,0-.16a.11.11,0,0,1,0-.21c-.14,0-.11-.25,0-.22-.14,0-.1-.06,0,0-.14,0-.09-.39,0-.34-.13,0-.07-.18.06-.13-.13-.05-.06-.34.07-.28-.13-.06-.06-.17.07-.11-.13-.06,0,0,.08,0-.12-.07,0-.29.09-.22-.12-.07,0-.14.1-.06-.12-.08,0-.25.1-.16-.11-.09,0-.43.11-.34-.11-.09,0,0,.12.09-.1-.1,0-.48.12-.38-.1-.1,0,0,.13.07-.09-.11.05-.29.14-.18-.09-.11.06-.31.14-.2-.08-.11.07-.05.14.07-.07-.12.09-.21.15-.09-.06-.12.1-.2.16-.07-.06-.13.1-.19.16-.06-.06-.13.11-.26.16-.13-.05-.13.12-.08.17,0-.05-.13.13-.44.16-.31,0-.13.15.07.17.21,0-.14.16-.36.18-.22,0-.14.16-.16.17,0,0-.14.17,0,.17.12,0-.14.18-.33.18-.19,0-.14.18,0,.17.13,0-.14.19-.22.18-.08,0-.14.19,0,.17.1,0-.14.2,0,.17.11,0-.14.21,0,.17.11,0-.14.22-.16.17,0,.05-.14.22-.27.17-.13.05-.14.22.18.16.31.06-.13.22-.23.16-.11.06-.12.22,0,.16.15.06-.12.22-.17.15-.05.07-.12.22.13.14.24.08-.11.23,0,.14.1.09-.11.23,0,.14.15.09-.1.23-.17.13-.07.1-.1.22.08.12.18.1-.1.23.14.12.23.11-.09.22.08.11.17.11-.09.22,0,.1.1.12-.08.22.06.1.14.12-.08.21.15.09.21a.09.09,0,1,1,.08.16c.13-.06.2-.1.07-.05.13,0,.2.25.07.3.13-.05.19.12.05.17.14-.05.19,0,.05.07.14,0,.18.33,0,.36.14,0,.17.12,0,.15.14,0,.16.05,0,.06.14,0,.16.1,0,.1A.12.12,0,0,1,19.8,16.54Z" transform="translate(0 0)"/><path class="cls-21" d="M21.44,15.46a4.6,4.6,0,0,1,1.74-.53,4.73,4.73,0,0,1-1.61.85,4.94,4.94,0,0,1-1.74.53,4.73,4.73,0,0,1,1.61-.85" transform="translate(0 0)"/><path class="cls-21" d="M17.24,11.29a6,6,0,0,1,1.09-2,6.25,6.25,0,0,1-.68,2.22,6.27,6.27,0,0,1-1.09,2,6,6,0,0,1,.68-2.22" transform="translate(0 0)"/><path class="cls-21" d="M12.05,13.33c-.88-.88-1.53-1.67-1.44-1.75s.87.56,1.75,1.44,1.53,1.66,1.44,1.75-.87-.56-1.75-1.44" transform="translate(0 0)"/><path class="cls-21" d="M10.81,16.55a6.54,6.54,0,0,1-2.17-1.16,6.46,6.46,0,0,1,2.35.72,6.42,6.42,0,0,1,2.17,1.15,6.62,6.62,0,0,1-2.35-.71" transform="translate(0 0)"/><path class="cls-21" d="M14.06,21a5.37,5.37,0,0,1-.92,1.73,5.18,5.18,0,0,1,.57-1.88,5.37,5.37,0,0,1,.92-1.73A5.18,5.18,0,0,1,14.06,21" transform="translate(0 0)"/><path class="cls-21" d="M19,20.81a6.38,6.38,0,0,1,.71,2.35A6.63,6.63,0,0,1,18.6,21a6.44,6.44,0,0,1-.72-2.34A6.56,6.56,0,0,1,19,20.81" transform="translate(0 0)"/><path class="cls-21" d="M21.9,16.27a4.75,4.75,0,0,1,1.52.81,4.71,4.71,0,0,1-1.65-.5,4.58,4.58,0,0,1-1.51-.8,4.31,4.31,0,0,1,1.64.49" transform="translate(0 0)"/><path class="cls-27" d="M70.79,24.07a.48.48,0,0,1-.13.33.46.46,0,0,1-.35.14H67.25a.07.07,0,0,0-.07.07v7.13a.48.48,0,0,1-.47.47h-1a.42.42,0,0,1-.33-.14.46.46,0,0,1-.15-.33V19.91a.47.47,0,0,1,.15-.35.42.42,0,0,1,.33-.14h4.63a.46.46,0,0,1,.35.14.49.49,0,0,1,.13.35Zm-1.9-3.18a0,0,0,0,0,0-.05H67.25s-.07,0-.07.05v.36a.07.07,0,0,0,.07.07h1.59s0,0,0-.07Zm-1.71,2.16a.06.06,0,0,0,.07.07h1.59s0,0,0-.07v-.39s0-.06,0-.06H67.25s-.07,0-.07.06Zm7.54,5.66a.46.46,0,0,1-.15.34.45.45,0,0,1-.33.14h-.82s-.06,0-.06.07v2.22a.44.44,0,0,1-.14.34.47.47,0,0,1-.35.15h-.81a.45.45,0,0,1-.34-.15.47.47,0,0,1-.13-.34V29.26a.07.07,0,0,0-.07-.07h-.85a.07.07,0,0,0-.08.06,4.57,4.57,0,0,1-1.36,2.69.48.48,0,0,1-.36.12.61.61,0,0,1-.35-.17,6.91,6.91,0,0,0-.57-.51.32.32,0,0,1-.13-.28.41.41,0,0,1,.13-.29,3.18,3.18,0,0,0,.89-1.56s0-.06,0-.06h-.67a.48.48,0,0,1-.48-.48V28a.48.48,0,0,1,.14-.34.46.46,0,0,1,.34-.15h.75s.05,0,.05-.05v-.69s0,0-.05,0h-.56a.5.5,0,0,1-.35-.14.47.47,0,0,1-.14-.35v-.61a.44.44,0,0,1,.14-.34.47.47,0,0,1,.35-.15H74a.45.45,0,0,1,.35.15.45.45,0,0,1,.15.34v.61a.5.5,0,0,1-.5.49h-.61s-.06,0-.06,0v.69s0,.05.06.05h.82a.43.43,0,0,1,.33.15.45.45,0,0,1,.15.34ZM70.66,27.5s0,.05.07.05h.79s.07,0,.07-.05v-.69s0,0-.07,0h-.79s-.07,0-.07,0Zm6.08-8.08a.42.42,0,0,1,.34.14.5.5,0,0,1,.14.35v10a3.7,3.7,0,0,1-.15,1.19,1.26,1.26,0,0,1-.56.67,4,4,0,0,1-1.92.37.52.52,0,0,1-.35-.14.58.58,0,0,1-.21-.34,7.86,7.86,0,0,0-.31-1.08.3.3,0,0,1,.3-.42h.92a.26.26,0,0,0,.22-.07.32.32,0,0,0,.06-.22V24.65a.06.06,0,0,0-.07-.07H72a.42.42,0,0,1-.34-.14.47.47,0,0,1-.14-.33v-4.2a.5.5,0,0,1,.14-.35.42.42,0,0,1,.34-.14Zm-1.52,1.47s0-.05-.07-.05H73.51a0,0,0,0,0-.05.05v.36s0,.07.05.07h1.64a.06.06,0,0,0,.07-.07Zm-1.76,2.2c0,.05,0,.07.05.07h1.64s.07,0,.07-.07v-.43s0-.06-.07-.06H73.51s-.05,0-.05.06Z" transform="translate(0 0)"/><path class="cls-27" d="M99.71,30.19a.5.5,0,0,1,.35.14.48.48,0,0,1,.13.34v.59a.47.47,0,0,1-.13.34.5.5,0,0,1-.35.14H94.15s-.05,0-.05.05a.41.41,0,0,1-.4.4H92.63a.45.45,0,0,1-.34-.15.45.45,0,0,1-.14-.33V26.84s0,0,0,0h0l-.17.17a.4.4,0,0,1-.33.15.54.54,0,0,1-.35-.16c-.32-.32-.61-.59-.87-.82h0l0,0v5.54a.45.45,0,0,1-.14.34.46.46,0,0,1-.34.14h-1a.48.48,0,0,1-.35-.14.46.46,0,0,1-.15-.34V25.46s0,0,0,0,0,0,0,0l-.32.38a.28.28,0,0,1-.28.1.27.27,0,0,1-.22-.18,11.57,11.57,0,0,0-.64-1.27.73.73,0,0,1-.08-.33v-.07A.72.72,0,0,1,87,23.7a13.75,13.75,0,0,0,2.54-4.27.52.52,0,0,1,.63-.31l1,.31a.43.43,0,0,1,.28.23.52.52,0,0,1,0,.37c-.32.79-.68,1.55-1.07,2.3a.28.28,0,0,0,0,.12v3.2a0,0,0,0,0,0,0s0,0,0,0a8.72,8.72,0,0,0,2.2-3s0-.06,0-.06h-.36a.42.42,0,0,1-.33-.14.45.45,0,0,1-.15-.35V19.84a.47.47,0,0,1,.15-.35.45.45,0,0,1,.33-.14h.88a.48.48,0,0,1,.34.14.47.47,0,0,1,.15.35v1c0,.05,0,.07,0,.07h1s.07,0,.07-.07V19.49a.46.46,0,0,1,.48-.48h1a.45.45,0,0,1,.34.13.48.48,0,0,1,.14.35v1.32c0,.05,0,.07.07.07h1.15s.06,0,.06-.07v-1a.5.5,0,0,1,.14-.35.48.48,0,0,1,.34-.14h1a.48.48,0,0,1,.35.14.47.47,0,0,1,.15.35v2.24a.45.45,0,0,1-.15.35.45.45,0,0,1-.35.14H96.53v0l1.07.23a.37.37,0,0,1,.25.21.33.33,0,0,1,0,.32l-.18.35s0,.05,0,.05h1.83a.48.48,0,0,1,.48.48v.59a.48.48,0,0,1-.14.34.49.49,0,0,1-.34.14H97.44s0,0,0,.06v.52c0,.05,0,.07,0,.07h1.73a.48.48,0,0,1,.34.14.46.46,0,0,1,.14.34v.47a.48.48,0,0,1-.14.34.45.45,0,0,1-.34.15H97.44a0,0,0,0,0,0,.05V28s0,.06,0,.06h1.73a.48.48,0,0,1,.34.14.5.5,0,0,1,.14.35V29a.48.48,0,0,1-.14.35.45.45,0,0,1-.34.15H97.44a0,0,0,0,0,0,0v.56c0,.05,0,.07,0,.07Zm-6.24-7.62s0,0,0,0l.68.19a.44.44,0,0,1,.27.23.38.38,0,0,1,0,.36c0,.1-.1.21-.16.33s0,.05,0,.05h1.29a.08.08,0,0,0,.08-.07,7.41,7.41,0,0,0,.27-1.05s0-.06,0-.06ZM95.39,26s.06,0,.06-.07v-.52a.05.05,0,0,0-.06-.06H94.15s-.05,0-.05.06v.52c0,.05,0,.07.05.07Zm0,2.11a.05.05,0,0,0,.06-.06v-.56s0-.05-.06-.05H94.15s-.05,0-.05.05V28s0,.06.05.06Zm-1.24,1.45s-.05,0-.05,0v.56c0,.05,0,.07.05.07h1.24s.06,0,.06-.07v-.56s0,0-.06,0Z" transform="translate(0 0)"/><path class="cls-27" d="M121.36,30.38h.1a.13.13,0,0,0,.13-.07.71.71,0,0,0,.07-.27c0-.17,0-.47,0-.89a.25.25,0,0,1,.13-.22.24.24,0,0,1,.26,0l.35.19a.75.75,0,0,1,.33.28.66.66,0,0,1,.11.36,6.29,6.29,0,0,1-.07.79c0,.23,0,.4-.08.52a1.34,1.34,0,0,1-.45.73,1.16,1.16,0,0,1-.73.23h-.69a1.12,1.12,0,0,1-.93-.37,1,1,0,0,1-.24-.46,6.35,6.35,0,0,1,0-.92v-.4s0,0,0,0,0,0,0,0a10.65,10.65,0,0,1-2,2.05.54.54,0,0,1-.37.08.54.54,0,0,1-.33-.18,6.37,6.37,0,0,0-.59-.57.37.37,0,0,1-.12-.29.3.3,0,0,1,.15-.28l.42-.32a.12.12,0,0,0,0-.09c0-.1,0-.22-.09-.37s0-.06-.07,0l-2.45.94a.52.52,0,0,1-.37,0,.48.48,0,0,1-.26-.28l-.41-1a.41.41,0,0,1,0-.34.44.44,0,0,1,.27-.23l.29-.07s.05,0,.05-.08V26.46s0,0,0,0a0,0,0,0,0,0,0l-.46.84a.23.23,0,0,1-.22.13.23.23,0,0,1-.21-.15,4.28,4.28,0,0,0-.2-.43h0v4.9a.49.49,0,0,1-.14.34.45.45,0,0,1-.34.14h-.88a.45.45,0,0,1-.35-.14.46.46,0,0,1-.15-.34V28.26s0,0,0,0a8.65,8.65,0,0,1-.51,1.2.19.19,0,0,1-.21.12.24.24,0,0,1-.2-.15c-.12-.26-.27-.56-.46-.9a.84.84,0,0,1-.12-.42.94.94,0,0,1,.1-.43,15.49,15.49,0,0,0,1.34-4.14s0-.07-.05-.07h-.72a.45.45,0,0,1-.34-.14.42.42,0,0,1-.14-.34v-.86a.46.46,0,0,1,.14-.35.49.49,0,0,1,.34-.14h.79s0,0,0-.06V19.4a.5.5,0,0,1,.5-.49h.88a.49.49,0,0,1,.34.14.52.52,0,0,1,.14.35v2.2s0,.06.07.06H113a.48.48,0,0,1,.34.14.47.47,0,0,1,.15.35V23a.43.43,0,0,1-.15.34.44.44,0,0,1-.34.14h-.36c-.05,0-.07,0-.07.07v.6a.18.18,0,0,0,0,.11c.19.22.55.67,1.07,1.34h0V20a.48.48,0,0,1,.14-.34.52.52,0,0,1,.35-.14h2.82a.5.5,0,0,1,.35.14.48.48,0,0,1,.14.34v5.5a.52.52,0,0,1-.14.35.5.5,0,0,1-.35.14h-1.63a0,0,0,0,0,0,.05V28.4s0,.06,0,.05l.73-.22a.06.06,0,0,0,0-.08l-.26-.78a.4.4,0,0,1,0-.35.51.51,0,0,1,.27-.25l.64-.2a.52.52,0,0,1,.37,0,.49.49,0,0,1,.27.28c.29.73.52,1.36.7,1.91,0,0,0,0,0,0h0a8.79,8.79,0,0,0,1.3-2.53s0-.06,0-.06h-1.27a.5.5,0,0,1-.35-.14.46.46,0,0,1-.14-.35v-.83a.41.41,0,0,1,.41-.41s0,0,0-.06V21.26s0-.05,0-.05a.33.33,0,0,1-.25-.1.3.3,0,0,1-.1-.24V20a.46.46,0,0,1,.14-.35.48.48,0,0,1,.35-.14h3.57a.48.48,0,0,1,.34.14.47.47,0,0,1,.15.35v.74a.43.43,0,0,1-.15.34.48.48,0,0,1-.34.14h-.07s-.06,0-.06.07v.82a21.28,21.28,0,0,1-.12,2.32s0,.06,0,.06h.44a.42.42,0,0,1,.34.14.48.48,0,0,1,.14.35v.75a.5.5,0,0,1-.14.35.46.46,0,0,1-.34.14h-.75a.07.07,0,0,0-.08.06l0,.11a1,1,0,0,1,0,.12.49.49,0,0,0,0,.12v3.5a.77.77,0,0,0,0,.19c0,.05.05.07.12.07M116,21.21a.06.06,0,0,0-.07-.07h-.44s0,0,0,.07v.72c0,.05,0,.07,0,.07h.44a.06.06,0,0,0,.07-.07Zm-.56,3.14s0,.07,0,.07h.44a.06.06,0,0,0,.07-.07v-.78a.07.07,0,0,0-.07-.07h-.44s0,0,0,.07Zm4.35.07a.05.05,0,0,0,.06.06h.13a.08.08,0,0,0,.08-.07,18.24,18.24,0,0,0,.14-2.33v-.8c0-.05,0-.07-.06-.07h-.29s-.06,0-.06.07Z" transform="translate(0 0)"/><path class="cls-27" d="M144.84,27.62a.42.42,0,0,1-.14.33.46.46,0,0,1-.34.15h-2.11a.14.14,0,0,0-.1,0,6.63,6.63,0,0,1-1,1.44s0,0,0,.05c1,.3,1.92.57,2.71.84a.29.29,0,0,1,.21.22.33.33,0,0,1,0,.32l-.64.88a.59.59,0,0,1-.33.22.53.53,0,0,1-.41,0c-1-.39-2.13-.77-3.32-1.14a.14.14,0,0,0-.11,0,18,18,0,0,1-5.79,1.24h0a.63.63,0,0,1-.33-.09.6.6,0,0,1-.23-.33,7.26,7.26,0,0,0-.37-.85.3.3,0,0,1,0-.29.29.29,0,0,1,.24-.15,22.7,22.7,0,0,0,3.61-.38l0,0h0l-.6-.15h0c0,.07-.1.09-.17.06l-1.41-.41a.31.31,0,0,1-.21-.22.32.32,0,0,1,0-.31c.21-.28.42-.58.65-.91,0,0,0,0,0,0H132.4a.52.52,0,0,1-.48-.48V27a.49.49,0,0,1,.15-.35.45.45,0,0,1,.33-.14h3.24a.13.13,0,0,0,.1,0l.37-.59s0-.05,0-.05h-2.83a.47.47,0,0,1-.35-.15.42.42,0,0,1-.14-.33V22.15a.46.46,0,0,1,.14-.35.5.5,0,0,1,.35-.14h2.45a.05.05,0,0,0,.06-.06v-.43c0-.05,0-.07-.06-.07h-3.07a.45.45,0,0,1-.34-.15.43.43,0,0,1-.15-.33v-.78a.47.47,0,0,1,.15-.35.48.48,0,0,1,.34-.14H144a.48.48,0,0,1,.35.14.46.46,0,0,1,.14.35v.78a.42.42,0,0,1-.14.33.45.45,0,0,1-.35.15h-3.16s-.06,0-.06.07v.43a.05.05,0,0,0,.06.06h2.79a.48.48,0,0,1,.35.14.47.47,0,0,1,.15.35v3.16a.43.43,0,0,1-.15.33.45.45,0,0,1-.35.15H138.5a.11.11,0,0,0-.1.05l-.35.59s0,0,0,0h6.28a.49.49,0,0,1,.34.14.47.47,0,0,1,.14.35Zm-10.11-4.38a.05.05,0,0,0-.06.06v.86c0,.05,0,.07.06.07h1s.06,0,.06-.07V23.3a.05.05,0,0,0-.06-.06ZM137,28.1a.14.14,0,0,0-.1,0l-.18.28s0,.06,0,.06l2.13.54a.11.11,0,0,0,.11,0,4.51,4.51,0,0,0,.84-.85s0,0,0,0Zm.69-7s0,0,0,.07v.43s0,.06,0,.06h1.08c.05,0,.07,0,.07-.06v-.43c0-.05,0-.07-.07-.07Zm0,3.06c0,.05,0,.07,0,.07h1.08c.05,0,.07,0,.07-.07V23.3s0-.06-.07-.06h-1.08s0,0,0,.06Zm4.43-.86a.05.05,0,0,0-.06-.06h-1.19a.05.05,0,0,0-.06.06v.86c0,.05,0,.07.06.07h1.19s.06,0,.06-.07Z" transform="translate(0 0)"/></g></g></g></svg>